%TF.GenerationSoftware,KiCad,Pcbnew,9.0.6*%
%TF.CreationDate,2025-12-04T10:49:31-05:00*%
%TF.ProjectId,Devboard,44657662-6f61-4726-942e-6b696361645f,rev?*%
%TF.SameCoordinates,Original*%
%TF.FileFunction,Copper,L1,Top*%
%TF.FilePolarity,Positive*%
%FSLAX46Y46*%
G04 Gerber Fmt 4.6, Leading zero omitted, Abs format (unit mm)*
G04 Created by KiCad (PCBNEW 9.0.6) date 2025-12-04 10:49:31*
%MOMM*%
%LPD*%
G01*
G04 APERTURE LIST*
G04 Aperture macros list*
%AMRoundRect*
0 Rectangle with rounded corners*
0 $1 Rounding radius*
0 $2 $3 $4 $5 $6 $7 $8 $9 X,Y pos of 4 corners*
0 Add a 4 corners polygon primitive as box body*
4,1,4,$2,$3,$4,$5,$6,$7,$8,$9,$2,$3,0*
0 Add four circle primitives for the rounded corners*
1,1,$1+$1,$2,$3*
1,1,$1+$1,$4,$5*
1,1,$1+$1,$6,$7*
1,1,$1+$1,$8,$9*
0 Add four rect primitives between the rounded corners*
20,1,$1+$1,$2,$3,$4,$5,0*
20,1,$1+$1,$4,$5,$6,$7,0*
20,1,$1+$1,$6,$7,$8,$9,0*
20,1,$1+$1,$8,$9,$2,$3,0*%
G04 Aperture macros list end*
%TA.AperFunction,SMDPad,CuDef*%
%ADD10RoundRect,0.135000X-0.185000X0.135000X-0.185000X-0.135000X0.185000X-0.135000X0.185000X0.135000X0*%
%TD*%
%TA.AperFunction,SMDPad,CuDef*%
%ADD11RoundRect,0.150000X0.150000X-0.587500X0.150000X0.587500X-0.150000X0.587500X-0.150000X-0.587500X0*%
%TD*%
%TA.AperFunction,SMDPad,CuDef*%
%ADD12RoundRect,0.225000X0.225000X0.250000X-0.225000X0.250000X-0.225000X-0.250000X0.225000X-0.250000X0*%
%TD*%
%TA.AperFunction,SMDPad,CuDef*%
%ADD13RoundRect,0.140000X-0.170000X0.140000X-0.170000X-0.140000X0.170000X-0.140000X0.170000X0.140000X0*%
%TD*%
%TA.AperFunction,SMDPad,CuDef*%
%ADD14RoundRect,0.135000X-0.135000X-0.185000X0.135000X-0.185000X0.135000X0.185000X-0.135000X0.185000X0*%
%TD*%
%TA.AperFunction,SMDPad,CuDef*%
%ADD15RoundRect,0.062500X-0.387500X-0.062500X0.387500X-0.062500X0.387500X0.062500X-0.387500X0.062500X0*%
%TD*%
%TA.AperFunction,HeatsinkPad*%
%ADD16R,0.200000X1.600000*%
%TD*%
%TA.AperFunction,HeatsinkPad*%
%ADD17R,3.200000X3.200000*%
%TD*%
%TA.AperFunction,SMDPad,CuDef*%
%ADD18RoundRect,0.050000X-0.050000X-0.387500X0.050000X-0.387500X0.050000X0.387500X-0.050000X0.387500X0*%
%TD*%
%TA.AperFunction,SMDPad,CuDef*%
%ADD19RoundRect,0.050000X-0.387500X-0.050000X0.387500X-0.050000X0.387500X0.050000X-0.387500X0.050000X0*%
%TD*%
%TA.AperFunction,SMDPad,CuDef*%
%ADD20RoundRect,0.250000X0.450000X0.350000X-0.450000X0.350000X-0.450000X-0.350000X0.450000X-0.350000X0*%
%TD*%
%TA.AperFunction,SMDPad,CuDef*%
%ADD21RoundRect,0.200000X-0.200000X-0.800000X0.200000X-0.800000X0.200000X0.800000X-0.200000X0.800000X0*%
%TD*%
%TA.AperFunction,SMDPad,CuDef*%
%ADD22RoundRect,0.135000X0.135000X0.185000X-0.135000X0.185000X-0.135000X-0.185000X0.135000X-0.185000X0*%
%TD*%
%TA.AperFunction,SMDPad,CuDef*%
%ADD23RoundRect,0.135000X0.185000X-0.135000X0.185000X0.135000X-0.185000X0.135000X-0.185000X-0.135000X0*%
%TD*%
%TA.AperFunction,ComponentPad*%
%ADD24R,1.700000X1.700000*%
%TD*%
%TA.AperFunction,ComponentPad*%
%ADD25C,1.700000*%
%TD*%
%TA.AperFunction,SMDPad,CuDef*%
%ADD26RoundRect,0.140000X-0.140000X-0.170000X0.140000X-0.170000X0.140000X0.170000X-0.140000X0.170000X0*%
%TD*%
%TA.AperFunction,SMDPad,CuDef*%
%ADD27RoundRect,0.140000X0.170000X-0.140000X0.170000X0.140000X-0.170000X0.140000X-0.170000X-0.140000X0*%
%TD*%
%TA.AperFunction,SMDPad,CuDef*%
%ADD28RoundRect,0.140000X0.140000X0.170000X-0.140000X0.170000X-0.140000X-0.170000X0.140000X-0.170000X0*%
%TD*%
%TA.AperFunction,SMDPad,CuDef*%
%ADD29RoundRect,0.140000X0.021213X-0.219203X0.219203X-0.021213X-0.021213X0.219203X-0.219203X0.021213X0*%
%TD*%
%TA.AperFunction,HeatsinkPad*%
%ADD30O,1.000000X1.600000*%
%TD*%
%TA.AperFunction,HeatsinkPad*%
%ADD31O,1.000000X2.100000*%
%TD*%
%TA.AperFunction,SMDPad,CuDef*%
%ADD32R,0.600000X1.450000*%
%TD*%
%TA.AperFunction,SMDPad,CuDef*%
%ADD33R,0.300000X1.450000*%
%TD*%
%TA.AperFunction,ViaPad*%
%ADD34C,0.600000*%
%TD*%
%TA.AperFunction,Conductor*%
%ADD35C,0.200000*%
%TD*%
G04 APERTURE END LIST*
D10*
%TO.P,R3,2*%
%TO.N,Net-(U1-USB_DP)*%
X79375000Y-82822500D03*
%TO.P,R3,1*%
%TO.N,USB_D+*%
X79375000Y-81802500D03*
%TD*%
D11*
%TO.P,U2,3,VI*%
%TO.N,VBUS*%
X76185000Y-68385000D03*
%TO.P,U2,2,VO*%
%TO.N,+3V3*%
X77135000Y-70260000D03*
%TO.P,U2,1,GND*%
%TO.N,GND*%
X75235000Y-70260000D03*
%TD*%
D12*
%TO.P,C14,1*%
%TO.N,VBUS*%
X76150000Y-66650000D03*
%TO.P,C14,2*%
%TO.N,GND*%
X74600000Y-66650000D03*
%TD*%
%TO.P,C13,1*%
%TO.N,+3V3*%
X76950000Y-72100000D03*
%TO.P,C13,2*%
%TO.N,GND*%
X75400000Y-72100000D03*
%TD*%
D13*
%TO.P,C10,2*%
%TO.N,GND*%
X81650000Y-94680000D03*
%TO.P,C10,1*%
%TO.N,+1V1*%
X81650000Y-93720000D03*
%TD*%
%TO.P,C9,2*%
%TO.N,GND*%
X80600000Y-94555000D03*
%TO.P,C9,1*%
%TO.N,+3V3*%
X80600000Y-93595000D03*
%TD*%
D14*
%TO.P,R5,2*%
%TO.N,Net-(C15-Pad2)*%
X79485000Y-93725000D03*
%TO.P,R5,1*%
%TO.N,XOUT*%
X78465000Y-93725000D03*
%TD*%
D15*
%TO.P,U3,1,~{CS}*%
%TO.N,QSPI_SS*%
X73725000Y-79550000D03*
%TO.P,U3,2,DO/IO_{1}*%
%TO.N,QSPI_SD1*%
X73725000Y-80050000D03*
%TO.P,U3,3,~{WP}/IO_{2}*%
%TO.N,QSPI_SD2*%
X73725000Y-80550000D03*
%TO.P,U3,4,GND*%
%TO.N,GND*%
X73725000Y-81050000D03*
%TO.P,U3,5,DI/IO_{0}*%
%TO.N,QSPI_SD0*%
X76575000Y-81050000D03*
%TO.P,U3,6,CLK*%
%TO.N,QSPI_SCLK*%
X76575000Y-80550000D03*
%TO.P,U3,7,~{HOLD}/~{RESET}/IO_{3}*%
%TO.N,QSPI_SD3*%
X76575000Y-80050000D03*
%TO.P,U3,8,VCC*%
%TO.N,+3V3*%
X76575000Y-79550000D03*
D16*
%TO.P,U3,9*%
%TO.N,N/C*%
X75150000Y-80300000D03*
%TD*%
D17*
%TO.P,U1,57,GND*%
%TO.N,GND*%
X78700000Y-87600000D03*
D18*
%TO.P,U1,56,QSPI_SS*%
%TO.N,QSPI_SS*%
X76100000Y-84162500D03*
%TO.P,U1,55,QSPI_SD1*%
%TO.N,QSPI_SD1*%
X76500000Y-84162500D03*
%TO.P,U1,54,QSPI_SD2*%
%TO.N,QSPI_SD2*%
X76900000Y-84162500D03*
%TO.P,U1,53,QSPI_SD0*%
%TO.N,QSPI_SD0*%
X77300000Y-84162500D03*
%TO.P,U1,52,QSPI_SCLK*%
%TO.N,QSPI_SCLK*%
X77700000Y-84162500D03*
%TO.P,U1,51,QSPI_SD3*%
%TO.N,QSPI_SD3*%
X78100000Y-84162500D03*
%TO.P,U1,50,DVDD*%
%TO.N,+1V1*%
X78500000Y-84162500D03*
%TO.P,U1,49,IOVDD*%
%TO.N,+3V3*%
X78900000Y-84162500D03*
%TO.P,U1,48,USB_VDD*%
X79300000Y-84162500D03*
%TO.P,U1,47,USB_DP*%
%TO.N,Net-(U1-USB_DP)*%
X79700000Y-84162500D03*
%TO.P,U1,46,USB_DM*%
%TO.N,Net-(U1-USB_DM)*%
X80100000Y-84162500D03*
%TO.P,U1,45,VREG_VOUT*%
%TO.N,+1V1*%
X80500000Y-84162500D03*
%TO.P,U1,44,VREG_IN*%
%TO.N,+3V3*%
X80900000Y-84162500D03*
%TO.P,U1,43,ADC_AVDD*%
X81300000Y-84162500D03*
D19*
%TO.P,U1,42,IOVDD*%
X82137500Y-85000000D03*
%TO.P,U1,41,GPIO29_ADC3*%
%TO.N,GPIO29_ADC3*%
X82137500Y-85400000D03*
%TO.P,U1,40,GPIO28_ADC2*%
%TO.N,GPIO28_ADC2*%
X82137500Y-85800000D03*
%TO.P,U1,39,GPIO27_ADC1*%
%TO.N,GPIO27_ADC1*%
X82137500Y-86200000D03*
%TO.P,U1,38,GPIO26_ADC0*%
%TO.N,GPIO26_ADC0*%
X82137500Y-86600000D03*
%TO.P,U1,37,GPIO25*%
%TO.N,GPIO25*%
X82137500Y-87000000D03*
%TO.P,U1,36,GPIO24*%
%TO.N,GPIO24*%
X82137500Y-87400000D03*
%TO.P,U1,35,GPIO23*%
%TO.N,GPIO23*%
X82137500Y-87800000D03*
%TO.P,U1,34,GPIO22*%
%TO.N,GPIO22*%
X82137500Y-88200000D03*
%TO.P,U1,33,IOVDD*%
%TO.N,+3V3*%
X82137500Y-88600000D03*
%TO.P,U1,32,GPIO21*%
%TO.N,GPIO21*%
X82137500Y-89000000D03*
%TO.P,U1,31,GPIO20*%
%TO.N,GPIO20*%
X82137500Y-89400000D03*
%TO.P,U1,30,GPIO19*%
%TO.N,GPIO19*%
X82137500Y-89800000D03*
%TO.P,U1,29,GPIO18*%
%TO.N,GPIO18*%
X82137500Y-90200000D03*
D18*
%TO.P,U1,28,GPIO17*%
%TO.N,GPIO17*%
X81300000Y-91037500D03*
%TO.P,U1,27,GPIO16*%
%TO.N,GPIO16*%
X80900000Y-91037500D03*
%TO.P,U1,26,RUN*%
%TO.N,RUN*%
X80500000Y-91037500D03*
%TO.P,U1,25,SWD*%
%TO.N,SWD*%
X80100000Y-91037500D03*
%TO.P,U1,24,SWCLK*%
%TO.N,SWCLK*%
X79700000Y-91037500D03*
%TO.P,U1,23,DVDD*%
%TO.N,+1V1*%
X79300000Y-91037500D03*
%TO.P,U1,22,IOVDD*%
%TO.N,+3V3*%
X78900000Y-91037500D03*
%TO.P,U1,21,XOUT*%
%TO.N,XOUT*%
X78500000Y-91037500D03*
%TO.P,U1,20,XIN*%
%TO.N,XIN*%
X78100000Y-91037500D03*
%TO.P,U1,19,TESTEN*%
%TO.N,GND*%
X77700000Y-91037500D03*
%TO.P,U1,18,GPIO15*%
%TO.N,GPIO15*%
X77300000Y-91037500D03*
%TO.P,U1,17,GPIO14*%
%TO.N,GPIO14*%
X76900000Y-91037500D03*
%TO.P,U1,16,GPIO13*%
%TO.N,GPIO13*%
X76500000Y-91037500D03*
%TO.P,U1,15,GPIO12*%
%TO.N,GPIO12*%
X76100000Y-91037500D03*
D19*
%TO.P,U1,14,GPIO11*%
%TO.N,GPIO11*%
X75262500Y-90200000D03*
%TO.P,U1,13,GPIO10*%
%TO.N,GPIO10*%
X75262500Y-89800000D03*
%TO.P,U1,12,GPIO9*%
%TO.N,GPIO9*%
X75262500Y-89400000D03*
%TO.P,U1,11,GPIO8*%
%TO.N,GPIO8*%
X75262500Y-89000000D03*
%TO.P,U1,10,IOVDD*%
%TO.N,+3V3*%
X75262500Y-88600000D03*
%TO.P,U1,9,GPIO7*%
%TO.N,GPIO7*%
X75262500Y-88200000D03*
%TO.P,U1,8,GPIO6*%
%TO.N,GPIO6*%
X75262500Y-87800000D03*
%TO.P,U1,7,GPIO5*%
%TO.N,GPIO5*%
X75262500Y-87400000D03*
%TO.P,U1,6,GPIO4*%
%TO.N,GPIO4*%
X75262500Y-87000000D03*
%TO.P,U1,5,GPIO3*%
%TO.N,GPIO3*%
X75262500Y-86600000D03*
%TO.P,U1,4,GPIO2*%
%TO.N,GPIO2*%
X75262500Y-86200000D03*
%TO.P,U1,3,GPIO1*%
%TO.N,GPIO1*%
X75262500Y-85800000D03*
%TO.P,U1,2,GPIO0*%
%TO.N,GPIO0*%
X75262500Y-85400000D03*
%TO.P,U1,1,IOVDD*%
%TO.N,+3V3*%
X75262500Y-85000000D03*
%TD*%
D20*
%TO.P,Y1,1,1*%
%TO.N,Net-(C15-Pad2)*%
X79050000Y-95100000D03*
%TO.P,Y1,2,2*%
%TO.N,GND*%
X76850000Y-95100000D03*
%TO.P,Y1,3,3*%
%TO.N,XIN*%
X76850000Y-96800000D03*
%TO.P,Y1,4,4*%
%TO.N,GND*%
X79050000Y-96800000D03*
%TD*%
D21*
%TO.P,SW1,1,1*%
%TO.N,GND*%
X74125000Y-74725000D03*
%TO.P,SW1,2,2*%
%TO.N,Net-(R6-Pad1)*%
X78325000Y-74725000D03*
%TD*%
D22*
%TO.P,R7,1*%
%TO.N,+3V3*%
X74660000Y-78550000D03*
%TO.P,R7,2*%
%TO.N,QSPI_SS*%
X73640000Y-78550000D03*
%TD*%
%TO.P,R6,1*%
%TO.N,Net-(R6-Pad1)*%
X74860000Y-77275000D03*
%TO.P,R6,2*%
%TO.N,QSPI_SS*%
X73840000Y-77275000D03*
%TD*%
D23*
%TO.P,R2,1*%
%TO.N,GND*%
X77675000Y-67410000D03*
%TO.P,R2,2*%
%TO.N,Net-(J1-CC2)*%
X77675000Y-66390000D03*
%TD*%
D22*
%TO.P,R1,1*%
%TO.N,GND*%
X81760000Y-66400000D03*
%TO.P,R1,2*%
%TO.N,Net-(J1-CC1)*%
X80740000Y-66400000D03*
%TD*%
D24*
%TO.P,J4,1,Pin_1*%
%TO.N,SWCLK*%
X76160000Y-107690000D03*
D25*
%TO.P,J4,2,Pin_2*%
%TO.N,GND*%
X78700000Y-107690000D03*
%TO.P,J4,3,Pin_3*%
%TO.N,SWD*%
X81240000Y-107690000D03*
%TD*%
D24*
%TO.P,J3,1,Pin_1*%
%TO.N,VBUS*%
X87590000Y-59470000D03*
D25*
%TO.P,J3,2,Pin_2*%
%TO.N,+3V3*%
X87590000Y-62010000D03*
%TO.P,J3,3,Pin_3*%
%TO.N,GPIO29_ADC3*%
X87590000Y-64550000D03*
%TO.P,J3,4,Pin_4*%
%TO.N,GPIO28_ADC2*%
X87590000Y-67090000D03*
%TO.P,J3,5,Pin_5*%
%TO.N,GPIO27_ADC1*%
X87590000Y-69630000D03*
%TO.P,J3,6,Pin_6*%
%TO.N,GPIO26_ADC0*%
X87590000Y-72170000D03*
%TO.P,J3,7,Pin_7*%
%TO.N,RUN*%
X87590000Y-74710000D03*
%TO.P,J3,8,Pin_8*%
%TO.N,GND*%
X87590000Y-77250000D03*
%TO.P,J3,9,Pin_9*%
%TO.N,GPIO25*%
X87590000Y-79790000D03*
%TO.P,J3,10,Pin_10*%
%TO.N,GPIO24*%
X87590000Y-82330000D03*
%TO.P,J3,11,Pin_11*%
%TO.N,GPIO23*%
X87590000Y-84870000D03*
%TO.P,J3,12,Pin_12*%
%TO.N,GPIO22*%
X87590000Y-87410000D03*
%TO.P,J3,13,Pin_13*%
%TO.N,GND*%
X87590000Y-89950000D03*
%TO.P,J3,14,Pin_14*%
%TO.N,GPIO21*%
X87590000Y-92490000D03*
%TO.P,J3,15,Pin_15*%
%TO.N,GPIO20*%
X87590000Y-95030000D03*
%TO.P,J3,16,Pin_16*%
%TO.N,GPIO19*%
X87590000Y-97570000D03*
%TO.P,J3,17,Pin_17*%
%TO.N,GPIO18*%
X87590000Y-100110000D03*
%TO.P,J3,18,Pin_18*%
%TO.N,GND*%
X87590000Y-102650000D03*
%TO.P,J3,19,Pin_19*%
%TO.N,GPIO17*%
X87590000Y-105190000D03*
%TO.P,J3,20,Pin_20*%
%TO.N,GPIO16*%
X87590000Y-107730000D03*
%TD*%
D24*
%TO.P,J2,1,Pin_1*%
%TO.N,GPIO0*%
X69810000Y-59470000D03*
D25*
%TO.P,J2,2,Pin_2*%
%TO.N,GPIO1*%
X69810000Y-62010000D03*
%TO.P,J2,3,Pin_3*%
%TO.N,GND*%
X69810000Y-64550000D03*
%TO.P,J2,4,Pin_4*%
%TO.N,GPIO2*%
X69810000Y-67090000D03*
%TO.P,J2,5,Pin_5*%
%TO.N,GPIO3*%
X69810000Y-69630000D03*
%TO.P,J2,6,Pin_6*%
%TO.N,GPIO4*%
X69810000Y-72170000D03*
%TO.P,J2,7,Pin_7*%
%TO.N,GPIO5*%
X69810000Y-74710000D03*
%TO.P,J2,8,Pin_8*%
%TO.N,GND*%
X69810000Y-77250000D03*
%TO.P,J2,9,Pin_9*%
%TO.N,GPIO6*%
X69810000Y-79790000D03*
%TO.P,J2,10,Pin_10*%
%TO.N,GPIO7*%
X69810000Y-82330000D03*
%TO.P,J2,11,Pin_11*%
%TO.N,GPIO8*%
X69810000Y-84870000D03*
%TO.P,J2,12,Pin_12*%
%TO.N,GPIO9*%
X69810000Y-87410000D03*
%TO.P,J2,13,Pin_13*%
%TO.N,GND*%
X69810000Y-89950000D03*
%TO.P,J2,14,Pin_14*%
%TO.N,GPIO10*%
X69810000Y-92490000D03*
%TO.P,J2,15,Pin_15*%
%TO.N,GPIO11*%
X69810000Y-95030000D03*
%TO.P,J2,16,Pin_16*%
%TO.N,GPIO12*%
X69810000Y-97570000D03*
%TO.P,J2,17,Pin_17*%
%TO.N,GPIO13*%
X69810000Y-100110000D03*
%TO.P,J2,18,Pin_18*%
%TO.N,GND*%
X69810000Y-102650000D03*
%TO.P,J2,19,Pin_19*%
%TO.N,GPIO14*%
X69810000Y-105190000D03*
%TO.P,J2,20,Pin_20*%
%TO.N,GPIO15*%
X69810000Y-107730000D03*
%TD*%
D26*
%TO.P,C17,1*%
%TO.N,+3V3*%
X83870000Y-88825000D03*
%TO.P,C17,2*%
%TO.N,GND*%
X84830000Y-88825000D03*
%TD*%
D13*
%TO.P,C16,1*%
%TO.N,GND*%
X75200000Y-95420000D03*
%TO.P,C16,2*%
%TO.N,XIN*%
X75200000Y-96380000D03*
%TD*%
D27*
%TO.P,C15,1*%
%TO.N,GND*%
X80650000Y-96430000D03*
%TO.P,C15,2*%
%TO.N,Net-(C15-Pad2)*%
X80650000Y-95470000D03*
%TD*%
%TO.P,C12,2*%
%TO.N,GND*%
X81475000Y-81570000D03*
%TO.P,C12,1*%
%TO.N,+1V1*%
X81475000Y-82530000D03*
%TD*%
%TO.P,C11,1*%
%TO.N,+1V1*%
X78400000Y-81150000D03*
%TO.P,C11,2*%
%TO.N,GND*%
X78400000Y-80190000D03*
%TD*%
D28*
%TO.P,C8,2*%
%TO.N,GND*%
X72995000Y-88850000D03*
%TO.P,C8,1*%
%TO.N,+3V3*%
X73955000Y-88850000D03*
%TD*%
D26*
%TO.P,C7,1*%
%TO.N,+3V3*%
X83295000Y-84700000D03*
%TO.P,C7,2*%
%TO.N,GND*%
X84255000Y-84700000D03*
%TD*%
D27*
%TO.P,C6,1*%
%TO.N,+3V3*%
X79425000Y-80155000D03*
%TO.P,C6,2*%
%TO.N,GND*%
X79425000Y-79195000D03*
%TD*%
D28*
%TO.P,C5,1*%
%TO.N,+3V3*%
X74430000Y-84075000D03*
%TO.P,C5,2*%
%TO.N,GND*%
X73470000Y-84075000D03*
%TD*%
D27*
%TO.P,C4,1*%
%TO.N,+3V3*%
X82500000Y-82475000D03*
%TO.P,C4,2*%
%TO.N,GND*%
X82500000Y-81515000D03*
%TD*%
%TO.P,C3,1*%
%TO.N,+3V3*%
X80350000Y-79705000D03*
%TO.P,C3,2*%
%TO.N,GND*%
X80350000Y-78745000D03*
%TD*%
D28*
%TO.P,C2,1*%
%TO.N,+3V3*%
X76755000Y-78550000D03*
%TO.P,C2,2*%
%TO.N,GND*%
X75795000Y-78550000D03*
%TD*%
D29*
%TO.P,C1,1*%
%TO.N,+3V3*%
X83035589Y-83489411D03*
%TO.P,C1,2*%
%TO.N,GND*%
X83714411Y-82810589D03*
%TD*%
D30*
%TO.P,J1,S1,SHIELD*%
%TO.N,GND*%
X74380000Y-59550000D03*
D31*
X74380000Y-63730000D03*
D30*
X83020000Y-59550000D03*
D31*
X83020000Y-63730000D03*
D32*
%TO.P,J1,B12,GND*%
X81950000Y-64645000D03*
%TO.P,J1,B9,VBUS*%
%TO.N,VBUS*%
X81150000Y-64645000D03*
D33*
%TO.P,J1,B8*%
%TO.N,N/C*%
X80450000Y-64645000D03*
%TO.P,J1,B7,D-*%
%TO.N,USB_D-*%
X79450000Y-64645000D03*
%TO.P,J1,B6,D+*%
%TO.N,USB_D+*%
X77950000Y-64645000D03*
%TO.P,J1,B5,CC2*%
%TO.N,Net-(J1-CC2)*%
X76950000Y-64645000D03*
D32*
%TO.P,J1,B4,VBUS*%
%TO.N,VBUS*%
X76250000Y-64645000D03*
%TO.P,J1,B1,GND*%
%TO.N,GND*%
X75450000Y-64645000D03*
%TO.P,J1,A12,GND*%
X75450000Y-64645000D03*
%TO.P,J1,A9,VBUS*%
%TO.N,VBUS*%
X76250000Y-64645000D03*
D33*
%TO.P,J1,A8*%
%TO.N,N/C*%
X77450000Y-64645000D03*
%TO.P,J1,A7,D-*%
%TO.N,USB_D-*%
X78450000Y-64645000D03*
%TO.P,J1,A6,D+*%
%TO.N,USB_D+*%
X78950000Y-64645000D03*
%TO.P,J1,A5,CC1*%
%TO.N,Net-(J1-CC1)*%
X79950000Y-64645000D03*
D32*
%TO.P,J1,A4,VBUS*%
%TO.N,VBUS*%
X81150000Y-64645000D03*
%TO.P,J1,A1,GND*%
%TO.N,GND*%
X81950000Y-64645000D03*
%TD*%
D23*
%TO.P,R4,1*%
%TO.N,Net-(U1-USB_DM)*%
X80425000Y-82822500D03*
%TO.P,R4,2*%
%TO.N,USB_D-*%
X80425000Y-81802500D03*
%TD*%
D34*
%TO.N,GND*%
X75795000Y-78550000D03*
X77025000Y-77225000D03*
X79450000Y-78050000D03*
X85725000Y-89975000D03*
X88325000Y-78475000D03*
%TO.N,RUN*%
X80339010Y-90100999D03*
%TO.N,+1V1*%
X78437500Y-81187500D03*
X80335206Y-85131745D03*
X79500000Y-90101000D03*
%TO.N,GND*%
X70655000Y-76405000D03*
X70625000Y-78475000D03*
X69100000Y-78500000D03*
X69100000Y-76050000D03*
X71375000Y-74925000D03*
X74537500Y-81162500D03*
X81700000Y-71075000D03*
X84650000Y-63625000D03*
X78950000Y-68725000D03*
X74375000Y-71000000D03*
X77900000Y-72175000D03*
X84350000Y-79950000D03*
X80250000Y-101400000D03*
X80300000Y-99850000D03*
X74225000Y-83150000D03*
X76850000Y-95100000D03*
X86350000Y-78425000D03*
X84925000Y-59675000D03*
X81875000Y-99825000D03*
X81850000Y-101450000D03*
X72200000Y-88800000D03*
X75583450Y-97701000D03*
X75200000Y-95420000D03*
X77650000Y-79275000D03*
X77850000Y-85625000D03*
X80775000Y-87700000D03*
X79300000Y-85600000D03*
X76800000Y-86650000D03*
X77700000Y-90100000D03*
X77100000Y-93650000D03*
%TO.N,GPIO28_ADC2*%
X81175000Y-85400000D03*
%TO.N,GPIO29_ADC3*%
X83575000Y-79611765D03*
X83575000Y-85600000D03*
%TO.N,GPIO16*%
X81202401Y-90096128D03*
%TO.N,RUN*%
X86500000Y-75800000D03*
%TO.N,GPIO0*%
X74325000Y-85019023D03*
%TO.N,GPIO1*%
X72751000Y-83350000D03*
%TO.N,GPIO2*%
X72673000Y-85076735D03*
%TO.N,GPIO3*%
X72673000Y-85950000D03*
%TO.N,GPIO4*%
X72673000Y-86800000D03*
%TO.N,GPIO8*%
X76201120Y-90102138D03*
%TO.N,+3V3*%
X78550000Y-78000000D03*
X79178223Y-80803404D03*
X79100000Y-83807289D03*
X78000000Y-70260000D03*
X81962500Y-83237500D03*
%TD*%
D35*
%TO.N,+3V3*%
X75974000Y-88599000D02*
X75825000Y-88599000D01*
X76875000Y-89500000D02*
X75974000Y-88599000D01*
X78225000Y-89500000D02*
X76875000Y-89500000D01*
%TO.N,GPIO8*%
X75800000Y-89000000D02*
X75262500Y-89000000D01*
X76201120Y-89401120D02*
X75800000Y-89000000D01*
X76201120Y-90102138D02*
X76201120Y-89401120D01*
%TO.N,+3V3*%
X83300000Y-84695000D02*
X83295000Y-84700000D01*
X83300000Y-83753822D02*
X83300000Y-84695000D01*
X83035589Y-83489411D02*
X83300000Y-83753822D01*
X81300000Y-84162500D02*
X80900000Y-84162500D01*
X81300000Y-84162500D02*
X82137500Y-85000000D01*
X82362500Y-84162500D02*
X83035589Y-83489411D01*
X82871178Y-83325000D02*
X83035589Y-83489411D01*
X82050000Y-83325000D02*
X82871178Y-83325000D01*
X81962500Y-83237500D02*
X82050000Y-83325000D01*
%TO.N,GND*%
X84255000Y-83351178D02*
X83714411Y-82810589D01*
X84255000Y-84700000D02*
X84255000Y-83351178D01*
X82500000Y-81515000D02*
X83714411Y-82729411D01*
X83714411Y-82729411D02*
X83714411Y-82810589D01*
%TO.N,+3V3*%
X78000000Y-78550000D02*
X78550000Y-78000000D01*
X76755000Y-78550000D02*
X78000000Y-78550000D01*
X76214000Y-77889000D02*
X76755000Y-78430000D01*
X75321000Y-77889000D02*
X76214000Y-77889000D01*
X76755000Y-78430000D02*
X76755000Y-78550000D01*
X74660000Y-78550000D02*
X75321000Y-77889000D01*
X76755000Y-79370000D02*
X76755000Y-78550000D01*
%TO.N,VBUS*%
X80375000Y-63175000D02*
X80375000Y-61797000D01*
X80375000Y-61797000D02*
X81397000Y-60775000D01*
X80375000Y-63175000D02*
X81150000Y-63950000D01*
X78997000Y-63175000D02*
X80375000Y-63175000D01*
X79724000Y-62524000D02*
X80375000Y-63175000D01*
X79648000Y-62524000D02*
X79724000Y-62524000D01*
X81150000Y-63950000D02*
X81150000Y-64645000D01*
X78997000Y-63175000D02*
X79648000Y-62524000D01*
X77100000Y-63175000D02*
X78997000Y-63175000D01*
X76250000Y-64025000D02*
X77100000Y-63175000D01*
X76250000Y-64645000D02*
X76250000Y-64025000D01*
%TO.N,RUN*%
X86500000Y-75800000D02*
X87590000Y-74710000D01*
%TO.N,GND*%
X87590000Y-77740000D02*
X88325000Y-78475000D01*
X87590000Y-77250000D02*
X87590000Y-77740000D01*
X86415000Y-78425000D02*
X87590000Y-77250000D01*
X86350000Y-78425000D02*
X86415000Y-78425000D01*
X86400000Y-78475000D02*
X86350000Y-78425000D01*
X88325000Y-78475000D02*
X86400000Y-78475000D01*
%TO.N,+3V3*%
X79199000Y-89500000D02*
X79200000Y-89501000D01*
X79200000Y-89501000D02*
X80601000Y-89501000D01*
X78225000Y-89500000D02*
X79199000Y-89500000D01*
%TO.N,QSPI_SD2*%
X76900000Y-83375000D02*
X76900000Y-84162500D01*
X75725000Y-79425000D02*
X75725000Y-82200000D01*
X74650000Y-79425000D02*
X74876000Y-79199000D01*
X75499000Y-79199000D02*
X75725000Y-79425000D01*
X74650000Y-80350000D02*
X74650000Y-79425000D01*
X74450000Y-80550000D02*
X74650000Y-80350000D01*
X73725000Y-80550000D02*
X74450000Y-80550000D01*
X74876000Y-79199000D02*
X75499000Y-79199000D01*
X75725000Y-82200000D02*
X76900000Y-83375000D01*
%TO.N,USB_D+*%
X78975000Y-67900057D02*
X78975000Y-65757501D01*
X78975000Y-65757501D02*
X78950000Y-65732501D01*
X80961000Y-78418450D02*
X79551000Y-77008450D01*
X79551000Y-68476057D02*
X78975000Y-67900057D01*
X80706550Y-80286000D02*
X80961000Y-80031550D01*
X80545570Y-80286000D02*
X80706550Y-80286000D01*
X79551000Y-77008450D02*
X79551000Y-68476057D01*
X79375000Y-81456570D02*
X80545570Y-80286000D01*
X80961000Y-80031550D02*
X80961000Y-78418450D01*
X79375000Y-81802500D02*
X79375000Y-81456570D01*
X78950000Y-65732501D02*
X78950000Y-64645000D01*
%TO.N,Net-(U1-USB_DP)*%
X79700000Y-84162500D02*
X79700000Y-83147500D01*
X79700000Y-83147500D02*
X79375000Y-82822500D01*
%TO.N,Net-(U1-USB_DM)*%
X80100000Y-84162500D02*
X80100000Y-83147500D01*
X80100000Y-83147500D02*
X80425000Y-82822500D01*
%TO.N,GND*%
X82445000Y-81570000D02*
X82500000Y-81515000D01*
X81475000Y-81570000D02*
X82445000Y-81570000D01*
%TO.N,+1V1*%
X81475000Y-82809999D02*
X81475000Y-82530000D01*
X80891499Y-83393500D02*
X81475000Y-82809999D01*
X80725000Y-83393500D02*
X80891499Y-83393500D01*
X80500000Y-83618500D02*
X80725000Y-83393500D01*
X80500000Y-84162500D02*
X80500000Y-83618500D01*
%TO.N,+3V3*%
X81962500Y-83012500D02*
X82500000Y-82475000D01*
X81962500Y-83237500D02*
X81962500Y-83012500D01*
%TO.N,RUN*%
X80463759Y-90225748D02*
X80339010Y-90100999D01*
X80500000Y-90225748D02*
X80463759Y-90225748D01*
%TO.N,GPIO16*%
X80900000Y-90313815D02*
X80900000Y-91037500D01*
X81117687Y-90096128D02*
X80900000Y-90313815D01*
X81202401Y-90096128D02*
X81117687Y-90096128D01*
%TO.N,+3V3*%
X81050000Y-88600000D02*
X82137500Y-88600000D01*
X80601000Y-89501000D02*
X80601000Y-89049000D01*
X80601000Y-89049000D02*
X81050000Y-88600000D01*
%TO.N,+1V1*%
X79300000Y-90322387D02*
X79300000Y-91037500D01*
X79500000Y-90101000D02*
X79500000Y-90122387D01*
X79500000Y-90122387D02*
X79300000Y-90322387D01*
%TO.N,RUN*%
X80500000Y-90225748D02*
X80500000Y-91037500D01*
%TO.N,+3V3*%
X78225000Y-89500000D02*
X78900000Y-90175000D01*
X78900000Y-90175000D02*
X78900000Y-91037500D01*
X76150000Y-85000000D02*
X75975000Y-85000000D01*
X76000000Y-85150000D02*
X76000000Y-85025000D01*
X76000000Y-85150000D02*
X76150000Y-85000000D01*
X76325000Y-85000000D02*
X76150000Y-85000000D01*
X76000000Y-85325000D02*
X76000000Y-85150000D01*
X76000000Y-88425000D02*
X76000000Y-85325000D01*
X75262500Y-88600000D02*
X75825000Y-88600000D01*
X75975000Y-85000000D02*
X75262500Y-85000000D01*
X76000000Y-85025000D02*
X75975000Y-85000000D01*
X75825000Y-88600000D02*
X76000000Y-88425000D01*
X78650000Y-85000000D02*
X76325000Y-85000000D01*
X78900000Y-84750000D02*
X78650000Y-85000000D01*
X78900000Y-84162500D02*
X78900000Y-84750000D01*
%TO.N,GND*%
X77875000Y-85600000D02*
X77875000Y-85500000D01*
X77850000Y-85625000D02*
X77875000Y-85600000D01*
%TO.N,+1V1*%
X80500000Y-84697774D02*
X80500000Y-84162500D01*
X80335206Y-85131745D02*
X80202461Y-84999000D01*
X80335206Y-84862568D02*
X80500000Y-84697774D01*
X80335206Y-85131745D02*
X80335206Y-84862568D01*
X81400000Y-82555000D02*
X81400000Y-82676000D01*
%TO.N,GND*%
X74425000Y-81050000D02*
X73725000Y-81050000D01*
X74537500Y-81162500D02*
X74425000Y-81050000D01*
%TO.N,QSPI_SD1*%
X76500000Y-83625000D02*
X76500000Y-84162500D01*
X76191450Y-83316450D02*
X76500000Y-83625000D01*
X75783550Y-83316450D02*
X76191450Y-83316450D01*
X75783550Y-83291507D02*
X75783550Y-83316450D01*
X73968043Y-81476000D02*
X75783550Y-83291507D01*
X73187202Y-81476000D02*
X73968043Y-81476000D01*
X72875000Y-81163798D02*
X73187202Y-81476000D01*
X72875000Y-80225000D02*
X72875000Y-81163798D01*
X73050000Y-80050000D02*
X72875000Y-80225000D01*
X73725000Y-80050000D02*
X73050000Y-80050000D01*
%TO.N,QSPI_SS*%
X72982900Y-79550000D02*
X73725000Y-79550000D01*
X72474000Y-80058900D02*
X72982900Y-79550000D01*
X72474000Y-81329898D02*
X72474000Y-80058900D01*
X73825000Y-81925000D02*
X73069102Y-81925000D01*
X74449000Y-82549000D02*
X73825000Y-81925000D01*
X73069102Y-81925000D02*
X72474000Y-81329898D01*
X74473943Y-82549000D02*
X74449000Y-82549000D01*
X74826000Y-82926000D02*
X74826000Y-82901057D01*
X76100000Y-84162500D02*
X76062500Y-84162500D01*
X76062500Y-84162500D02*
X74826000Y-82926000D01*
X74826000Y-82901057D02*
X74473943Y-82549000D01*
%TO.N,GND*%
X81950000Y-66210000D02*
X81760000Y-66400000D01*
X81950000Y-64645000D02*
X81950000Y-66210000D01*
X82105000Y-64645000D02*
X83020000Y-63730000D01*
X81950000Y-64645000D02*
X82105000Y-64645000D01*
X73470000Y-83905000D02*
X74225000Y-83150000D01*
X73470000Y-84075000D02*
X73470000Y-83905000D01*
X77730000Y-79195000D02*
X77650000Y-79275000D01*
X79425000Y-79195000D02*
X77730000Y-79195000D01*
X78400000Y-80025000D02*
X77650000Y-79275000D01*
X78400000Y-80190000D02*
X78400000Y-80025000D01*
X75295000Y-64645000D02*
X74380000Y-63730000D01*
X75450000Y-64645000D02*
X75295000Y-64645000D01*
X72250000Y-88850000D02*
X72200000Y-88800000D01*
X72995000Y-88850000D02*
X72250000Y-88850000D01*
%TO.N,+3V3*%
X74205000Y-88600000D02*
X73955000Y-88850000D01*
X75262500Y-88600000D02*
X74205000Y-88600000D01*
%TO.N,GPIO9*%
X73525000Y-90225000D02*
X72625000Y-90225000D01*
X73525000Y-90217550D02*
X73525000Y-90225000D01*
X74342550Y-89400000D02*
X73525000Y-90217550D01*
X72625000Y-90225000D02*
X69810000Y-87410000D01*
X75262500Y-89400000D02*
X74342550Y-89400000D01*
%TO.N,GPIO10*%
X74700000Y-89800000D02*
X72010000Y-92490000D01*
X75262500Y-89800000D02*
X74700000Y-89800000D01*
X72010000Y-92490000D02*
X69810000Y-92490000D01*
%TO.N,GPIO11*%
X75262500Y-90662500D02*
X70895000Y-95030000D01*
X70895000Y-95030000D02*
X69810000Y-95030000D01*
X75262500Y-90200000D02*
X75262500Y-90662500D01*
%TO.N,GPIO19*%
X82675000Y-89800000D02*
X82137500Y-89800000D01*
X83950000Y-91075000D02*
X82675000Y-89800000D01*
X87590000Y-97570000D02*
X83950000Y-93930000D01*
X83950000Y-93930000D02*
X83950000Y-91075000D01*
%TO.N,+3V3*%
X81962500Y-83237500D02*
X81825000Y-83237500D01*
X81825000Y-83237500D02*
X81293750Y-83768750D01*
X81300000Y-83775000D02*
X81293750Y-83768750D01*
X81300000Y-84162500D02*
X81300000Y-83775000D01*
X81293750Y-83768750D02*
X80900000Y-84162500D01*
%TO.N,GND*%
X75583450Y-97701000D02*
X74457725Y-96575275D01*
X78149000Y-97701000D02*
X75583450Y-97701000D01*
X74457725Y-96162275D02*
X75200000Y-95420000D01*
X79050000Y-96800000D02*
X78149000Y-97701000D01*
X74457725Y-96575275D02*
X74457725Y-96162275D01*
X77700000Y-91037500D02*
X77700000Y-90100000D01*
%TO.N,QSPI_SD3*%
X77750000Y-80557900D02*
X77242100Y-80050000D01*
X77750000Y-81550000D02*
X77750000Y-80557900D01*
X77242100Y-80050000D02*
X76575000Y-80050000D01*
X78100000Y-81900000D02*
X77750000Y-81550000D01*
X78100000Y-84162500D02*
X78100000Y-81900000D01*
%TO.N,QSPI_SCLK*%
X77350000Y-80725000D02*
X77175000Y-80550000D01*
X77700000Y-82775000D02*
X77350000Y-82425000D01*
X77700000Y-84162500D02*
X77700000Y-82775000D01*
X77350000Y-82425000D02*
X77350000Y-80725000D01*
X77175000Y-80550000D02*
X76575000Y-80550000D01*
%TO.N,GND*%
X75520000Y-95100000D02*
X75200000Y-95420000D01*
X76850000Y-95100000D02*
X75520000Y-95100000D01*
%TO.N,+3V3*%
X79804340Y-93104000D02*
X80295340Y-93595000D01*
X80295340Y-93595000D02*
X80600000Y-93595000D01*
X79165660Y-93104000D02*
X79804340Y-93104000D01*
X78900000Y-92838340D02*
X79165660Y-93104000D01*
X78900000Y-91037500D02*
X78900000Y-92838340D01*
%TO.N,Net-(C15-Pad2)*%
X79420000Y-95470000D02*
X80650000Y-95470000D01*
X79050000Y-95100000D02*
X79420000Y-95470000D01*
%TO.N,GND*%
X80600000Y-94555000D02*
X81525000Y-94555000D01*
X81525000Y-94555000D02*
X81650000Y-94680000D01*
X81650000Y-95430000D02*
X80650000Y-96430000D01*
X81650000Y-94680000D02*
X81650000Y-95430000D01*
%TO.N,SWCLK*%
X76160000Y-101857550D02*
X76160000Y-107690000D01*
X82261000Y-93193900D02*
X82261000Y-95756550D01*
X80141100Y-92299000D02*
X80417100Y-92575000D01*
X81642100Y-92575000D02*
X82261000Y-93193900D01*
X79791100Y-92299000D02*
X80141100Y-92299000D01*
X79700000Y-92207900D02*
X79791100Y-92299000D01*
X79700000Y-91037500D02*
X79700000Y-92207900D01*
X80417100Y-92575000D02*
X81642100Y-92575000D01*
X82261000Y-95756550D02*
X76160000Y-101857550D01*
%TO.N,Net-(J1-CC1)*%
X79950000Y-65610000D02*
X79950000Y-64645000D01*
X80740000Y-66400000D02*
X79950000Y-65610000D01*
%TO.N,Net-(J1-CC2)*%
X77355001Y-66390000D02*
X76950000Y-65984999D01*
X76950000Y-65984999D02*
X76950000Y-64645000D01*
X77675000Y-66390000D02*
X77355001Y-66390000D01*
%TO.N,QSPI_SS*%
X73840000Y-78350000D02*
X73640000Y-78550000D01*
X73840000Y-77275000D02*
X73840000Y-78350000D01*
%TO.N,Net-(R6-Pad1)*%
X77215000Y-75835000D02*
X78325000Y-74725000D01*
X76300000Y-75835000D02*
X77215000Y-75835000D01*
X74860000Y-77275000D02*
X76300000Y-75835000D01*
%TO.N,GND*%
X79875000Y-78745000D02*
X79425000Y-79195000D01*
X80350000Y-78745000D02*
X79875000Y-78745000D01*
X77700000Y-88600000D02*
X78700000Y-87600000D01*
%TO.N,GPIO28_ADC2*%
X81200000Y-85673049D02*
X81326951Y-85800000D01*
X81200000Y-85425000D02*
X81200000Y-85673049D01*
X81175000Y-85400000D02*
X81200000Y-85425000D01*
X81326951Y-85800000D02*
X82137500Y-85800000D01*
%TO.N,GPIO29_ADC3*%
X82137500Y-85400000D02*
X83375000Y-85400000D01*
X83375000Y-85400000D02*
X83575000Y-85600000D01*
%TO.N,GPIO27_ADC1*%
X87590000Y-69630000D02*
X85150000Y-72070000D01*
X85150000Y-85825000D02*
X85150000Y-72070000D01*
X84775000Y-86200000D02*
X85150000Y-85825000D01*
X82137500Y-86200000D02*
X84775000Y-86200000D01*
%TO.N,GPIO26_ADC0*%
X85550000Y-74210000D02*
X87590000Y-72170000D01*
X85550000Y-86000000D02*
X85550000Y-74210000D01*
X84950000Y-86600000D02*
X85550000Y-86000000D01*
X82137500Y-86600000D02*
X84950000Y-86600000D01*
%TO.N,GPIO25*%
X85966450Y-86166450D02*
X85966450Y-81413550D01*
X85966450Y-81413550D02*
X87590000Y-79790000D01*
X85132900Y-87000000D02*
X85966450Y-86166450D01*
X82137500Y-87000000D02*
X85132900Y-87000000D01*
%TO.N,GPIO24*%
X86375000Y-86325000D02*
X86375000Y-83545000D01*
X85300000Y-87400000D02*
X86375000Y-86325000D01*
X86375000Y-83545000D02*
X87590000Y-82330000D01*
X82137500Y-87400000D02*
X85300000Y-87400000D01*
%TO.N,GPIO23*%
X87590000Y-85760000D02*
X87590000Y-84870000D01*
X85550000Y-87800000D02*
X87590000Y-85760000D01*
X82137500Y-87800000D02*
X85550000Y-87800000D01*
%TO.N,GPIO22*%
X82137500Y-88200000D02*
X86800000Y-88200000D01*
X86800000Y-88200000D02*
X87590000Y-87410000D01*
%TO.N,+3V3*%
X83545000Y-88600000D02*
X83820000Y-88875000D01*
X82137500Y-88600000D02*
X83545000Y-88600000D01*
%TO.N,GPIO21*%
X86515000Y-92490000D02*
X87590000Y-92490000D01*
X83025000Y-89000000D02*
X86515000Y-92490000D01*
X82137500Y-89000000D02*
X83025000Y-89000000D01*
%TO.N,GPIO20*%
X85617100Y-95030000D02*
X87590000Y-95030000D01*
X84351000Y-93763900D02*
X85617100Y-95030000D01*
X84351000Y-90901000D02*
X84351000Y-93763900D01*
X82850000Y-89400000D02*
X84351000Y-90901000D01*
X82137500Y-89400000D02*
X82850000Y-89400000D01*
%TO.N,GPIO18*%
X83550000Y-91612500D02*
X82137500Y-90200000D01*
X86434000Y-98959000D02*
X83550000Y-96075000D01*
X86439000Y-98959000D02*
X86434000Y-98959000D01*
X83550000Y-96075000D02*
X83550000Y-91612500D01*
X87590000Y-100110000D02*
X86439000Y-98959000D01*
%TO.N,GPIO17*%
X83075000Y-100675000D02*
X87590000Y-105190000D01*
X83075000Y-92812500D02*
X83075000Y-100675000D01*
X81300000Y-91037500D02*
X83075000Y-92812500D01*
%TO.N,SWD*%
X80625000Y-92175000D02*
X80101000Y-91651000D01*
X81809200Y-92175000D02*
X80625000Y-92175000D01*
X82662000Y-106268000D02*
X82662000Y-93027800D01*
X80101000Y-91500000D02*
X80100000Y-91499000D01*
X80100000Y-91499000D02*
X80100000Y-91037500D01*
X81240000Y-107690000D02*
X82662000Y-106268000D01*
X82662000Y-93027800D02*
X81809200Y-92175000D01*
X80101000Y-91651000D02*
X80101000Y-91500000D01*
%TO.N,+1V1*%
X79975000Y-92700000D02*
X80250000Y-92975000D01*
X81650000Y-93150000D02*
X81650000Y-93720000D01*
X79625000Y-92700000D02*
X79975000Y-92700000D01*
X79300000Y-92375000D02*
X79625000Y-92700000D01*
X80250000Y-92975000D02*
X81475000Y-92975000D01*
X81475000Y-92975000D02*
X81650000Y-93150000D01*
X79300000Y-91037500D02*
X79300000Y-92375000D01*
%TO.N,GPIO0*%
X74705977Y-85400000D02*
X74325000Y-85019023D01*
X75262500Y-85400000D02*
X74705977Y-85400000D01*
%TO.N,GPIO1*%
X72751000Y-84293550D02*
X72751000Y-83350000D01*
X74257450Y-85800000D02*
X72751000Y-84293550D01*
X75262500Y-85800000D02*
X74257450Y-85800000D01*
%TO.N,GPIO2*%
X73796265Y-86200000D02*
X72673000Y-85076735D01*
X74698530Y-86200000D02*
X73796265Y-86200000D01*
X74698530Y-86200000D02*
X75262500Y-86200000D01*
%TO.N,GPIO3*%
X73323000Y-86600000D02*
X72673000Y-85950000D01*
X74250000Y-86600000D02*
X73323000Y-86600000D01*
%TO.N,GPIO4*%
X72873000Y-87000000D02*
X72673000Y-86800000D01*
X75262500Y-87000000D02*
X72873000Y-87000000D01*
%TO.N,GPIO7*%
X70961000Y-87686000D02*
X70961000Y-83481000D01*
X70961000Y-83481000D02*
X69810000Y-82330000D01*
X71475000Y-88200000D02*
X70961000Y-87686000D01*
X75262500Y-88200000D02*
X71475000Y-88200000D01*
%TO.N,GPIO12*%
X76100000Y-91280000D02*
X69810000Y-97570000D01*
X76100000Y-91037500D02*
X76100000Y-91280000D01*
%TO.N,GPIO13*%
X76500000Y-92007900D02*
X76500000Y-91037500D01*
X70961000Y-98959000D02*
X70961000Y-97546900D01*
X69810000Y-100110000D02*
X70961000Y-98959000D01*
X70961000Y-97546900D02*
X76500000Y-92007900D01*
%TO.N,GPIO14*%
X76900000Y-92175000D02*
X76900000Y-91037500D01*
X72724000Y-96351000D02*
X76900000Y-92175000D01*
X69810000Y-105190000D02*
X72724000Y-102276000D01*
X72724000Y-102276000D02*
X72724000Y-96351000D01*
%TO.N,GPIO15*%
X71070000Y-107730000D02*
X69810000Y-107730000D01*
X73125000Y-96557450D02*
X73125000Y-105675000D01*
X77300000Y-91037500D02*
X77300000Y-92382450D01*
X77300000Y-92382450D02*
X73125000Y-96557450D01*
X73125000Y-105675000D02*
X71070000Y-107730000D01*
%TO.N,XIN*%
X78100000Y-91037500D02*
X78100000Y-93101000D01*
X78100000Y-93101000D02*
X77851000Y-93350000D01*
%TO.N,XOUT*%
X78500000Y-93690000D02*
X78465000Y-93725000D01*
X78500000Y-91037500D02*
X78500000Y-93690000D01*
%TO.N,XIN*%
X77851000Y-95799000D02*
X77851000Y-93350000D01*
X76850000Y-96800000D02*
X77851000Y-95799000D01*
%TO.N,+3V3*%
X79425000Y-80155000D02*
X79900000Y-80155000D01*
X79900000Y-80155000D02*
X80350000Y-79705000D01*
X79178223Y-80401777D02*
X79425000Y-80155000D01*
X79178223Y-80803404D02*
X79178223Y-80401777D01*
%TO.N,+1V1*%
X78400000Y-81150000D02*
X78500000Y-81250000D01*
%TO.N,QSPI_SS*%
X73640000Y-78550000D02*
X73640000Y-79465000D01*
X73640000Y-79465000D02*
X73725000Y-79550000D01*
%TO.N,+3V3*%
X78000000Y-70260000D02*
X77135000Y-70260000D01*
X78900000Y-84007289D02*
X79100000Y-83807289D01*
X78900000Y-84162500D02*
X78900000Y-84007289D01*
X79300000Y-84162500D02*
X79300000Y-84007289D01*
X79300000Y-84007289D02*
X79100000Y-83807289D01*
X80900000Y-84162500D02*
X80900000Y-83800000D01*
X81300000Y-84162500D02*
X82362500Y-84162500D01*
X82995000Y-85000000D02*
X83295000Y-84700000D01*
X82137500Y-85000000D02*
X82995000Y-85000000D01*
%TO.N,USB_D+*%
X77999000Y-65671000D02*
X78901000Y-65671000D01*
X78950000Y-65622000D02*
X78950000Y-64645000D01*
X78901000Y-65671000D02*
X78950000Y-65622000D01*
X77950000Y-65622000D02*
X77999000Y-65671000D01*
X77950000Y-64645000D02*
X77950000Y-65622000D01*
%TO.N,USB_D-*%
X78450000Y-63668000D02*
X78499000Y-63619000D01*
X79401000Y-63619000D02*
X79450000Y-63668000D01*
X78450000Y-64645000D02*
X78450000Y-63668000D01*
X78499000Y-63619000D02*
X79401000Y-63619000D01*
X79450000Y-63668000D02*
X79450000Y-64645000D01*
%TO.N,VBUS*%
X86285000Y-60775000D02*
X87590000Y-59470000D01*
X81397000Y-60775000D02*
X86285000Y-60775000D01*
X79648000Y-62524000D02*
X80375000Y-61797000D01*
%TO.N,+3V3*%
X76950000Y-71425000D02*
X76950000Y-72100000D01*
X77135000Y-71240000D02*
X76950000Y-71425000D01*
%TO.N,VBUS*%
X76150000Y-68350000D02*
X76185000Y-68385000D01*
X76150000Y-66650000D02*
X76150000Y-68350000D01*
X76250000Y-66550000D02*
X76150000Y-66650000D01*
X76250000Y-64645000D02*
X76250000Y-66550000D01*
%TO.N,+3V3*%
X77135000Y-70260000D02*
X77135000Y-71240000D01*
%TO.N,VBUS*%
X76355000Y-67795000D02*
X76350000Y-67800000D01*
X76350000Y-64745000D02*
X76250000Y-64645000D01*
%TO.N,QSPI_SD0*%
X77300000Y-83150000D02*
X76575000Y-82425000D01*
X77300000Y-84162500D02*
X77300000Y-83150000D01*
X76575000Y-82425000D02*
X76575000Y-81050000D01*
%TO.N,+3V3*%
X76755000Y-79370000D02*
X76575000Y-79550000D01*
X75262500Y-84907500D02*
X74430000Y-84075000D01*
X75262500Y-85000000D02*
X75262500Y-84907500D01*
%TO.N,Net-(C15-Pad2)*%
X79485000Y-94665000D02*
X79050000Y-95100000D01*
X79485000Y-93725000D02*
X79485000Y-94665000D01*
%TO.N,GND*%
X83020000Y-63480000D02*
X83020000Y-63730000D01*
X74380000Y-63730000D02*
X74380000Y-63673992D01*
X74380000Y-63730000D02*
X74535000Y-63730000D01*
X80280000Y-96800000D02*
X80650000Y-96430000D01*
X79050000Y-96800000D02*
X80280000Y-96800000D01*
%TO.N,XIN*%
X76850000Y-96800000D02*
X75620000Y-96800000D01*
X75620000Y-96800000D02*
X75200000Y-96380000D01*
%TO.N,GPIO3*%
X75262500Y-86600000D02*
X74250000Y-86600000D01*
%TO.N,GPIO5*%
X72073000Y-87148000D02*
X72325000Y-87400000D01*
X72073000Y-76973000D02*
X72073000Y-87148000D01*
X69810000Y-74710000D02*
X72073000Y-76973000D01*
X72325000Y-87400000D02*
X75262500Y-87400000D01*
%TO.N,GPIO6*%
X71900000Y-87800000D02*
X75262500Y-87800000D01*
X71625000Y-87525000D02*
X71900000Y-87800000D01*
X71625000Y-81605000D02*
X71625000Y-87525000D01*
X69810000Y-79790000D02*
X71625000Y-81605000D01*
%TO.N,+1V1*%
X78500000Y-81250000D02*
X78500000Y-84162500D01*
%TO.N,+3V3*%
X78900000Y-89850000D02*
X79250000Y-89500000D01*
X78900000Y-90175000D02*
X78900000Y-89850000D01*
%TO.N,GPIO29_ADC3*%
X83575000Y-79611765D02*
X83575000Y-68375000D01*
X83575000Y-68375000D02*
X87400000Y-64550000D01*
X87400000Y-64550000D02*
X87590000Y-64550000D01*
%TO.N,USB_D-*%
X80151150Y-76214316D02*
G75*
G03*
X80301316Y-76064146I-50J150216D01*
G01*
X80301320Y-75764486D02*
G75*
G03*
X80151150Y-75614280I-150220J-14D01*
G01*
X80151150Y-75614316D02*
G75*
G02*
X80000984Y-75464146I50J150216D01*
G01*
X80000980Y-76364486D02*
G75*
G02*
X80151150Y-76214280I150220J-14D01*
G01*
X80000980Y-68289669D02*
X79425000Y-67713689D01*
X80425000Y-81203918D02*
X81410980Y-80217938D01*
X79450000Y-65732501D02*
X79450000Y-64645000D01*
X80425000Y-81802500D02*
X80425000Y-81203918D01*
X80000980Y-76822062D02*
X80000980Y-76364486D01*
X80000980Y-74525000D02*
X80000980Y-68289669D01*
X81410980Y-80217938D02*
X81410980Y-78232062D01*
X79425000Y-65757501D02*
X79450000Y-65732501D01*
X80000980Y-75464146D02*
X80000980Y-75164486D01*
X80000980Y-75164486D02*
X80000980Y-74525000D01*
X81410980Y-78232062D02*
X80000980Y-76822062D01*
X79425000Y-67713689D02*
X79425000Y-65757501D01*
X80301320Y-76064146D02*
X80301320Y-75764486D01*
%TD*%
%TA.AperFunction,Conductor*%
%TO.N,GND*%
G36*
X74599616Y-95751737D02*
G01*
X74655550Y-95793609D01*
X74656053Y-95794286D01*
X74679419Y-95825946D01*
X74703390Y-95891575D01*
X74688074Y-95959745D01*
X74679419Y-95973213D01*
X74636147Y-96031844D01*
X74592291Y-96157173D01*
X74592289Y-96157185D01*
X74589500Y-96186929D01*
X74589500Y-96573070D01*
X74592289Y-96602814D01*
X74592291Y-96602826D01*
X74623652Y-96692447D01*
X74636148Y-96728157D01*
X74715001Y-96834999D01*
X74821843Y-96913852D01*
X74850844Y-96924000D01*
X74947173Y-96957708D01*
X74947177Y-96957708D01*
X74947181Y-96957710D01*
X74962057Y-96959105D01*
X74976930Y-96960500D01*
X74976934Y-96960500D01*
X75162746Y-96960500D01*
X75192186Y-96969144D01*
X75222173Y-96975668D01*
X75227188Y-96979422D01*
X75229785Y-96980185D01*
X75250427Y-96996819D01*
X75295179Y-97041571D01*
X75295189Y-97041582D01*
X75374088Y-97120481D01*
X75387737Y-97128361D01*
X75418982Y-97146400D01*
X75465413Y-97173207D01*
X75567273Y-97200501D01*
X75567275Y-97200501D01*
X75680323Y-97200501D01*
X75680339Y-97200500D01*
X75743761Y-97200500D01*
X75810800Y-97220185D01*
X75856555Y-97272989D01*
X75859115Y-97279010D01*
X75915637Y-97422339D01*
X75915638Y-97422341D01*
X76007077Y-97542922D01*
X76127656Y-97634360D01*
X76127657Y-97634360D01*
X76127658Y-97634361D01*
X76268436Y-97689877D01*
X76356898Y-97700500D01*
X76356903Y-97700500D01*
X77343097Y-97700500D01*
X77343102Y-97700500D01*
X77431564Y-97689877D01*
X77572342Y-97634361D01*
X77692922Y-97542922D01*
X77784361Y-97422342D01*
X77834916Y-97294144D01*
X77877818Y-97239004D01*
X77943726Y-97215810D01*
X78011711Y-97231930D01*
X78060188Y-97282246D01*
X78065622Y-97294147D01*
X78116077Y-97422091D01*
X78116078Y-97422093D01*
X78207435Y-97542564D01*
X78327904Y-97633920D01*
X78468556Y-97689386D01*
X78556946Y-97700000D01*
X78800000Y-97700000D01*
X78800000Y-96924000D01*
X78819685Y-96856961D01*
X78872489Y-96811206D01*
X78924000Y-96800000D01*
X79176000Y-96800000D01*
X79243039Y-96819685D01*
X79288794Y-96872489D01*
X79300000Y-96924000D01*
X79300000Y-97700000D01*
X79451794Y-97700000D01*
X79518833Y-97719685D01*
X79564588Y-97772489D01*
X79574532Y-97841647D01*
X79545507Y-97905203D01*
X79539475Y-97911681D01*
X75839522Y-101611634D01*
X75839518Y-101611640D01*
X75786792Y-101702962D01*
X75786793Y-101702963D01*
X75759500Y-101804823D01*
X75759500Y-106415500D01*
X75739815Y-106482539D01*
X75687011Y-106528294D01*
X75635500Y-106539500D01*
X75265143Y-106539500D01*
X75265117Y-106539502D01*
X75240012Y-106542413D01*
X75240008Y-106542415D01*
X75137235Y-106587793D01*
X75057794Y-106667234D01*
X75012415Y-106770006D01*
X75012415Y-106770008D01*
X75009502Y-106795122D01*
X75009500Y-106795135D01*
X75009500Y-107682345D01*
X75009501Y-108475500D01*
X74989816Y-108542539D01*
X74937013Y-108588294D01*
X74885501Y-108599500D01*
X70843733Y-108599500D01*
X70776694Y-108579815D01*
X70730939Y-108527011D01*
X70720995Y-108457853D01*
X70743414Y-108402615D01*
X70759805Y-108380053D01*
X70793996Y-108332994D01*
X70862675Y-108198205D01*
X70910650Y-108147409D01*
X70973160Y-108130500D01*
X71122725Y-108130500D01*
X71122727Y-108130500D01*
X71224588Y-108103207D01*
X71315913Y-108050480D01*
X73445480Y-105920913D01*
X73498207Y-105829588D01*
X73525500Y-105727727D01*
X73525500Y-105622273D01*
X73525500Y-96774703D01*
X73545185Y-96707664D01*
X73561814Y-96687027D01*
X74468605Y-95780235D01*
X74529925Y-95746753D01*
X74599616Y-95751737D01*
G37*
%TD.AperFunction*%
%TA.AperFunction,Conductor*%
G36*
X82180834Y-96505623D02*
G01*
X82236767Y-96547495D01*
X82261184Y-96612959D01*
X82261500Y-96621805D01*
X82261500Y-106050745D01*
X82241815Y-106117784D01*
X82225181Y-106138426D01*
X81779281Y-106584325D01*
X81717958Y-106617810D01*
X81653283Y-106614575D01*
X81509411Y-106567829D01*
X81509412Y-106567829D01*
X81330551Y-106539500D01*
X81330546Y-106539500D01*
X81149454Y-106539500D01*
X81149449Y-106539500D01*
X80970589Y-106567829D01*
X80798363Y-106623787D01*
X80798360Y-106623788D01*
X80637002Y-106706006D01*
X80490505Y-106812441D01*
X80490500Y-106812445D01*
X80362445Y-106940500D01*
X80362441Y-106940505D01*
X80256006Y-107087002D01*
X80173788Y-107248360D01*
X80173787Y-107248363D01*
X80117829Y-107420589D01*
X80092219Y-107582280D01*
X80062289Y-107645414D01*
X80002978Y-107682345D01*
X79933115Y-107681347D01*
X79874883Y-107642737D01*
X79847273Y-107582279D01*
X79821682Y-107420706D01*
X79765748Y-107248555D01*
X79765747Y-107248552D01*
X79683571Y-107087275D01*
X79683566Y-107087267D01*
X79672085Y-107071466D01*
X79182962Y-107560589D01*
X79165925Y-107497007D01*
X79100099Y-107382993D01*
X79007007Y-107289901D01*
X78892993Y-107224075D01*
X78829409Y-107207037D01*
X79318533Y-106717913D01*
X79302730Y-106706431D01*
X79141447Y-106624252D01*
X79141444Y-106624251D01*
X78969293Y-106568317D01*
X78790506Y-106540000D01*
X78609494Y-106540000D01*
X78430706Y-106568317D01*
X78258555Y-106624251D01*
X78258547Y-106624254D01*
X78097269Y-106706432D01*
X78081466Y-106717912D01*
X78081466Y-106717913D01*
X78570591Y-107207037D01*
X78507007Y-107224075D01*
X78392993Y-107289901D01*
X78299901Y-107382993D01*
X78234075Y-107497007D01*
X78217037Y-107560590D01*
X77727913Y-107071466D01*
X77727912Y-107071466D01*
X77716432Y-107087269D01*
X77634254Y-107248547D01*
X77634251Y-107248555D01*
X77578317Y-107420706D01*
X77556972Y-107555471D01*
X77527043Y-107618606D01*
X77467731Y-107655537D01*
X77397868Y-107654539D01*
X77339636Y-107615929D01*
X77311522Y-107551965D01*
X77310499Y-107536073D01*
X77310499Y-106795143D01*
X77310499Y-106795136D01*
X77307585Y-106770009D01*
X77262206Y-106667235D01*
X77182765Y-106587794D01*
X77182763Y-106587793D01*
X77079992Y-106542415D01*
X77054868Y-106539500D01*
X77054865Y-106539500D01*
X76684500Y-106539500D01*
X76617461Y-106519815D01*
X76571706Y-106467011D01*
X76560500Y-106415500D01*
X76560500Y-102074805D01*
X76580185Y-102007766D01*
X76596819Y-101987124D01*
X82049819Y-96534124D01*
X82111142Y-96500639D01*
X82180834Y-96505623D01*
G37*
%TD.AperFunction*%
%TA.AperFunction,Conductor*%
G36*
X88562084Y-103268532D02*
G01*
X88565772Y-103268242D01*
X88634149Y-103282606D01*
X88683905Y-103331658D01*
X88699500Y-103391860D01*
X88699500Y-104378113D01*
X88679815Y-104445152D01*
X88627011Y-104490907D01*
X88557853Y-104500851D01*
X88494297Y-104471826D01*
X88475182Y-104450998D01*
X88467558Y-104440505D01*
X88467554Y-104440500D01*
X88339499Y-104312445D01*
X88339494Y-104312441D01*
X88192997Y-104206006D01*
X88192996Y-104206005D01*
X88192994Y-104206004D01*
X88141300Y-104179664D01*
X88031639Y-104123788D01*
X88031636Y-104123787D01*
X87859410Y-104067828D01*
X87697720Y-104042219D01*
X87634585Y-104012289D01*
X87597654Y-103952978D01*
X87598652Y-103883115D01*
X87637262Y-103824883D01*
X87697721Y-103797273D01*
X87859292Y-103771683D01*
X88031444Y-103715748D01*
X88031452Y-103715745D01*
X88192730Y-103633568D01*
X88208532Y-103622085D01*
X88208533Y-103622085D01*
X87719410Y-103132962D01*
X87782993Y-103115925D01*
X87897007Y-103050099D01*
X87990099Y-102957007D01*
X88055925Y-102842993D01*
X88072962Y-102779409D01*
X88562084Y-103268532D01*
G37*
%TD.AperFunction*%
%TA.AperFunction,Conductor*%
G36*
X69344075Y-102842993D02*
G01*
X69409901Y-102957007D01*
X69502993Y-103050099D01*
X69617007Y-103115925D01*
X69680590Y-103132962D01*
X69191466Y-103622085D01*
X69191466Y-103622086D01*
X69207267Y-103633566D01*
X69207275Y-103633571D01*
X69368552Y-103715747D01*
X69368555Y-103715748D01*
X69540706Y-103771682D01*
X69702279Y-103797273D01*
X69765413Y-103827202D01*
X69802345Y-103886513D01*
X69801347Y-103956376D01*
X69762738Y-104014609D01*
X69702280Y-104042219D01*
X69540589Y-104067829D01*
X69368363Y-104123787D01*
X69368360Y-104123788D01*
X69207002Y-104206006D01*
X69060505Y-104312441D01*
X69060500Y-104312445D01*
X68932445Y-104440500D01*
X68932441Y-104440505D01*
X68924818Y-104450998D01*
X68869488Y-104493664D01*
X68799875Y-104499643D01*
X68738080Y-104467037D01*
X68703723Y-104406199D01*
X68700500Y-104378113D01*
X68700500Y-103391861D01*
X68720185Y-103324822D01*
X68772989Y-103279067D01*
X68834229Y-103268243D01*
X68837913Y-103268533D01*
X69327037Y-102779409D01*
X69344075Y-102842993D01*
G37*
%TD.AperFunction*%
%TA.AperFunction,Conductor*%
G36*
X72242834Y-96933973D02*
G01*
X72298767Y-96975845D01*
X72323184Y-97041309D01*
X72323500Y-97050155D01*
X72323500Y-102058744D01*
X72303815Y-102125783D01*
X72287181Y-102146425D01*
X70349280Y-104084325D01*
X70287957Y-104117810D01*
X70223281Y-104114575D01*
X70079410Y-104067828D01*
X69917720Y-104042219D01*
X69854585Y-104012289D01*
X69817654Y-103952978D01*
X69818652Y-103883115D01*
X69857262Y-103824883D01*
X69917721Y-103797273D01*
X70079292Y-103771683D01*
X70251444Y-103715748D01*
X70251452Y-103715745D01*
X70412730Y-103633568D01*
X70428532Y-103622085D01*
X70428533Y-103622085D01*
X69939410Y-103132962D01*
X70002993Y-103115925D01*
X70117007Y-103050099D01*
X70210099Y-102957007D01*
X70275925Y-102842993D01*
X70292962Y-102779410D01*
X70782085Y-103268533D01*
X70782085Y-103268532D01*
X70793568Y-103252730D01*
X70875745Y-103091452D01*
X70875748Y-103091444D01*
X70931682Y-102919293D01*
X70960000Y-102740506D01*
X70960000Y-102559493D01*
X70931682Y-102380706D01*
X70875748Y-102208555D01*
X70875747Y-102208552D01*
X70793571Y-102047275D01*
X70793566Y-102047267D01*
X70782085Y-102031466D01*
X70292962Y-102520589D01*
X70275925Y-102457007D01*
X70210099Y-102342993D01*
X70117007Y-102249901D01*
X70002993Y-102184075D01*
X69939409Y-102167037D01*
X70428533Y-101677913D01*
X70412730Y-101666431D01*
X70251447Y-101584252D01*
X70251444Y-101584251D01*
X70079293Y-101528317D01*
X69917720Y-101502726D01*
X69854585Y-101472797D01*
X69817654Y-101413485D01*
X69818652Y-101343623D01*
X69857262Y-101285390D01*
X69917720Y-101257780D01*
X69932270Y-101255475D01*
X70079409Y-101232171D01*
X70251639Y-101176211D01*
X70412994Y-101093996D01*
X70559501Y-100987553D01*
X70687553Y-100859501D01*
X70793996Y-100712994D01*
X70876211Y-100551639D01*
X70932171Y-100379409D01*
X70946765Y-100287259D01*
X70960500Y-100200551D01*
X70960500Y-100019448D01*
X70944019Y-99915397D01*
X70932171Y-99840591D01*
X70885424Y-99696716D01*
X70883429Y-99626875D01*
X70915672Y-99570719D01*
X71281480Y-99204913D01*
X71334207Y-99113588D01*
X71361500Y-99011727D01*
X71361500Y-98906273D01*
X71361500Y-97764155D01*
X71381185Y-97697116D01*
X71397819Y-97676474D01*
X72111819Y-96962474D01*
X72173142Y-96928989D01*
X72242834Y-96933973D01*
G37*
%TD.AperFunction*%
%TA.AperFunction,Conductor*%
G36*
X83680703Y-96772542D02*
G01*
X83687181Y-96778574D01*
X86188087Y-99279480D01*
X86191051Y-99281191D01*
X86195991Y-99284730D01*
X86198441Y-99287864D01*
X86211461Y-99297854D01*
X86484325Y-99570718D01*
X86517810Y-99632041D01*
X86514575Y-99696716D01*
X86467829Y-99840587D01*
X86439500Y-100019448D01*
X86439500Y-100200551D01*
X86467829Y-100379410D01*
X86523787Y-100551636D01*
X86523788Y-100551639D01*
X86606006Y-100712997D01*
X86712441Y-100859494D01*
X86712445Y-100859499D01*
X86840500Y-100987554D01*
X86840505Y-100987558D01*
X86968287Y-101080396D01*
X86987006Y-101093996D01*
X87092484Y-101147740D01*
X87148360Y-101176211D01*
X87148363Y-101176212D01*
X87234476Y-101204191D01*
X87320591Y-101232171D01*
X87440038Y-101251089D01*
X87482279Y-101257780D01*
X87545414Y-101287709D01*
X87582345Y-101347021D01*
X87581347Y-101416883D01*
X87542737Y-101475116D01*
X87482279Y-101502726D01*
X87320706Y-101528317D01*
X87148555Y-101584251D01*
X87148547Y-101584254D01*
X86987269Y-101666432D01*
X86971466Y-101677912D01*
X86971466Y-101677913D01*
X87460591Y-102167037D01*
X87397007Y-102184075D01*
X87282993Y-102249901D01*
X87189901Y-102342993D01*
X87124075Y-102457007D01*
X87107037Y-102520590D01*
X86617913Y-102031466D01*
X86617912Y-102031466D01*
X86606432Y-102047269D01*
X86524254Y-102208547D01*
X86524251Y-102208555D01*
X86468317Y-102380706D01*
X86440000Y-102559493D01*
X86440000Y-102740506D01*
X86468317Y-102919293D01*
X86524251Y-103091444D01*
X86524252Y-103091447D01*
X86606431Y-103252730D01*
X86617913Y-103268532D01*
X86617913Y-103268533D01*
X87107037Y-102779409D01*
X87124075Y-102842993D01*
X87189901Y-102957007D01*
X87282993Y-103050099D01*
X87397007Y-103115925D01*
X87460590Y-103132962D01*
X86971466Y-103622085D01*
X86971466Y-103622086D01*
X86987267Y-103633566D01*
X86987275Y-103633571D01*
X87148552Y-103715747D01*
X87148555Y-103715748D01*
X87320706Y-103771682D01*
X87482279Y-103797273D01*
X87545413Y-103827202D01*
X87582345Y-103886513D01*
X87581347Y-103956376D01*
X87542738Y-104014609D01*
X87482280Y-104042219D01*
X87320586Y-104067829D01*
X87176716Y-104114575D01*
X87106875Y-104116570D01*
X87050718Y-104084325D01*
X83511819Y-100545426D01*
X83478334Y-100484103D01*
X83475500Y-100457745D01*
X83475500Y-96866255D01*
X83495185Y-96799216D01*
X83547989Y-96753461D01*
X83617147Y-96743517D01*
X83680703Y-96772542D01*
G37*
%TD.AperFunction*%
%TA.AperFunction,Conductor*%
G36*
X68905703Y-100828173D02*
G01*
X68924821Y-100849004D01*
X68932446Y-100859500D01*
X69060500Y-100987554D01*
X69060505Y-100987558D01*
X69188287Y-101080396D01*
X69207006Y-101093996D01*
X69312484Y-101147740D01*
X69368360Y-101176211D01*
X69368363Y-101176212D01*
X69454476Y-101204191D01*
X69540591Y-101232171D01*
X69660038Y-101251089D01*
X69702279Y-101257780D01*
X69765414Y-101287709D01*
X69802345Y-101347021D01*
X69801347Y-101416883D01*
X69762737Y-101475116D01*
X69702279Y-101502726D01*
X69540706Y-101528317D01*
X69368555Y-101584251D01*
X69368547Y-101584254D01*
X69207269Y-101666432D01*
X69191466Y-101677912D01*
X69191466Y-101677913D01*
X69680591Y-102167037D01*
X69617007Y-102184075D01*
X69502993Y-102249901D01*
X69409901Y-102342993D01*
X69344075Y-102457007D01*
X69327037Y-102520590D01*
X68837913Y-102031466D01*
X68834229Y-102031756D01*
X68765852Y-102017392D01*
X68716095Y-101968340D01*
X68700500Y-101908138D01*
X68700500Y-100921886D01*
X68720185Y-100854847D01*
X68772989Y-100809092D01*
X68842147Y-100799148D01*
X68905703Y-100828173D01*
G37*
%TD.AperFunction*%
%TA.AperFunction,Conductor*%
G36*
X88661917Y-100832959D02*
G01*
X88696277Y-100893796D01*
X88699500Y-100921886D01*
X88699500Y-101908138D01*
X88679815Y-101975177D01*
X88627011Y-102020932D01*
X88565773Y-102031756D01*
X88562086Y-102031465D01*
X88072962Y-102520589D01*
X88055925Y-102457007D01*
X87990099Y-102342993D01*
X87897007Y-102249901D01*
X87782993Y-102184075D01*
X87719409Y-102167037D01*
X88208533Y-101677913D01*
X88192730Y-101666431D01*
X88031447Y-101584252D01*
X88031444Y-101584251D01*
X87859293Y-101528317D01*
X87697720Y-101502726D01*
X87634585Y-101472797D01*
X87597654Y-101413485D01*
X87598652Y-101343623D01*
X87637262Y-101285390D01*
X87697720Y-101257780D01*
X87712270Y-101255475D01*
X87859409Y-101232171D01*
X88031639Y-101176211D01*
X88192994Y-101093996D01*
X88339501Y-100987553D01*
X88467553Y-100859501D01*
X88475180Y-100849003D01*
X88530508Y-100806336D01*
X88600121Y-100800355D01*
X88661917Y-100832959D01*
G37*
%TD.AperFunction*%
%TA.AperFunction,Conductor*%
G36*
X81283039Y-94324685D02*
G01*
X81328794Y-94377489D01*
X81340000Y-94429000D01*
X81340000Y-94430000D01*
X81526000Y-94430000D01*
X81593039Y-94449685D01*
X81638794Y-94502489D01*
X81650000Y-94554000D01*
X81650000Y-94680000D01*
X81736500Y-94680000D01*
X81803539Y-94699685D01*
X81849294Y-94752489D01*
X81860500Y-94804000D01*
X81860500Y-95539294D01*
X81840815Y-95606333D01*
X81824181Y-95626975D01*
X81381396Y-96069759D01*
X81365387Y-96078500D01*
X81352403Y-96091310D01*
X81335359Y-96094896D01*
X81320073Y-96103244D01*
X81301878Y-96101942D01*
X81284031Y-96105699D01*
X81267755Y-96099502D01*
X81250381Y-96098260D01*
X81235778Y-96087328D01*
X81218733Y-96080839D01*
X81195071Y-96056854D01*
X81194448Y-96056388D01*
X81193946Y-96055714D01*
X81170581Y-96024057D01*
X81146609Y-95958429D01*
X81161923Y-95890258D01*
X81170572Y-95876798D01*
X81213852Y-95818157D01*
X81240557Y-95741836D01*
X81257708Y-95692826D01*
X81257708Y-95692823D01*
X81257710Y-95692819D01*
X81260500Y-95663066D01*
X81260500Y-95380559D01*
X81280185Y-95313520D01*
X81332989Y-95267765D01*
X81396054Y-95257098D01*
X81400000Y-95257467D01*
X81400000Y-94930000D01*
X81034000Y-94930000D01*
X80966961Y-94910315D01*
X80921206Y-94857511D01*
X80910000Y-94806000D01*
X80910000Y-94805000D01*
X80724000Y-94805000D01*
X80656961Y-94785315D01*
X80611206Y-94732511D01*
X80600000Y-94681000D01*
X80600000Y-94429000D01*
X80619685Y-94361961D01*
X80672489Y-94316206D01*
X80724000Y-94305000D01*
X81216000Y-94305000D01*
X81283039Y-94324685D01*
G37*
%TD.AperFunction*%
%TA.AperFunction,Conductor*%
G36*
X77618834Y-92732521D02*
G01*
X77674767Y-92774393D01*
X77699184Y-92839857D01*
X77699500Y-92848703D01*
X77699500Y-92883745D01*
X77679815Y-92950784D01*
X77663181Y-92971426D01*
X77530522Y-93104084D01*
X77530520Y-93104087D01*
X77477793Y-93195412D01*
X77461669Y-93255588D01*
X77461669Y-93255589D01*
X77461668Y-93255588D01*
X77450500Y-93297269D01*
X77450500Y-94076000D01*
X77430815Y-94143039D01*
X77378011Y-94188794D01*
X77326500Y-94200000D01*
X77100000Y-94200000D01*
X77100000Y-94976000D01*
X77080315Y-95043039D01*
X77027511Y-95088794D01*
X76976000Y-95100000D01*
X76724000Y-95100000D01*
X76656961Y-95080315D01*
X76611206Y-95027511D01*
X76600000Y-94976000D01*
X76600000Y-94200000D01*
X76356939Y-94200000D01*
X76355283Y-94200099D01*
X76354852Y-94200000D01*
X76353234Y-94200000D01*
X76353234Y-94199628D01*
X76287188Y-94184451D01*
X76238363Y-94134472D01*
X76224310Y-94066030D01*
X76249490Y-94000855D01*
X76260191Y-93988649D01*
X77487819Y-92761021D01*
X77549142Y-92727537D01*
X77618834Y-92732521D01*
G37*
%TD.AperFunction*%
%TA.AperFunction,Conductor*%
G36*
X70349281Y-88515674D02*
G01*
X72379087Y-90545480D01*
X72470412Y-90598207D01*
X72572273Y-90625500D01*
X72677727Y-90625500D01*
X73008745Y-90625500D01*
X73075784Y-90645185D01*
X73121539Y-90697989D01*
X73131483Y-90767147D01*
X73102458Y-90830703D01*
X73096426Y-90837181D01*
X71880426Y-92053181D01*
X71819103Y-92086666D01*
X71792745Y-92089500D01*
X70973160Y-92089500D01*
X70906121Y-92069815D01*
X70862675Y-92021795D01*
X70837068Y-91971539D01*
X70793996Y-91887006D01*
X70780396Y-91868287D01*
X70687558Y-91740505D01*
X70687554Y-91740500D01*
X70559499Y-91612445D01*
X70559494Y-91612441D01*
X70412997Y-91506006D01*
X70412996Y-91506005D01*
X70412994Y-91506004D01*
X70341385Y-91469517D01*
X70251639Y-91423788D01*
X70251636Y-91423787D01*
X70079410Y-91367828D01*
X69917720Y-91342219D01*
X69854585Y-91312289D01*
X69817654Y-91252978D01*
X69818652Y-91183115D01*
X69857262Y-91124883D01*
X69917721Y-91097273D01*
X70079292Y-91071683D01*
X70251444Y-91015748D01*
X70251452Y-91015745D01*
X70412730Y-90933568D01*
X70428532Y-90922085D01*
X70428533Y-90922085D01*
X69939410Y-90432962D01*
X70002993Y-90415925D01*
X70117007Y-90350099D01*
X70210099Y-90257007D01*
X70275925Y-90142993D01*
X70292962Y-90079410D01*
X70782085Y-90568533D01*
X70782085Y-90568532D01*
X70793568Y-90552730D01*
X70875745Y-90391452D01*
X70875748Y-90391444D01*
X70931682Y-90219293D01*
X70960000Y-90040506D01*
X70960000Y-89859493D01*
X70931682Y-89680706D01*
X70875748Y-89508555D01*
X70875747Y-89508552D01*
X70793571Y-89347275D01*
X70793566Y-89347267D01*
X70782085Y-89331466D01*
X70292962Y-89820589D01*
X70275925Y-89757007D01*
X70210099Y-89642993D01*
X70117007Y-89549901D01*
X70002993Y-89484075D01*
X69939409Y-89467037D01*
X70428533Y-88977913D01*
X70412730Y-88966431D01*
X70251447Y-88884252D01*
X70251444Y-88884251D01*
X70079293Y-88828317D01*
X69917720Y-88802726D01*
X69854585Y-88772797D01*
X69817654Y-88713485D01*
X69818652Y-88643623D01*
X69857262Y-88585390D01*
X69917720Y-88557780D01*
X69932270Y-88555475D01*
X70079409Y-88532171D01*
X70223284Y-88485423D01*
X70293123Y-88483429D01*
X70349281Y-88515674D01*
G37*
%TD.AperFunction*%
%TA.AperFunction,Conductor*%
G36*
X87176716Y-88485423D02*
G01*
X87320591Y-88532171D01*
X87440038Y-88551089D01*
X87482279Y-88557780D01*
X87545414Y-88587709D01*
X87582345Y-88647021D01*
X87581347Y-88716883D01*
X87542737Y-88775116D01*
X87482279Y-88802726D01*
X87320706Y-88828317D01*
X87148555Y-88884251D01*
X87148547Y-88884254D01*
X86987269Y-88966432D01*
X86971466Y-88977912D01*
X86971466Y-88977913D01*
X87460591Y-89467037D01*
X87397007Y-89484075D01*
X87282993Y-89549901D01*
X87189901Y-89642993D01*
X87124075Y-89757007D01*
X87107037Y-89820590D01*
X86617913Y-89331466D01*
X86617912Y-89331466D01*
X86606432Y-89347269D01*
X86524254Y-89508547D01*
X86524251Y-89508555D01*
X86468317Y-89680706D01*
X86440000Y-89859493D01*
X86440000Y-90040506D01*
X86468317Y-90219293D01*
X86524251Y-90391444D01*
X86524252Y-90391447D01*
X86606431Y-90552730D01*
X86617913Y-90568532D01*
X86617913Y-90568533D01*
X87107037Y-90079409D01*
X87124075Y-90142993D01*
X87189901Y-90257007D01*
X87282993Y-90350099D01*
X87397007Y-90415925D01*
X87460590Y-90432962D01*
X86971466Y-90922085D01*
X86971466Y-90922086D01*
X86987267Y-90933566D01*
X86987275Y-90933571D01*
X87148552Y-91015747D01*
X87148555Y-91015748D01*
X87320706Y-91071682D01*
X87482279Y-91097273D01*
X87545413Y-91127202D01*
X87582345Y-91186513D01*
X87581347Y-91256376D01*
X87542738Y-91314609D01*
X87482280Y-91342219D01*
X87320589Y-91367829D01*
X87148363Y-91423787D01*
X87148360Y-91423788D01*
X86987002Y-91506006D01*
X86840505Y-91612441D01*
X86840500Y-91612445D01*
X86712445Y-91740500D01*
X86637643Y-91843456D01*
X86582312Y-91886121D01*
X86512699Y-91892100D01*
X86450904Y-91859494D01*
X86449644Y-91858251D01*
X84181311Y-89589918D01*
X84171814Y-89572527D01*
X84158269Y-89558062D01*
X84155412Y-89542489D01*
X84147826Y-89528595D01*
X84149239Y-89508829D01*
X84145665Y-89489339D01*
X84151680Y-89474696D01*
X84152810Y-89458903D01*
X84164686Y-89443038D01*
X84172216Y-89424710D01*
X84188458Y-89411283D01*
X84194682Y-89402970D01*
X84197978Y-89400586D01*
X84211379Y-89391223D01*
X84218157Y-89388852D01*
X84278099Y-89344612D01*
X84279407Y-89343699D01*
X84311052Y-89333064D01*
X84342415Y-89321609D01*
X84344048Y-89321975D01*
X84345637Y-89321442D01*
X84378018Y-89329607D01*
X84410586Y-89336924D01*
X84412880Y-89338398D01*
X84413386Y-89338526D01*
X84413850Y-89339022D01*
X84424056Y-89345581D01*
X84482077Y-89388403D01*
X84580000Y-89422668D01*
X84580000Y-89422667D01*
X85080000Y-89422667D01*
X85177922Y-89388403D01*
X85284641Y-89309641D01*
X85363405Y-89202919D01*
X85407212Y-89077727D01*
X85407213Y-89077725D01*
X85407469Y-89075000D01*
X85080000Y-89075000D01*
X85080000Y-89422667D01*
X84580000Y-89422667D01*
X84580000Y-88949000D01*
X84599685Y-88881961D01*
X84652489Y-88836206D01*
X84704000Y-88825000D01*
X84830000Y-88825000D01*
X84830000Y-88724500D01*
X84849685Y-88657461D01*
X84902489Y-88611706D01*
X84954000Y-88600500D01*
X86852725Y-88600500D01*
X86852727Y-88600500D01*
X86954588Y-88573207D01*
X87045913Y-88520480D01*
X87050713Y-88515679D01*
X87112029Y-88482191D01*
X87176716Y-88485423D01*
G37*
%TD.AperFunction*%
%TA.AperFunction,Conductor*%
G36*
X88562084Y-90568532D02*
G01*
X88565772Y-90568242D01*
X88634149Y-90582606D01*
X88683905Y-90631658D01*
X88699500Y-90691860D01*
X88699500Y-91678113D01*
X88679815Y-91745152D01*
X88627011Y-91790907D01*
X88557853Y-91800851D01*
X88494297Y-91771826D01*
X88475182Y-91750998D01*
X88467558Y-91740505D01*
X88467554Y-91740500D01*
X88339499Y-91612445D01*
X88339494Y-91612441D01*
X88192997Y-91506006D01*
X88192996Y-91506005D01*
X88192994Y-91506004D01*
X88121385Y-91469517D01*
X88031639Y-91423788D01*
X88031636Y-91423787D01*
X87859410Y-91367828D01*
X87697720Y-91342219D01*
X87634585Y-91312289D01*
X87597654Y-91252978D01*
X87598652Y-91183115D01*
X87637262Y-91124883D01*
X87697721Y-91097273D01*
X87859292Y-91071683D01*
X88031444Y-91015748D01*
X88031452Y-91015745D01*
X88192730Y-90933568D01*
X88208532Y-90922085D01*
X88208533Y-90922085D01*
X87719410Y-90432962D01*
X87782993Y-90415925D01*
X87897007Y-90350099D01*
X87990099Y-90257007D01*
X88055925Y-90142993D01*
X88072962Y-90079409D01*
X88562084Y-90568532D01*
G37*
%TD.AperFunction*%
%TA.AperFunction,Conductor*%
G36*
X69344075Y-90142993D02*
G01*
X69409901Y-90257007D01*
X69502993Y-90350099D01*
X69617007Y-90415925D01*
X69680590Y-90432962D01*
X69191466Y-90922085D01*
X69191466Y-90922086D01*
X69207267Y-90933566D01*
X69207275Y-90933571D01*
X69368552Y-91015747D01*
X69368555Y-91015748D01*
X69540706Y-91071682D01*
X69702279Y-91097273D01*
X69765413Y-91127202D01*
X69802345Y-91186513D01*
X69801347Y-91256376D01*
X69762738Y-91314609D01*
X69702280Y-91342219D01*
X69540589Y-91367829D01*
X69368363Y-91423787D01*
X69368360Y-91423788D01*
X69207002Y-91506006D01*
X69060505Y-91612441D01*
X69060500Y-91612445D01*
X68932445Y-91740500D01*
X68932441Y-91740505D01*
X68924818Y-91750998D01*
X68869488Y-91793664D01*
X68799875Y-91799643D01*
X68738080Y-91767037D01*
X68703723Y-91706199D01*
X68700500Y-91678113D01*
X68700500Y-90691861D01*
X68720185Y-90624822D01*
X68772989Y-90579067D01*
X68834229Y-90568243D01*
X68837913Y-90568533D01*
X69327037Y-90079409D01*
X69344075Y-90142993D01*
G37*
%TD.AperFunction*%
%TA.AperFunction,Conductor*%
G36*
X78037185Y-89909144D02*
G01*
X78067172Y-89915668D01*
X78072187Y-89919422D01*
X78074784Y-89920185D01*
X78095426Y-89936819D01*
X78246426Y-90087819D01*
X78279911Y-90149142D01*
X78274927Y-90218834D01*
X78233055Y-90274767D01*
X78167591Y-90299184D01*
X78158745Y-90299500D01*
X78016739Y-90299500D01*
X77948611Y-90309425D01*
X77939408Y-90312270D01*
X77938542Y-90309468D01*
X77884989Y-90318598D01*
X77860835Y-90311504D01*
X77860449Y-90312755D01*
X77851250Y-90309912D01*
X77783214Y-90300000D01*
X77616786Y-90300000D01*
X77548747Y-90309913D01*
X77539550Y-90312755D01*
X77538592Y-90309655D01*
X77486111Y-90318596D01*
X77460926Y-90311197D01*
X77460595Y-90312270D01*
X77451392Y-90309426D01*
X77383261Y-90299500D01*
X77383260Y-90299500D01*
X77216740Y-90299500D01*
X77216739Y-90299500D01*
X77148611Y-90309425D01*
X77139408Y-90312270D01*
X77138488Y-90309294D01*
X77085575Y-90318323D01*
X77060955Y-90311094D01*
X77060592Y-90312270D01*
X77051388Y-90309425D01*
X76983261Y-90299500D01*
X76983260Y-90299500D01*
X76925620Y-90299500D01*
X76858581Y-90279815D01*
X76812826Y-90227011D01*
X76801620Y-90175500D01*
X76801620Y-90024500D01*
X76821305Y-89957461D01*
X76874109Y-89911706D01*
X76925620Y-89900500D01*
X78007745Y-89900500D01*
X78037185Y-89909144D01*
G37*
%TD.AperFunction*%
%TA.AperFunction,Conductor*%
G36*
X72938039Y-88620185D02*
G01*
X72983794Y-88672989D01*
X72995000Y-88724500D01*
X72995000Y-88850000D01*
X73121000Y-88850000D01*
X73188039Y-88869685D01*
X73233794Y-88922489D01*
X73245000Y-88974000D01*
X73245000Y-89447667D01*
X73342922Y-89413403D01*
X73400943Y-89370581D01*
X73425002Y-89361792D01*
X73447398Y-89349366D01*
X73457273Y-89350004D01*
X73466571Y-89346609D01*
X73491564Y-89352223D01*
X73517121Y-89353877D01*
X73530197Y-89360902D01*
X73534742Y-89361923D01*
X73548212Y-89370580D01*
X73580355Y-89394303D01*
X73622606Y-89449951D01*
X73628063Y-89519608D01*
X73594996Y-89581157D01*
X73594402Y-89581754D01*
X73387976Y-89788181D01*
X73326653Y-89821666D01*
X73300295Y-89824500D01*
X72842255Y-89824500D01*
X72775216Y-89804815D01*
X72754574Y-89788181D01*
X72620086Y-89653693D01*
X72586601Y-89592370D01*
X72591585Y-89522678D01*
X72633457Y-89466745D01*
X72698921Y-89442328D01*
X72744044Y-89448347D01*
X72745000Y-89447668D01*
X72745000Y-89100000D01*
X72417532Y-89100000D01*
X72417787Y-89102727D01*
X72426028Y-89126277D01*
X72429589Y-89196055D01*
X72394860Y-89256683D01*
X72332867Y-89288910D01*
X72263291Y-89282505D01*
X72221305Y-89254912D01*
X71778574Y-88812181D01*
X71745089Y-88750858D01*
X71750073Y-88681166D01*
X71791945Y-88625233D01*
X71857409Y-88600816D01*
X71866255Y-88600500D01*
X72871000Y-88600500D01*
X72938039Y-88620185D01*
G37*
%TD.AperFunction*%
%TA.AperFunction,Conductor*%
G36*
X68905703Y-88128173D02*
G01*
X68924821Y-88149004D01*
X68932446Y-88159500D01*
X69060500Y-88287554D01*
X69060505Y-88287558D01*
X69188287Y-88380396D01*
X69207006Y-88393996D01*
X69285720Y-88434103D01*
X69368360Y-88476211D01*
X69368363Y-88476212D01*
X69454476Y-88504191D01*
X69540591Y-88532171D01*
X69660038Y-88551089D01*
X69702279Y-88557780D01*
X69765414Y-88587709D01*
X69802345Y-88647021D01*
X69801347Y-88716883D01*
X69762737Y-88775116D01*
X69702279Y-88802726D01*
X69540706Y-88828317D01*
X69368555Y-88884251D01*
X69368547Y-88884254D01*
X69207269Y-88966432D01*
X69191466Y-88977912D01*
X69191466Y-88977913D01*
X69680591Y-89467037D01*
X69617007Y-89484075D01*
X69502993Y-89549901D01*
X69409901Y-89642993D01*
X69344075Y-89757007D01*
X69327037Y-89820590D01*
X68837913Y-89331466D01*
X68834229Y-89331756D01*
X68765852Y-89317392D01*
X68716095Y-89268340D01*
X68700500Y-89208138D01*
X68700500Y-88221886D01*
X68720185Y-88154847D01*
X68772989Y-88109092D01*
X68842147Y-88099148D01*
X68905703Y-88128173D01*
G37*
%TD.AperFunction*%
%TA.AperFunction,Conductor*%
G36*
X88661917Y-88132959D02*
G01*
X88696277Y-88193796D01*
X88699500Y-88221886D01*
X88699500Y-89208138D01*
X88679815Y-89275177D01*
X88627011Y-89320932D01*
X88565773Y-89331756D01*
X88562086Y-89331465D01*
X88072962Y-89820589D01*
X88055925Y-89757007D01*
X87990099Y-89642993D01*
X87897007Y-89549901D01*
X87782993Y-89484075D01*
X87719409Y-89467037D01*
X88208533Y-88977913D01*
X88192730Y-88966431D01*
X88031447Y-88884252D01*
X88031444Y-88884251D01*
X87859293Y-88828317D01*
X87697720Y-88802726D01*
X87634585Y-88772797D01*
X87597654Y-88713485D01*
X87598652Y-88643623D01*
X87637262Y-88585390D01*
X87697720Y-88557780D01*
X87712270Y-88555475D01*
X87859409Y-88532171D01*
X88031639Y-88476211D01*
X88192994Y-88393996D01*
X88339501Y-88287553D01*
X88467553Y-88159501D01*
X88475180Y-88149003D01*
X88530508Y-88106336D01*
X88600121Y-88100355D01*
X88661917Y-88132959D01*
G37*
%TD.AperFunction*%
%TA.AperFunction,Conductor*%
G36*
X79518518Y-84882885D02*
G01*
X79520891Y-84882608D01*
X79539165Y-84888503D01*
X79539404Y-84887730D01*
X79548600Y-84890571D01*
X79548604Y-84890571D01*
X79548607Y-84890573D01*
X79616740Y-84900500D01*
X79616745Y-84900500D01*
X79616752Y-84900501D01*
X79621220Y-84900825D01*
X79621090Y-84902615D01*
X79680924Y-84920185D01*
X79726679Y-84972989D01*
X79736623Y-85042147D01*
X79735146Y-85049346D01*
X79734706Y-85052686D01*
X79734706Y-85052688D01*
X79734706Y-85210802D01*
X79765882Y-85327150D01*
X79775629Y-85363528D01*
X79775632Y-85363535D01*
X79854681Y-85500454D01*
X79854685Y-85500459D01*
X79854686Y-85500461D01*
X79966490Y-85612265D01*
X79966492Y-85612266D01*
X79966496Y-85612269D01*
X80038424Y-85653796D01*
X80103422Y-85691322D01*
X80256149Y-85732245D01*
X80256151Y-85732245D01*
X80414260Y-85732245D01*
X80414263Y-85732245D01*
X80546799Y-85696732D01*
X80616645Y-85698395D01*
X80674508Y-85737557D01*
X80686276Y-85754507D01*
X80694477Y-85768712D01*
X80694479Y-85768715D01*
X80694480Y-85768716D01*
X80806284Y-85880520D01*
X80874469Y-85919886D01*
X80900151Y-85939593D01*
X81081038Y-86120480D01*
X81172363Y-86173207D01*
X81274224Y-86200500D01*
X81280200Y-86200500D01*
X81310691Y-86209453D01*
X81341633Y-86216787D01*
X81343987Y-86219230D01*
X81347239Y-86220185D01*
X81368046Y-86244197D01*
X81390114Y-86267099D01*
X81391439Y-86271195D01*
X81392994Y-86272989D01*
X81401834Y-86300391D01*
X81402445Y-86303475D01*
X81409427Y-86351393D01*
X81413659Y-86360050D01*
X81416799Y-86375891D01*
X81415052Y-86395258D01*
X81418323Y-86414425D01*
X81411108Y-86438995D01*
X81411103Y-86439047D01*
X81412270Y-86439408D01*
X81410577Y-86444885D01*
X81410524Y-86445478D01*
X81410308Y-86445754D01*
X81409425Y-86448611D01*
X81399500Y-86516739D01*
X81399500Y-86683260D01*
X81409425Y-86751388D01*
X81412270Y-86760592D01*
X81409294Y-86761511D01*
X81418323Y-86814425D01*
X81411094Y-86839044D01*
X81412270Y-86839408D01*
X81409425Y-86848611D01*
X81399500Y-86916739D01*
X81399500Y-87083260D01*
X81409425Y-87151388D01*
X81412270Y-87160592D01*
X81409294Y-87161511D01*
X81418323Y-87214425D01*
X81411094Y-87239044D01*
X81412270Y-87239408D01*
X81409425Y-87248611D01*
X81399500Y-87316739D01*
X81399500Y-87483260D01*
X81409425Y-87551388D01*
X81412270Y-87560592D01*
X81409294Y-87561511D01*
X81418323Y-87614425D01*
X81411094Y-87639044D01*
X81412270Y-87639408D01*
X81409425Y-87648611D01*
X81399500Y-87716739D01*
X81399500Y-87883260D01*
X81409425Y-87951388D01*
X81412270Y-87960592D01*
X81409294Y-87961511D01*
X81418323Y-88014425D01*
X81416799Y-88024109D01*
X81413659Y-88039949D01*
X81409427Y-88048607D01*
X81402445Y-88096524D01*
X81401834Y-88099609D01*
X81387069Y-88127879D01*
X81373761Y-88156878D01*
X81371004Y-88158642D01*
X81369490Y-88161542D01*
X81341781Y-88177345D01*
X81314912Y-88194542D01*
X81310532Y-88195167D01*
X81308798Y-88196157D01*
X81305009Y-88195956D01*
X81280200Y-88199500D01*
X80997273Y-88199500D01*
X80895410Y-88226793D01*
X80804087Y-88279520D01*
X80804084Y-88279522D01*
X80280522Y-88803084D01*
X80280520Y-88803087D01*
X80227794Y-88894409D01*
X80227793Y-88894411D01*
X80227793Y-88894412D01*
X80215793Y-88939198D01*
X80205420Y-88977913D01*
X80198397Y-89004123D01*
X80196177Y-89003528D01*
X80172697Y-89056593D01*
X80114368Y-89095057D01*
X80078033Y-89100500D01*
X79318459Y-89100500D01*
X79317496Y-89100496D01*
X79306118Y-89100407D01*
X79302727Y-89099499D01*
X79197273Y-89099499D01*
X79197269Y-89099500D01*
X78277727Y-89099500D01*
X77092255Y-89099500D01*
X77025216Y-89079815D01*
X77004574Y-89063181D01*
X76436819Y-88495426D01*
X76403334Y-88434103D01*
X76400500Y-88407745D01*
X76400500Y-85524500D01*
X76420185Y-85457461D01*
X76472989Y-85411706D01*
X76524500Y-85400500D01*
X78702725Y-85400500D01*
X78702727Y-85400500D01*
X78804588Y-85373207D01*
X78895913Y-85320480D01*
X79220480Y-84995913D01*
X79231309Y-84977157D01*
X79239771Y-84962499D01*
X79290337Y-84914285D01*
X79347158Y-84900500D01*
X79383255Y-84900500D01*
X79383260Y-84900500D01*
X79451393Y-84890573D01*
X79451396Y-84890571D01*
X79451399Y-84890571D01*
X79460596Y-84887730D01*
X79461169Y-84889585D01*
X79483055Y-84887028D01*
X79514390Y-84881673D01*
X79518518Y-84882885D01*
G37*
%TD.AperFunction*%
%TA.AperFunction,Conductor*%
G36*
X87499914Y-60640184D02*
G01*
X87545669Y-60692988D01*
X87555613Y-60762146D01*
X87526588Y-60825702D01*
X87467810Y-60863476D01*
X87452273Y-60866972D01*
X87320589Y-60887829D01*
X87148363Y-60943787D01*
X87148360Y-60943788D01*
X86987006Y-61026003D01*
X86847860Y-61127098D01*
X86782053Y-61150577D01*
X86718288Y-61135748D01*
X86721176Y-61148299D01*
X86729873Y-61163699D01*
X86728847Y-61181640D01*
X86732877Y-61199155D01*
X86726890Y-61215872D01*
X86725885Y-61233455D01*
X86709415Y-61264671D01*
X86606003Y-61407006D01*
X86523788Y-61568360D01*
X86523787Y-61568363D01*
X86467829Y-61740589D01*
X86439500Y-61919448D01*
X86439500Y-62100551D01*
X86467829Y-62279410D01*
X86523787Y-62451636D01*
X86523788Y-62451639D01*
X86606006Y-62612997D01*
X86712441Y-62759494D01*
X86712445Y-62759499D01*
X86840500Y-62887554D01*
X86840505Y-62887558D01*
X86964801Y-62977863D01*
X86987006Y-62993996D01*
X87049256Y-63025714D01*
X87148360Y-63076211D01*
X87148363Y-63076212D01*
X87210399Y-63096368D01*
X87320591Y-63132171D01*
X87393639Y-63143740D01*
X87480678Y-63157527D01*
X87543813Y-63187456D01*
X87580744Y-63246768D01*
X87579746Y-63316631D01*
X87541136Y-63374863D01*
X87480678Y-63402473D01*
X87320589Y-63427829D01*
X87148363Y-63483787D01*
X87148360Y-63483788D01*
X86987002Y-63566006D01*
X86840505Y-63672441D01*
X86840500Y-63672445D01*
X86712445Y-63800500D01*
X86712441Y-63800505D01*
X86606006Y-63947002D01*
X86523788Y-64108360D01*
X86523787Y-64108363D01*
X86467829Y-64280589D01*
X86439500Y-64459448D01*
X86439500Y-64640551D01*
X86467829Y-64819411D01*
X86467829Y-64819413D01*
X86467985Y-64819891D01*
X86467990Y-64820082D01*
X86468967Y-64824151D01*
X86468111Y-64824356D01*
X86469971Y-64889733D01*
X86437730Y-64945875D01*
X84031404Y-67352203D01*
X83254520Y-68129087D01*
X83251059Y-68135082D01*
X83201793Y-68220411D01*
X83199116Y-68230406D01*
X83199114Y-68230412D01*
X83174500Y-68322273D01*
X83174500Y-79111667D01*
X83154815Y-79178706D01*
X83138181Y-79199348D01*
X83094481Y-79243047D01*
X83094475Y-79243055D01*
X83015426Y-79379974D01*
X83015423Y-79379981D01*
X82974500Y-79532708D01*
X82974500Y-79690822D01*
X82986434Y-79735358D01*
X83015423Y-79843548D01*
X83015426Y-79843555D01*
X83094475Y-79980474D01*
X83094479Y-79980479D01*
X83094480Y-79980481D01*
X83206284Y-80092285D01*
X83206286Y-80092286D01*
X83206290Y-80092289D01*
X83332597Y-80165211D01*
X83343216Y-80171342D01*
X83495943Y-80212265D01*
X83495945Y-80212265D01*
X83654055Y-80212265D01*
X83654057Y-80212265D01*
X83806784Y-80171342D01*
X83943716Y-80092285D01*
X84055520Y-79980481D01*
X84134577Y-79843549D01*
X84175500Y-79690822D01*
X84175500Y-79532708D01*
X84134577Y-79379981D01*
X84134573Y-79379974D01*
X84055524Y-79243055D01*
X84055518Y-79243047D01*
X84011819Y-79199348D01*
X83978334Y-79138025D01*
X83975500Y-79111667D01*
X83975500Y-68592254D01*
X83995185Y-68525215D01*
X84011814Y-68504578D01*
X86920249Y-65596142D01*
X86981570Y-65562659D01*
X87051262Y-65567643D01*
X87064224Y-65573341D01*
X87148355Y-65616209D01*
X87148363Y-65616212D01*
X87231721Y-65643296D01*
X87320591Y-65672171D01*
X87393639Y-65683740D01*
X87480678Y-65697527D01*
X87543813Y-65727456D01*
X87580744Y-65786768D01*
X87579746Y-65856631D01*
X87541136Y-65914863D01*
X87480678Y-65942473D01*
X87320589Y-65967829D01*
X87148363Y-66023787D01*
X87148360Y-66023788D01*
X86987002Y-66106006D01*
X86840505Y-66212441D01*
X86840500Y-66212445D01*
X86712445Y-66340500D01*
X86712441Y-66340505D01*
X86606006Y-66487002D01*
X86523788Y-66648360D01*
X86523787Y-66648363D01*
X86467829Y-66820589D01*
X86439500Y-66999448D01*
X86439500Y-67180551D01*
X86467829Y-67359410D01*
X86523787Y-67531636D01*
X86523788Y-67531639D01*
X86579664Y-67641300D01*
X86600119Y-67681445D01*
X86606006Y-67692997D01*
X86712441Y-67839494D01*
X86712445Y-67839499D01*
X86840500Y-67967554D01*
X86840505Y-67967558D01*
X86945384Y-68043756D01*
X86987006Y-68073996D01*
X87092484Y-68127740D01*
X87148360Y-68156211D01*
X87148363Y-68156212D01*
X87234476Y-68184191D01*
X87320591Y-68212171D01*
X87393639Y-68223740D01*
X87480678Y-68237527D01*
X87543813Y-68267456D01*
X87580744Y-68326768D01*
X87579746Y-68396631D01*
X87541136Y-68454863D01*
X87480678Y-68482473D01*
X87320589Y-68507829D01*
X87148363Y-68563787D01*
X87148360Y-68563788D01*
X86987002Y-68646006D01*
X86840505Y-68752441D01*
X86840500Y-68752445D01*
X86712445Y-68880500D01*
X86712441Y-68880505D01*
X86606006Y-69027002D01*
X86523788Y-69188360D01*
X86523787Y-69188363D01*
X86467829Y-69360589D01*
X86439500Y-69539448D01*
X86439500Y-69720551D01*
X86467829Y-69899410D01*
X86514575Y-70043281D01*
X86516570Y-70113122D01*
X86484325Y-70169280D01*
X84829522Y-71824084D01*
X84829518Y-71824090D01*
X84776792Y-71915412D01*
X84776793Y-71915413D01*
X84749500Y-72017273D01*
X84749500Y-84013123D01*
X84729815Y-84080162D01*
X84677011Y-84125917D01*
X84607853Y-84135861D01*
X84584545Y-84130164D01*
X84505000Y-84102330D01*
X84505000Y-85297667D01*
X84584545Y-85269834D01*
X84613979Y-85268331D01*
X84643147Y-85264138D01*
X84648475Y-85266571D01*
X84654324Y-85266273D01*
X84679891Y-85280918D01*
X84706703Y-85293163D01*
X84709869Y-85298090D01*
X84714952Y-85301002D01*
X84728545Y-85327150D01*
X84744477Y-85351941D01*
X84745640Y-85360036D01*
X84747179Y-85362995D01*
X84749500Y-85386876D01*
X84749500Y-85607745D01*
X84729815Y-85674784D01*
X84713181Y-85695426D01*
X84645426Y-85763181D01*
X84584103Y-85796666D01*
X84557745Y-85799500D01*
X84299500Y-85799500D01*
X84232461Y-85779815D01*
X84186706Y-85727011D01*
X84175500Y-85675500D01*
X84175500Y-85520945D01*
X84175500Y-85520943D01*
X84134577Y-85368216D01*
X84134573Y-85368209D01*
X84055524Y-85231290D01*
X84055518Y-85231282D01*
X84041319Y-85217083D01*
X84007834Y-85155760D01*
X84005000Y-85129402D01*
X84005000Y-84102330D01*
X84004999Y-84102330D01*
X83907079Y-84136594D01*
X83898133Y-84143197D01*
X83885872Y-84147674D01*
X83876011Y-84156220D01*
X83853688Y-84159429D01*
X83832504Y-84167167D01*
X83819771Y-84164306D01*
X83806853Y-84166164D01*
X83786336Y-84156794D01*
X83764333Y-84151851D01*
X83755168Y-84142560D01*
X83743297Y-84137139D01*
X83731102Y-84118164D01*
X83715266Y-84102110D01*
X83711714Y-84087995D01*
X83705523Y-84078361D01*
X83700500Y-84043426D01*
X83700500Y-83816551D01*
X83700501Y-83816538D01*
X83700501Y-83701096D01*
X83700500Y-83701092D01*
X83699361Y-83696843D01*
X83688675Y-83656961D01*
X83688134Y-83647343D01*
X83685594Y-83641678D01*
X83685834Y-83606385D01*
X83691337Y-83569874D01*
X83720793Y-83506518D01*
X83779827Y-83469144D01*
X83795473Y-83465741D01*
X83866779Y-83454994D01*
X83960248Y-83409980D01*
X83397176Y-82846908D01*
X83360857Y-82810589D01*
X84067965Y-82810589D01*
X84313802Y-83056426D01*
X84358816Y-82962958D01*
X84378584Y-82831802D01*
X84378584Y-82831801D01*
X84358815Y-82700645D01*
X84301263Y-82581138D01*
X84299520Y-82579033D01*
X84067965Y-82810589D01*
X83360857Y-82810589D01*
X83146819Y-82596550D01*
X83113334Y-82535227D01*
X83110500Y-82508869D01*
X83110500Y-82281931D01*
X83108927Y-82265158D01*
X83108926Y-82265157D01*
X83107710Y-82252181D01*
X83107709Y-82252177D01*
X83107708Y-82252173D01*
X83093369Y-82211195D01*
X83468572Y-82211195D01*
X83468572Y-82211196D01*
X83714410Y-82457034D01*
X83945965Y-82225478D01*
X83943861Y-82223736D01*
X83943851Y-82223729D01*
X83824356Y-82166184D01*
X83693198Y-82146416D01*
X83562039Y-82166184D01*
X83468572Y-82211195D01*
X83093369Y-82211195D01*
X83070701Y-82146416D01*
X83063852Y-82126843D01*
X83020579Y-82068211D01*
X82996609Y-82002583D01*
X83011924Y-81934413D01*
X83020581Y-81920943D01*
X83063403Y-81862922D01*
X83097668Y-81765000D01*
X82215000Y-81765000D01*
X82196319Y-81783681D01*
X82134996Y-81817166D01*
X82108638Y-81820000D01*
X81599000Y-81820000D01*
X81531961Y-81800315D01*
X81486206Y-81747511D01*
X81475000Y-81696000D01*
X81475000Y-81570000D01*
X81349000Y-81570000D01*
X81281961Y-81550315D01*
X81236206Y-81497511D01*
X81225000Y-81446000D01*
X81225000Y-81021671D01*
X81233557Y-80992530D01*
X81725000Y-80992530D01*
X81725000Y-81320000D01*
X81760000Y-81320000D01*
X81778681Y-81301319D01*
X81840004Y-81267834D01*
X81866362Y-81265000D01*
X82250000Y-81265000D01*
X82750000Y-81265000D01*
X83097668Y-81265000D01*
X83063403Y-81167077D01*
X82984641Y-81060358D01*
X82877919Y-80981594D01*
X82752727Y-80937787D01*
X82752725Y-80937786D01*
X82750000Y-80937530D01*
X82750000Y-81265000D01*
X82250000Y-81265000D01*
X82250000Y-80937531D01*
X82249999Y-80937530D01*
X82247274Y-80937786D01*
X82247272Y-80937787D01*
X82122078Y-80981595D01*
X82122077Y-80981595D01*
X82023871Y-81054075D01*
X81958243Y-81078046D01*
X81890072Y-81062730D01*
X81876602Y-81054074D01*
X81852918Y-81036593D01*
X81727727Y-80992787D01*
X81727725Y-80992786D01*
X81725000Y-80992530D01*
X81233557Y-80992530D01*
X81233644Y-80992233D01*
X81240168Y-80962243D01*
X81243923Y-80957226D01*
X81244685Y-80954632D01*
X81261308Y-80934001D01*
X81731460Y-80463851D01*
X81784187Y-80372526D01*
X81811480Y-80270665D01*
X81811480Y-80165211D01*
X81811480Y-78179335D01*
X81799577Y-78134913D01*
X81784187Y-78077474D01*
X81731460Y-77986149D01*
X80451007Y-76705696D01*
X80417522Y-76644373D01*
X80422506Y-76574681D01*
X80461369Y-76521073D01*
X80542987Y-76455977D01*
X80620336Y-76358991D01*
X80674174Y-76247231D01*
X80701804Y-76126295D01*
X80701806Y-76116923D01*
X80701820Y-76116873D01*
X80701820Y-76064023D01*
X80701837Y-76006685D01*
X80701836Y-76006683D01*
X80701839Y-75997999D01*
X80701820Y-75997719D01*
X80701820Y-75822049D01*
X80701825Y-75822032D01*
X80701820Y-75764449D01*
X80701820Y-75711759D01*
X80701820Y-75703868D01*
X80701780Y-75703262D01*
X80701780Y-75702419D01*
X80701779Y-75702414D01*
X80685815Y-75632483D01*
X80674170Y-75581469D01*
X80620345Y-75469693D01*
X80620345Y-75469692D01*
X80543004Y-75372692D01*
X80542999Y-75372688D01*
X80448152Y-75297026D01*
X80408021Y-75239832D01*
X80401480Y-75200091D01*
X80401480Y-68352398D01*
X80401481Y-68352385D01*
X80401481Y-68236943D01*
X80399731Y-68230412D01*
X80374187Y-68135082D01*
X80370726Y-68129087D01*
X80321460Y-68043756D01*
X80246893Y-67969189D01*
X80246892Y-67969188D01*
X80242562Y-67964858D01*
X80242551Y-67964848D01*
X79861819Y-67584115D01*
X79828334Y-67522792D01*
X79825500Y-67496434D01*
X79825500Y-66351254D01*
X79831738Y-66330008D01*
X79833318Y-66307920D01*
X79841390Y-66297136D01*
X79845185Y-66284215D01*
X79861918Y-66269715D01*
X79875190Y-66251987D01*
X79887810Y-66247279D01*
X79897989Y-66238460D01*
X79919906Y-66235308D01*
X79940654Y-66227570D01*
X79953814Y-66230432D01*
X79967147Y-66228516D01*
X79987290Y-66237715D01*
X80008927Y-66242422D01*
X80026652Y-66255690D01*
X80030703Y-66257541D01*
X80037181Y-66263573D01*
X80133181Y-66359573D01*
X80166666Y-66420896D01*
X80169500Y-66447253D01*
X80169500Y-66637453D01*
X80172258Y-66666874D01*
X80172260Y-66666884D01*
X80215618Y-66790792D01*
X80293576Y-66896423D01*
X80317909Y-66914381D01*
X80399206Y-66974381D01*
X80440511Y-66988834D01*
X80523119Y-67017741D01*
X80530796Y-67018460D01*
X80552543Y-67020500D01*
X80927456Y-67020499D01*
X80956879Y-67017741D01*
X81080794Y-66974381D01*
X81176788Y-66903533D01*
X81242416Y-66879563D01*
X81310586Y-66894878D01*
X81324055Y-66903534D01*
X81419443Y-66973934D01*
X81419442Y-66973934D01*
X81509999Y-67005620D01*
X81510000Y-67005620D01*
X82010000Y-67005620D01*
X82100557Y-66973934D01*
X82206065Y-66896065D01*
X82283933Y-66790559D01*
X82283934Y-66790557D01*
X82327244Y-66666787D01*
X82327244Y-66666785D01*
X82328818Y-66650000D01*
X82010000Y-66650000D01*
X82010000Y-67005620D01*
X81510000Y-67005620D01*
X81510000Y-65800000D01*
X82010000Y-65800000D01*
X82010000Y-66150000D01*
X82328818Y-66150000D01*
X82328818Y-66149999D01*
X82327244Y-66133214D01*
X82327244Y-66133212D01*
X82283934Y-66009442D01*
X82283933Y-66009440D01*
X82206065Y-65903934D01*
X82192291Y-65893769D01*
X82150041Y-65838121D01*
X82145729Y-65783107D01*
X82127511Y-65798894D01*
X82058353Y-65808838D01*
X82035049Y-65803143D01*
X82026066Y-65800000D01*
X82010000Y-65800000D01*
X81510000Y-65800000D01*
X81510000Y-65774000D01*
X81529685Y-65706961D01*
X81582489Y-65661206D01*
X81634000Y-65650000D01*
X81700000Y-65650000D01*
X81700000Y-65573917D01*
X81710565Y-65523832D01*
X81747585Y-65439991D01*
X81750500Y-65414865D01*
X81750499Y-64744859D01*
X81770183Y-64677822D01*
X81822987Y-64632067D01*
X81889248Y-64621741D01*
X82090749Y-64645880D01*
X82116336Y-64656844D01*
X82143039Y-64664685D01*
X82148002Y-64670412D01*
X82154971Y-64673399D01*
X82170569Y-64696456D01*
X82188794Y-64717489D01*
X82190688Y-64726196D01*
X82194121Y-64731271D01*
X82194403Y-64743276D01*
X82200000Y-64769000D01*
X82200000Y-65686100D01*
X82197048Y-65696151D01*
X82238744Y-65673015D01*
X82265925Y-65669999D01*
X82294786Y-65669999D01*
X82294808Y-65669997D01*
X82319869Y-65667091D01*
X82319873Y-65667090D01*
X82422474Y-65621788D01*
X82422479Y-65621785D01*
X82501785Y-65542479D01*
X82501788Y-65542474D01*
X82547089Y-65439877D01*
X82547089Y-65439875D01*
X82549999Y-65414794D01*
X82549999Y-65136812D01*
X82569683Y-65069773D01*
X82622487Y-65024018D01*
X82691646Y-65014074D01*
X82721451Y-65022251D01*
X82769999Y-65042360D01*
X82770000Y-65042360D01*
X82770000Y-64446988D01*
X82779940Y-64464205D01*
X82835795Y-64520060D01*
X82904204Y-64559556D01*
X82980504Y-64580000D01*
X83059496Y-64580000D01*
X83135796Y-64559556D01*
X83204205Y-64520060D01*
X83260060Y-64464205D01*
X83270000Y-64446988D01*
X83270000Y-65042360D01*
X83398934Y-64988954D01*
X83398952Y-64988944D01*
X83529965Y-64901404D01*
X83529973Y-64901398D01*
X83641398Y-64789973D01*
X83641401Y-64789969D01*
X83728947Y-64658948D01*
X83728952Y-64658939D01*
X83789256Y-64513351D01*
X83789258Y-64513343D01*
X83819999Y-64358797D01*
X83820000Y-64358794D01*
X83820000Y-63980000D01*
X83320000Y-63980000D01*
X83320000Y-63480000D01*
X83820000Y-63480000D01*
X83820000Y-63101206D01*
X83819999Y-63101202D01*
X83789258Y-62946656D01*
X83789256Y-62946648D01*
X83728952Y-62801060D01*
X83728947Y-62801051D01*
X83641401Y-62670030D01*
X83641398Y-62670026D01*
X83529973Y-62558601D01*
X83529969Y-62558598D01*
X83398948Y-62471052D01*
X83398938Y-62471047D01*
X83270000Y-62417639D01*
X83270000Y-63013011D01*
X83260060Y-62995795D01*
X83204205Y-62939940D01*
X83135796Y-62900444D01*
X83059496Y-62880000D01*
X82980504Y-62880000D01*
X82904204Y-62900444D01*
X82835795Y-62939940D01*
X82779940Y-62995795D01*
X82770000Y-63013011D01*
X82770000Y-62417639D01*
X82769999Y-62417639D01*
X82641061Y-62471047D01*
X82641051Y-62471052D01*
X82510030Y-62558598D01*
X82510026Y-62558601D01*
X82398601Y-62670026D01*
X82398598Y-62670030D01*
X82311052Y-62801051D01*
X82311049Y-62801057D01*
X82287446Y-62858040D01*
X82243604Y-62912443D01*
X82177310Y-62934507D01*
X82109611Y-62917227D01*
X82065498Y-62872587D01*
X82050515Y-62846635D01*
X81943365Y-62739485D01*
X81873500Y-62699148D01*
X81812136Y-62663719D01*
X81738950Y-62644109D01*
X81665766Y-62624500D01*
X81514234Y-62624500D01*
X81367863Y-62663719D01*
X81236635Y-62739485D01*
X81236632Y-62739487D01*
X81129487Y-62846632D01*
X81129485Y-62846635D01*
X81071738Y-62946656D01*
X81053719Y-62977865D01*
X81049397Y-62993996D01*
X81043910Y-63014474D01*
X81040750Y-63019657D01*
X81040317Y-63025714D01*
X81022775Y-63049146D01*
X81007544Y-63074134D01*
X81002083Y-63076786D01*
X80998445Y-63081647D01*
X80971020Y-63091875D01*
X80944697Y-63104663D01*
X80938669Y-63103942D01*
X80932981Y-63106064D01*
X80904382Y-63099842D01*
X80875322Y-63096368D01*
X80869123Y-63092172D01*
X80864708Y-63091212D01*
X80836454Y-63070061D01*
X80811819Y-63045426D01*
X80778334Y-62984103D01*
X80775500Y-62957745D01*
X80775500Y-62014255D01*
X80795185Y-61947216D01*
X80811819Y-61926574D01*
X81526574Y-61211819D01*
X81587897Y-61178334D01*
X81614255Y-61175500D01*
X86337725Y-61175500D01*
X86337727Y-61175500D01*
X86439588Y-61148207D01*
X86530913Y-61095480D01*
X86530917Y-61095475D01*
X86533606Y-61093413D01*
X86536288Y-61092375D01*
X86537951Y-61091416D01*
X86538100Y-61091675D01*
X86550101Y-61087035D01*
X86564107Y-61076235D01*
X86582011Y-61074697D01*
X86598774Y-61068216D01*
X86616101Y-61071769D01*
X86633720Y-61070256D01*
X86649613Y-61078641D01*
X86664716Y-61081738D01*
X86651430Y-61016167D01*
X86676780Y-60951058D01*
X86687294Y-60939098D01*
X86848661Y-60777731D01*
X86969573Y-60656817D01*
X87030896Y-60623333D01*
X87057254Y-60620499D01*
X87432875Y-60620499D01*
X87499914Y-60640184D01*
G37*
%TD.AperFunction*%
%TA.AperFunction,Conductor*%
G36*
X72678703Y-82101440D02*
G01*
X72685181Y-82107472D01*
X72748621Y-82170912D01*
X72748622Y-82170913D01*
X72823189Y-82245480D01*
X72914515Y-82298207D01*
X73016375Y-82325500D01*
X73121829Y-82325500D01*
X73607745Y-82325500D01*
X73674784Y-82345185D01*
X73695426Y-82361819D01*
X74203087Y-82869480D01*
X74219135Y-82878745D01*
X74247967Y-82895391D01*
X74273649Y-82915098D01*
X74459901Y-83101350D01*
X74467386Y-83109537D01*
X74474253Y-83117758D01*
X74505520Y-83171913D01*
X74590350Y-83256743D01*
X74593911Y-83261006D01*
X74605721Y-83288155D01*
X74619911Y-83314142D01*
X74619503Y-83319838D01*
X74621782Y-83325076D01*
X74617039Y-83354299D01*
X74614927Y-83383834D01*
X74611503Y-83388406D01*
X74610589Y-83394043D01*
X74590798Y-83416064D01*
X74573055Y-83439767D01*
X74567705Y-83441762D01*
X74563887Y-83446011D01*
X74535328Y-83453838D01*
X74507591Y-83464184D01*
X74498745Y-83464500D01*
X74236930Y-83464500D01*
X74207185Y-83467289D01*
X74207173Y-83467291D01*
X74081844Y-83511147D01*
X74023213Y-83554419D01*
X73957584Y-83578390D01*
X73889413Y-83563074D01*
X73875945Y-83554419D01*
X73817920Y-83511594D01*
X73720000Y-83477330D01*
X73720000Y-83951000D01*
X73700315Y-84018039D01*
X73647511Y-84063794D01*
X73596000Y-84075000D01*
X73344000Y-84075000D01*
X73335314Y-84072449D01*
X73326353Y-84073738D01*
X73302312Y-84062759D01*
X73276961Y-84055315D01*
X73271033Y-84048474D01*
X73262797Y-84044713D01*
X73248507Y-84022478D01*
X73231206Y-84002511D01*
X73228918Y-83991996D01*
X73225023Y-83985935D01*
X73220000Y-83951000D01*
X73220000Y-83771895D01*
X73236613Y-83709896D01*
X73293955Y-83610574D01*
X73310577Y-83581784D01*
X73351500Y-83429057D01*
X73351500Y-83270943D01*
X73310577Y-83118216D01*
X73305566Y-83109537D01*
X73231524Y-82981290D01*
X73231518Y-82981282D01*
X73119717Y-82869481D01*
X73119709Y-82869475D01*
X72982790Y-82790426D01*
X72982786Y-82790424D01*
X72982784Y-82790423D01*
X72830057Y-82749500D01*
X72671943Y-82749500D01*
X72629591Y-82760847D01*
X72559744Y-82759185D01*
X72501881Y-82720022D01*
X72474377Y-82655794D01*
X72473500Y-82641073D01*
X72473500Y-82195153D01*
X72493185Y-82128114D01*
X72545989Y-82082359D01*
X72615147Y-82072415D01*
X72678703Y-82101440D01*
G37*
%TD.AperFunction*%
%TA.AperFunction,Conductor*%
G36*
X74663257Y-80927865D02*
G01*
X74721120Y-80967028D01*
X74748623Y-81031257D01*
X74749500Y-81045976D01*
X74749500Y-81144855D01*
X74749502Y-81144882D01*
X74752413Y-81169987D01*
X74752415Y-81169991D01*
X74797793Y-81272764D01*
X74797794Y-81272765D01*
X74877235Y-81352206D01*
X74980009Y-81397585D01*
X75005135Y-81400500D01*
X75200500Y-81400499D01*
X75267539Y-81420183D01*
X75313294Y-81472987D01*
X75324500Y-81524499D01*
X75324500Y-81966703D01*
X75304815Y-82033742D01*
X75252011Y-82079497D01*
X75182853Y-82089441D01*
X75119297Y-82060416D01*
X75112819Y-82054384D01*
X74785437Y-81727002D01*
X74465299Y-81406863D01*
X74431815Y-81345542D01*
X74436799Y-81275850D01*
X74441581Y-81264722D01*
X74464733Y-81217364D01*
X74470905Y-81174999D01*
X74448707Y-81149332D01*
X74448096Y-81147992D01*
X74446876Y-81147166D01*
X74433654Y-81116289D01*
X74419742Y-81085749D01*
X74419952Y-81084291D01*
X74419373Y-81082937D01*
X74424941Y-81049825D01*
X74429750Y-81016600D01*
X74430715Y-81015487D01*
X74430960Y-81014035D01*
X74453542Y-80989193D01*
X74475554Y-80963839D01*
X74477288Y-80963072D01*
X74477959Y-80962335D01*
X74510397Y-80948444D01*
X74593410Y-80926202D01*
X74663257Y-80927865D01*
G37*
%TD.AperFunction*%
%TA.AperFunction,Conductor*%
G36*
X70349281Y-75815674D02*
G01*
X71636181Y-77102574D01*
X71669666Y-77163897D01*
X71672500Y-77190255D01*
X71672500Y-80786745D01*
X71652815Y-80853784D01*
X71600011Y-80899539D01*
X71530853Y-80909483D01*
X71467297Y-80880458D01*
X71460819Y-80874426D01*
X70915674Y-80329281D01*
X70882189Y-80267958D01*
X70885424Y-80203283D01*
X70932171Y-80059409D01*
X70944673Y-79980474D01*
X70960500Y-79880551D01*
X70960500Y-79699448D01*
X70940709Y-79574500D01*
X70932171Y-79520591D01*
X70887301Y-79382493D01*
X70876212Y-79348363D01*
X70876211Y-79348360D01*
X70838145Y-79273653D01*
X70793996Y-79187006D01*
X70775450Y-79161480D01*
X70687558Y-79040505D01*
X70687554Y-79040500D01*
X70559499Y-78912445D01*
X70559494Y-78912441D01*
X70412997Y-78806006D01*
X70412996Y-78806005D01*
X70412994Y-78806004D01*
X70348350Y-78773066D01*
X70251639Y-78723788D01*
X70251636Y-78723787D01*
X70079410Y-78667828D01*
X69917720Y-78642219D01*
X69854585Y-78612289D01*
X69817654Y-78552978D01*
X69818652Y-78483115D01*
X69857262Y-78424883D01*
X69917721Y-78397273D01*
X70079292Y-78371683D01*
X70251444Y-78315748D01*
X70251452Y-78315745D01*
X70412730Y-78233568D01*
X70428532Y-78222085D01*
X70428533Y-78222085D01*
X69939410Y-77732962D01*
X70002993Y-77715925D01*
X70117007Y-77650099D01*
X70210099Y-77557007D01*
X70275925Y-77442993D01*
X70292962Y-77379410D01*
X70782085Y-77868533D01*
X70782085Y-77868532D01*
X70793568Y-77852730D01*
X70875745Y-77691452D01*
X70875748Y-77691444D01*
X70931682Y-77519293D01*
X70960000Y-77340506D01*
X70960000Y-77159493D01*
X70931682Y-76980706D01*
X70875748Y-76808555D01*
X70875747Y-76808552D01*
X70793571Y-76647275D01*
X70793566Y-76647267D01*
X70782085Y-76631466D01*
X70292962Y-77120589D01*
X70275925Y-77057007D01*
X70210099Y-76942993D01*
X70117007Y-76849901D01*
X70002993Y-76784075D01*
X69939409Y-76767037D01*
X70428533Y-76277913D01*
X70412730Y-76266431D01*
X70251447Y-76184252D01*
X70251444Y-76184251D01*
X70079293Y-76128317D01*
X69917720Y-76102726D01*
X69854585Y-76072797D01*
X69817654Y-76013485D01*
X69818652Y-75943623D01*
X69857262Y-75885390D01*
X69917720Y-75857780D01*
X69932270Y-75855475D01*
X70079409Y-75832171D01*
X70223284Y-75785423D01*
X70293123Y-75783429D01*
X70349281Y-75815674D01*
G37*
%TD.AperFunction*%
%TA.AperFunction,Conductor*%
G36*
X86136498Y-76283530D02*
G01*
X86268216Y-76359577D01*
X86420943Y-76400500D01*
X86420945Y-76400500D01*
X86542356Y-76400500D01*
X86609395Y-76420185D01*
X86655150Y-76472989D01*
X86665094Y-76542147D01*
X86642674Y-76597385D01*
X86606434Y-76647265D01*
X86524252Y-76808552D01*
X86524251Y-76808555D01*
X86468317Y-76980706D01*
X86440000Y-77159493D01*
X86440000Y-77340506D01*
X86468317Y-77519293D01*
X86524251Y-77691444D01*
X86524252Y-77691447D01*
X86606431Y-77852730D01*
X86617913Y-77868532D01*
X86617913Y-77868533D01*
X87107037Y-77379408D01*
X87124075Y-77442993D01*
X87189901Y-77557007D01*
X87282993Y-77650099D01*
X87397007Y-77715925D01*
X87460590Y-77732962D01*
X86971466Y-78222085D01*
X86971466Y-78222086D01*
X86987267Y-78233566D01*
X86987275Y-78233571D01*
X87148552Y-78315747D01*
X87148555Y-78315748D01*
X87320706Y-78371682D01*
X87482279Y-78397273D01*
X87545413Y-78427202D01*
X87582345Y-78486513D01*
X87581347Y-78556376D01*
X87542738Y-78614609D01*
X87482280Y-78642219D01*
X87320589Y-78667829D01*
X87148363Y-78723787D01*
X87148360Y-78723788D01*
X86987002Y-78806006D01*
X86840505Y-78912441D01*
X86840500Y-78912445D01*
X86712445Y-79040500D01*
X86712441Y-79040505D01*
X86606006Y-79187002D01*
X86523788Y-79348360D01*
X86523787Y-79348363D01*
X86467829Y-79520589D01*
X86439500Y-79699448D01*
X86439500Y-79880551D01*
X86467829Y-80059412D01*
X86514575Y-80203283D01*
X86516570Y-80273124D01*
X86484325Y-80329281D01*
X86162181Y-80651425D01*
X86100858Y-80684910D01*
X86031166Y-80679926D01*
X85975233Y-80638054D01*
X85950816Y-80572590D01*
X85950500Y-80563744D01*
X85950500Y-76390918D01*
X85970185Y-76323879D01*
X86022989Y-76278124D01*
X86092147Y-76268180D01*
X86136498Y-76283530D01*
G37*
%TD.AperFunction*%
%TA.AperFunction,Conductor*%
G36*
X79114182Y-75809481D02*
G01*
X79147666Y-75870805D01*
X79150500Y-75897162D01*
X79150500Y-77061176D01*
X79177793Y-77163039D01*
X79189996Y-77184174D01*
X79230520Y-77254363D01*
X79230522Y-77254365D01*
X79994374Y-78018217D01*
X80027859Y-78079540D01*
X80022875Y-78149232D01*
X79981003Y-78205165D01*
X79979501Y-78206116D01*
X79865358Y-78290358D01*
X79786594Y-78397080D01*
X79742785Y-78522276D01*
X79742075Y-78525529D01*
X79740889Y-78527695D01*
X79740294Y-78529397D01*
X79740012Y-78529298D01*
X79708534Y-78586822D01*
X79704414Y-78590749D01*
X79675000Y-78617530D01*
X79675000Y-79071000D01*
X79655315Y-79138039D01*
X79602511Y-79183794D01*
X79551000Y-79195000D01*
X79425000Y-79195000D01*
X79425000Y-79321000D01*
X79405315Y-79388039D01*
X79352511Y-79433794D01*
X79301000Y-79445000D01*
X78827332Y-79445000D01*
X78833553Y-79462780D01*
X78837114Y-79532558D01*
X78802385Y-79593186D01*
X78740392Y-79625413D01*
X78675557Y-79620776D01*
X78652723Y-79612786D01*
X78652725Y-79612786D01*
X78650000Y-79612530D01*
X78650000Y-80066000D01*
X78630315Y-80133039D01*
X78577511Y-80178794D01*
X78526000Y-80190000D01*
X78274000Y-80190000D01*
X78206961Y-80170315D01*
X78161206Y-80117511D01*
X78150000Y-80066000D01*
X78150000Y-79612531D01*
X78149999Y-79612530D01*
X78147274Y-79612786D01*
X78147272Y-79612787D01*
X78022080Y-79656594D01*
X77915358Y-79735358D01*
X77836595Y-79842078D01*
X77833490Y-79847954D01*
X77784758Y-79898024D01*
X77716693Y-79913800D01*
X77650904Y-79890272D01*
X77636181Y-79877688D01*
X77488015Y-79729522D01*
X77488013Y-79729520D01*
X77396688Y-79676793D01*
X77396687Y-79676792D01*
X77389649Y-79672729D01*
X77391109Y-79670199D01*
X77347642Y-79635170D01*
X77325578Y-79568876D01*
X77325499Y-79564483D01*
X77325499Y-79453052D01*
X77315220Y-79382491D01*
X77262012Y-79273653D01*
X77204357Y-79215998D01*
X77203415Y-79214272D01*
X77201716Y-79213276D01*
X77186741Y-79183737D01*
X77170874Y-79154678D01*
X77171014Y-79152713D01*
X77170124Y-79150957D01*
X77173495Y-79118019D01*
X77175858Y-79084986D01*
X77177101Y-79082788D01*
X77177239Y-79081450D01*
X77181428Y-79075144D01*
X77195094Y-79051005D01*
X77204796Y-79038838D01*
X77209999Y-79034999D01*
X77236568Y-78998998D01*
X77238014Y-78997186D01*
X77264790Y-78978391D01*
X77290838Y-78958615D01*
X77293722Y-78958084D01*
X77295202Y-78957046D01*
X77300556Y-78956827D01*
X77334960Y-78950500D01*
X78052725Y-78950500D01*
X78052727Y-78950500D01*
X78073254Y-78945000D01*
X78827332Y-78945000D01*
X79175000Y-78945000D01*
X79175000Y-78617531D01*
X79174999Y-78617530D01*
X79172275Y-78617786D01*
X79099064Y-78643404D01*
X78925027Y-78761130D01*
X78861597Y-78847075D01*
X78827332Y-78945000D01*
X78073254Y-78945000D01*
X78154588Y-78923207D01*
X78245913Y-78870480D01*
X78479574Y-78636819D01*
X78540897Y-78603334D01*
X78567255Y-78600500D01*
X78629055Y-78600500D01*
X78629057Y-78600500D01*
X78781784Y-78559577D01*
X78918716Y-78480520D01*
X79030520Y-78368716D01*
X79109577Y-78231784D01*
X79150500Y-78079057D01*
X79150500Y-77920943D01*
X79109577Y-77768216D01*
X79050445Y-77665795D01*
X79030524Y-77631290D01*
X79030518Y-77631282D01*
X78918717Y-77519481D01*
X78918709Y-77519475D01*
X78781790Y-77440426D01*
X78781786Y-77440424D01*
X78781784Y-77440423D01*
X78629057Y-77399500D01*
X78470943Y-77399500D01*
X78318216Y-77440423D01*
X78318209Y-77440426D01*
X78181290Y-77519475D01*
X78181282Y-77519481D01*
X78069481Y-77631282D01*
X78069475Y-77631290D01*
X77990426Y-77768209D01*
X77990423Y-77768216D01*
X77949500Y-77920943D01*
X77949500Y-77982745D01*
X77940855Y-78012185D01*
X77934332Y-78042172D01*
X77930577Y-78047187D01*
X77929815Y-78049784D01*
X77913181Y-78070426D01*
X77870426Y-78113181D01*
X77809103Y-78146666D01*
X77782745Y-78149500D01*
X77334960Y-78149500D01*
X77267921Y-78129815D01*
X77235190Y-78099134D01*
X77220729Y-78079540D01*
X77209999Y-78065001D01*
X77103157Y-77986148D01*
X77103155Y-77986147D01*
X76977826Y-77942291D01*
X76977814Y-77942289D01*
X76948070Y-77939500D01*
X76948066Y-77939500D01*
X76882254Y-77939500D01*
X76815215Y-77919815D01*
X76794573Y-77903181D01*
X76641392Y-77750000D01*
X76459913Y-77568520D01*
X76413761Y-77541874D01*
X76368589Y-77515793D01*
X76317657Y-77502146D01*
X76266727Y-77488500D01*
X76266726Y-77488500D01*
X75554499Y-77488500D01*
X75545813Y-77485949D01*
X75536852Y-77487238D01*
X75512811Y-77476259D01*
X75487460Y-77468815D01*
X75481532Y-77461974D01*
X75473296Y-77458213D01*
X75459006Y-77435978D01*
X75441705Y-77416011D01*
X75439417Y-77405496D01*
X75435522Y-77399435D01*
X75430499Y-77364500D01*
X75430499Y-77322254D01*
X75450184Y-77255215D01*
X75466813Y-77234578D01*
X76429573Y-76271819D01*
X76490896Y-76238334D01*
X76517254Y-76235500D01*
X77267725Y-76235500D01*
X77267727Y-76235500D01*
X77369588Y-76208207D01*
X77460913Y-76155480D01*
X77672258Y-75944133D01*
X77733579Y-75910650D01*
X77803271Y-75915634D01*
X77834250Y-75932549D01*
X77882073Y-75968350D01*
X77882668Y-75968795D01*
X77882671Y-75968797D01*
X77927618Y-75985561D01*
X78017517Y-76019091D01*
X78077127Y-76025500D01*
X78572872Y-76025499D01*
X78632483Y-76019091D01*
X78767331Y-75968796D01*
X78882546Y-75882546D01*
X78927234Y-75822849D01*
X78983167Y-75780980D01*
X79052859Y-75775996D01*
X79114182Y-75809481D01*
G37*
%TD.AperFunction*%
%TA.AperFunction,Conductor*%
G36*
X73686881Y-58620185D02*
G01*
X73732636Y-58672989D01*
X73742580Y-58742147D01*
X73722944Y-58793391D01*
X73671052Y-58871051D01*
X73671047Y-58871060D01*
X73610743Y-59016648D01*
X73610741Y-59016656D01*
X73580000Y-59171202D01*
X73580000Y-59300000D01*
X74080000Y-59300000D01*
X74080000Y-59800000D01*
X73580000Y-59800000D01*
X73580000Y-59928797D01*
X73610741Y-60083343D01*
X73610743Y-60083351D01*
X73671047Y-60228939D01*
X73671052Y-60228948D01*
X73758598Y-60359969D01*
X73758601Y-60359973D01*
X73870026Y-60471398D01*
X73870034Y-60471404D01*
X74001047Y-60558944D01*
X74001065Y-60558954D01*
X74129999Y-60612360D01*
X74130000Y-60612360D01*
X74130000Y-60016988D01*
X74139940Y-60034205D01*
X74195795Y-60090060D01*
X74264204Y-60129556D01*
X74340504Y-60150000D01*
X74419496Y-60150000D01*
X74495796Y-60129556D01*
X74564205Y-60090060D01*
X74620060Y-60034205D01*
X74630000Y-60016988D01*
X74630000Y-60612360D01*
X74758934Y-60558954D01*
X74758952Y-60558944D01*
X74889965Y-60471404D01*
X74889973Y-60471398D01*
X75001398Y-60359973D01*
X75001401Y-60359969D01*
X75088947Y-60228948D01*
X75088952Y-60228939D01*
X75149256Y-60083351D01*
X75149258Y-60083343D01*
X75179999Y-59928797D01*
X75180000Y-59928794D01*
X75180000Y-59800000D01*
X74680000Y-59800000D01*
X74680000Y-59300000D01*
X75180000Y-59300000D01*
X75180000Y-59171206D01*
X75179999Y-59171202D01*
X75149258Y-59016656D01*
X75149256Y-59016648D01*
X75088952Y-58871060D01*
X75088947Y-58871051D01*
X75037056Y-58793391D01*
X75016178Y-58726714D01*
X75034662Y-58659333D01*
X75086641Y-58612643D01*
X75140158Y-58600500D01*
X82259842Y-58600500D01*
X82326881Y-58620185D01*
X82372636Y-58672989D01*
X82382580Y-58742147D01*
X82362944Y-58793391D01*
X82311052Y-58871051D01*
X82311047Y-58871060D01*
X82250743Y-59016648D01*
X82250741Y-59016656D01*
X82220000Y-59171202D01*
X82220000Y-59300000D01*
X82720000Y-59300000D01*
X82720000Y-59800000D01*
X82220000Y-59800000D01*
X82220000Y-59928797D01*
X82250741Y-60083343D01*
X82250743Y-60083351D01*
X82300323Y-60203047D01*
X82307792Y-60272517D01*
X82276517Y-60334996D01*
X82216428Y-60370648D01*
X82185762Y-60374500D01*
X81344273Y-60374500D01*
X81242410Y-60401793D01*
X81151087Y-60454520D01*
X81151084Y-60454522D01*
X78867426Y-62738181D01*
X78806103Y-62771666D01*
X78779745Y-62774500D01*
X77160339Y-62774500D01*
X77160323Y-62774499D01*
X77152727Y-62774499D01*
X77047274Y-62774499D01*
X76945413Y-62801793D01*
X76867745Y-62846635D01*
X76854084Y-62854522D01*
X76779518Y-62929089D01*
X76579394Y-63129212D01*
X76518071Y-63162697D01*
X76448379Y-63157713D01*
X76392446Y-63115841D01*
X76371940Y-63073627D01*
X76346281Y-62977865D01*
X76270515Y-62846635D01*
X76163365Y-62739485D01*
X76093500Y-62699148D01*
X76032136Y-62663719D01*
X75958950Y-62644109D01*
X75885766Y-62624500D01*
X75734234Y-62624500D01*
X75587863Y-62663719D01*
X75456635Y-62739485D01*
X75456632Y-62739487D01*
X75349487Y-62846632D01*
X75349481Y-62846641D01*
X75334499Y-62872589D01*
X75283931Y-62920803D01*
X75215324Y-62934024D01*
X75150460Y-62908054D01*
X75112553Y-62858038D01*
X75088954Y-62801064D01*
X75088947Y-62801051D01*
X75001401Y-62670030D01*
X75001398Y-62670026D01*
X74889973Y-62558601D01*
X74889969Y-62558598D01*
X74758948Y-62471052D01*
X74758938Y-62471047D01*
X74630000Y-62417639D01*
X74630000Y-63013011D01*
X74620060Y-62995795D01*
X74564205Y-62939940D01*
X74495796Y-62900444D01*
X74419496Y-62880000D01*
X74340504Y-62880000D01*
X74264204Y-62900444D01*
X74195795Y-62939940D01*
X74139940Y-62995795D01*
X74130000Y-63013011D01*
X74130000Y-62417639D01*
X74129999Y-62417639D01*
X74001061Y-62471047D01*
X74001051Y-62471052D01*
X73870030Y-62558598D01*
X73870026Y-62558601D01*
X73758601Y-62670026D01*
X73758598Y-62670030D01*
X73671052Y-62801051D01*
X73671047Y-62801060D01*
X73610743Y-62946648D01*
X73610741Y-62946656D01*
X73580000Y-63101202D01*
X73580000Y-63480000D01*
X74080000Y-63480000D01*
X74080000Y-63980000D01*
X73580000Y-63980000D01*
X73580000Y-64358797D01*
X73610741Y-64513343D01*
X73610743Y-64513351D01*
X73671047Y-64658939D01*
X73671052Y-64658948D01*
X73758598Y-64789969D01*
X73758601Y-64789973D01*
X73870026Y-64901398D01*
X73870034Y-64901404D01*
X74001047Y-64988944D01*
X74001065Y-64988954D01*
X74129999Y-65042360D01*
X74130000Y-65042360D01*
X74130000Y-64446988D01*
X74139940Y-64464205D01*
X74195795Y-64520060D01*
X74264204Y-64559556D01*
X74340504Y-64580000D01*
X74419496Y-64580000D01*
X74495796Y-64559556D01*
X74564205Y-64520060D01*
X74620060Y-64464205D01*
X74630000Y-64446988D01*
X74630000Y-65042359D01*
X74678547Y-65022251D01*
X74748017Y-65014782D01*
X74810496Y-65046057D01*
X74846148Y-65106146D01*
X74850000Y-65136812D01*
X74850000Y-65414785D01*
X74850002Y-65414808D01*
X74852908Y-65439869D01*
X74852909Y-65439873D01*
X74898211Y-65542474D01*
X74898214Y-65542479D01*
X74977520Y-65621785D01*
X74977525Y-65621788D01*
X75080123Y-65667089D01*
X75105206Y-65669999D01*
X75200000Y-65669998D01*
X75200000Y-64895000D01*
X74844000Y-64895000D01*
X74776961Y-64875315D01*
X74731206Y-64822511D01*
X74720000Y-64771000D01*
X74720000Y-64519000D01*
X74739685Y-64451961D01*
X74792489Y-64406206D01*
X74844000Y-64395000D01*
X75326000Y-64395000D01*
X75393039Y-64414685D01*
X75438794Y-64467489D01*
X75450000Y-64519000D01*
X75450000Y-64645000D01*
X75525501Y-64645000D01*
X75592540Y-64664685D01*
X75638295Y-64717489D01*
X75649501Y-64769000D01*
X75649501Y-65414856D01*
X75649502Y-65414882D01*
X75652413Y-65439987D01*
X75652414Y-65439988D01*
X75652414Y-65439990D01*
X75652415Y-65439991D01*
X75697794Y-65542765D01*
X75701711Y-65546682D01*
X75801102Y-65736473D01*
X75801779Y-65739871D01*
X75804047Y-65742488D01*
X75808560Y-65773877D01*
X75814765Y-65804994D01*
X75813498Y-65808218D01*
X75813991Y-65811646D01*
X75800813Y-65840501D01*
X75789213Y-65870024D01*
X75786405Y-65872050D01*
X75784966Y-65875202D01*
X75736743Y-65909353D01*
X75665027Y-65937634D01*
X75665026Y-65937634D01*
X75549920Y-66024922D01*
X75473488Y-66125712D01*
X75417295Y-66167235D01*
X75347574Y-66171786D01*
X75286460Y-66137920D01*
X75275881Y-66125711D01*
X75199721Y-66025278D01*
X75084729Y-65938077D01*
X74950467Y-65885131D01*
X74866102Y-65875000D01*
X74850000Y-65875000D01*
X74850000Y-67425000D01*
X74866102Y-67425000D01*
X74950467Y-67414868D01*
X74950468Y-67414868D01*
X75084729Y-67361922D01*
X75199721Y-67274721D01*
X75275881Y-67174288D01*
X75332073Y-67132765D01*
X75401794Y-67128213D01*
X75462908Y-67162077D01*
X75473488Y-67174287D01*
X75549920Y-67275077D01*
X75651626Y-67352203D01*
X75693150Y-67408396D01*
X75697701Y-67478117D01*
X75676472Y-67524639D01*
X75632209Y-67584614D01*
X75632206Y-67584619D01*
X75587353Y-67712798D01*
X75587353Y-67712800D01*
X75584500Y-67743230D01*
X75584500Y-69026769D01*
X75587353Y-69057199D01*
X75588964Y-69064573D01*
X75586423Y-69065127D01*
X75589343Y-69122523D01*
X75554604Y-69183144D01*
X75536465Y-69192569D01*
X75537245Y-69193668D01*
X75485000Y-69230737D01*
X75485000Y-70010000D01*
X75834999Y-70010000D01*
X75834999Y-69618303D01*
X75832148Y-69587895D01*
X75831298Y-69585466D01*
X75831200Y-69583552D01*
X75830538Y-69580520D01*
X75831039Y-69580410D01*
X75827733Y-69515688D01*
X75862459Y-69455059D01*
X75924451Y-69422828D01*
X75959916Y-69421048D01*
X75980731Y-69423000D01*
X75980734Y-69423000D01*
X76389265Y-69423000D01*
X76389266Y-69423000D01*
X76409532Y-69421099D01*
X76478116Y-69434436D01*
X76528603Y-69482737D01*
X76544962Y-69550664D01*
X76538158Y-69585500D01*
X76537354Y-69587798D01*
X76537353Y-69587800D01*
X76534500Y-69618230D01*
X76534500Y-70901769D01*
X76537353Y-70932199D01*
X76537353Y-70932201D01*
X76582124Y-71060145D01*
X76582207Y-71060382D01*
X76598996Y-71083130D01*
X76603627Y-71095811D01*
X76612393Y-71106078D01*
X76615379Y-71127987D01*
X76622966Y-71148759D01*
X76620211Y-71163433D01*
X76621830Y-71175308D01*
X76613536Y-71198989D01*
X76611639Y-71209099D01*
X76609334Y-71214049D01*
X76576793Y-71270412D01*
X76568249Y-71302298D01*
X76563685Y-71312102D01*
X76547464Y-71330546D01*
X76534679Y-71351522D01*
X76522175Y-71359304D01*
X76517545Y-71364569D01*
X76510465Y-71366591D01*
X76496764Y-71375119D01*
X76465023Y-71387636D01*
X76349920Y-71474922D01*
X76273488Y-71575712D01*
X76217295Y-71617235D01*
X76147574Y-71621786D01*
X76086460Y-71587920D01*
X76075881Y-71575711D01*
X75999721Y-71475278D01*
X75884729Y-71388077D01*
X75884723Y-71388074D01*
X75771915Y-71343588D01*
X75716771Y-71300682D01*
X75693578Y-71234775D01*
X75709699Y-71166790D01*
X75717635Y-71154600D01*
X75787346Y-71060145D01*
X75832149Y-70932104D01*
X75832149Y-70932100D01*
X75835000Y-70901706D01*
X75835000Y-70510000D01*
X75485000Y-70510000D01*
X75485000Y-71195000D01*
X75526000Y-71195000D01*
X75593039Y-71214685D01*
X75638794Y-71267489D01*
X75650000Y-71319000D01*
X75650000Y-72875000D01*
X75666102Y-72875000D01*
X75750467Y-72864868D01*
X75750468Y-72864868D01*
X75884729Y-72811922D01*
X75999721Y-72724721D01*
X76075881Y-72624288D01*
X76132073Y-72582765D01*
X76201794Y-72578213D01*
X76262908Y-72612077D01*
X76273488Y-72624287D01*
X76349921Y-72725077D01*
X76465023Y-72812363D01*
X76465024Y-72812363D01*
X76465025Y-72812364D01*
X76599410Y-72865359D01*
X76683856Y-72875500D01*
X76683862Y-72875500D01*
X77216138Y-72875500D01*
X77216144Y-72875500D01*
X77300590Y-72865359D01*
X77434975Y-72812364D01*
X77550078Y-72725078D01*
X77637364Y-72609975D01*
X77690359Y-72475590D01*
X77700500Y-72391144D01*
X77700500Y-71808856D01*
X77690359Y-71724410D01*
X77637364Y-71590025D01*
X77637363Y-71590024D01*
X77637363Y-71590023D01*
X77544953Y-71468163D01*
X77545770Y-71467543D01*
X77539973Y-71463306D01*
X77530207Y-71438012D01*
X77517216Y-71414221D01*
X77517158Y-71404216D01*
X77514807Y-71398126D01*
X77516984Y-71373856D01*
X77516922Y-71362895D01*
X77517656Y-71359320D01*
X77535501Y-71292726D01*
X77535501Y-71272514D01*
X77538041Y-71260158D01*
X77548753Y-71239993D01*
X77555186Y-71218087D01*
X77567200Y-71205270D01*
X77570821Y-71198455D01*
X77576659Y-71195179D01*
X77585866Y-71185358D01*
X77607150Y-71169650D01*
X77687793Y-71060382D01*
X77732646Y-70932199D01*
X77732646Y-70932194D01*
X77733724Y-70929115D01*
X77774446Y-70872339D01*
X77839399Y-70846592D01*
X77882856Y-70850294D01*
X77920943Y-70860500D01*
X77920946Y-70860500D01*
X78079055Y-70860500D01*
X78079057Y-70860500D01*
X78231784Y-70819577D01*
X78368716Y-70740520D01*
X78480520Y-70628716D01*
X78559577Y-70491784D01*
X78600500Y-70339057D01*
X78600500Y-70180943D01*
X78559577Y-70028216D01*
X78485211Y-69899409D01*
X78480524Y-69891290D01*
X78480518Y-69891282D01*
X78368717Y-69779481D01*
X78368709Y-69779475D01*
X78231790Y-69700426D01*
X78231786Y-69700424D01*
X78231784Y-69700423D01*
X78079057Y-69659500D01*
X77920943Y-69659500D01*
X77920938Y-69659500D01*
X77882857Y-69669704D01*
X77813007Y-69668040D01*
X77755146Y-69628877D01*
X77733725Y-69590884D01*
X77707413Y-69515688D01*
X77687793Y-69459618D01*
X77607150Y-69350350D01*
X77497882Y-69269707D01*
X77497880Y-69269706D01*
X77369700Y-69224853D01*
X77339270Y-69222000D01*
X77339266Y-69222000D01*
X76930734Y-69222000D01*
X76914852Y-69223489D01*
X76910462Y-69223901D01*
X76841878Y-69210560D01*
X76791394Y-69162257D01*
X76775038Y-69094329D01*
X76781847Y-69059484D01*
X76782646Y-69057199D01*
X76785500Y-69026769D01*
X76785500Y-67743230D01*
X76782646Y-67712803D01*
X76782646Y-67712801D01*
X76764170Y-67660000D01*
X77069378Y-67660000D01*
X77101065Y-67750557D01*
X77101066Y-67750559D01*
X77178934Y-67856065D01*
X77284438Y-67933931D01*
X77408219Y-67977244D01*
X77424999Y-67978817D01*
X77925000Y-67978817D01*
X77941780Y-67977244D01*
X78065561Y-67933931D01*
X78171065Y-67856065D01*
X78248933Y-67750559D01*
X78248934Y-67750557D01*
X78280621Y-67660000D01*
X77925000Y-67660000D01*
X77925000Y-67978817D01*
X77424999Y-67978817D01*
X77425000Y-67978816D01*
X77425000Y-67660000D01*
X77069378Y-67660000D01*
X76764170Y-67660000D01*
X76737793Y-67584618D01*
X76668407Y-67490604D01*
X76644438Y-67424978D01*
X76659753Y-67356808D01*
X76693254Y-67318169D01*
X76750078Y-67275078D01*
X76750349Y-67274721D01*
X76837364Y-67159975D01*
X76837365Y-67159973D01*
X76841522Y-67152581D01*
X76843390Y-67153631D01*
X76879133Y-67107675D01*
X76945036Y-67084468D01*
X77013024Y-67100575D01*
X77052732Y-67136539D01*
X77069378Y-67160000D01*
X78280622Y-67160000D01*
X78280621Y-67159999D01*
X78248934Y-67069442D01*
X78248932Y-67069439D01*
X78178535Y-66974056D01*
X78154563Y-66908427D01*
X78169878Y-66840257D01*
X78178529Y-66826794D01*
X78249381Y-66730794D01*
X78278226Y-66648360D01*
X78292741Y-66606881D01*
X78292741Y-66606879D01*
X78295500Y-66577457D01*
X78295499Y-66202544D01*
X78295499Y-66202535D01*
X78295441Y-66201296D01*
X78295499Y-66201057D01*
X78295499Y-66199646D01*
X78295843Y-66199646D01*
X78311970Y-66133410D01*
X78362578Y-66085237D01*
X78419305Y-66071500D01*
X78450500Y-66071500D01*
X78517539Y-66091185D01*
X78563294Y-66143989D01*
X78574500Y-66195500D01*
X78574500Y-67847330D01*
X78574500Y-67952784D01*
X78588146Y-68003714D01*
X78601793Y-68054646D01*
X78612965Y-68073996D01*
X78654520Y-68145970D01*
X78654522Y-68145972D01*
X79114181Y-68605631D01*
X79147666Y-68666954D01*
X79150500Y-68693312D01*
X79150500Y-73552837D01*
X79130815Y-73619876D01*
X79078011Y-73665631D01*
X79008853Y-73675575D01*
X78945297Y-73646550D01*
X78927234Y-73627149D01*
X78882814Y-73567812D01*
X78882546Y-73567454D01*
X78882544Y-73567453D01*
X78882544Y-73567452D01*
X78767335Y-73481206D01*
X78767328Y-73481202D01*
X78632486Y-73430910D01*
X78632485Y-73430909D01*
X78632483Y-73430909D01*
X78572873Y-73424500D01*
X78572863Y-73424500D01*
X78077129Y-73424500D01*
X78077123Y-73424501D01*
X78017516Y-73430908D01*
X77882671Y-73481202D01*
X77882664Y-73481206D01*
X77767455Y-73567452D01*
X77767452Y-73567455D01*
X77681206Y-73682664D01*
X77681202Y-73682671D01*
X77630908Y-73817517D01*
X77624501Y-73877116D01*
X77624500Y-73877135D01*
X77624500Y-74807744D01*
X77604815Y-74874783D01*
X77588181Y-74895425D01*
X77085426Y-75398181D01*
X77024103Y-75431666D01*
X76997745Y-75434500D01*
X76360339Y-75434500D01*
X76360323Y-75434499D01*
X76352727Y-75434499D01*
X76247274Y-75434499D01*
X76153967Y-75459501D01*
X76153966Y-75459500D01*
X76145414Y-75461792D01*
X76145410Y-75461794D01*
X76054085Y-75514521D01*
X75979518Y-75589089D01*
X74950424Y-76618181D01*
X74889101Y-76651666D01*
X74862744Y-76654500D01*
X74672546Y-76654500D01*
X74643125Y-76657258D01*
X74643115Y-76657260D01*
X74519205Y-76700619D01*
X74519204Y-76700619D01*
X74423633Y-76771154D01*
X74358004Y-76795125D01*
X74289834Y-76779809D01*
X74276367Y-76771154D01*
X74180794Y-76700619D01*
X74056880Y-76657258D01*
X74027461Y-76654500D01*
X73652546Y-76654500D01*
X73623125Y-76657258D01*
X73623115Y-76657260D01*
X73499207Y-76700618D01*
X73393576Y-76778576D01*
X73315618Y-76884207D01*
X73272258Y-77008118D01*
X73272258Y-77008120D01*
X73269500Y-77037538D01*
X73269500Y-77512453D01*
X73272258Y-77541874D01*
X73272260Y-77541884D01*
X73315619Y-77665794D01*
X73315619Y-77665795D01*
X73394209Y-77772281D01*
X73418180Y-77837910D01*
X73402864Y-77906080D01*
X73353124Y-77955148D01*
X73335396Y-77962955D01*
X73299205Y-77975619D01*
X73193576Y-78053576D01*
X73115618Y-78159207D01*
X73072258Y-78283118D01*
X73072258Y-78283120D01*
X73069500Y-78312538D01*
X73069500Y-78787453D01*
X73072258Y-78816874D01*
X73072260Y-78816884D01*
X73109465Y-78923207D01*
X73115619Y-78940794D01*
X73123791Y-78951866D01*
X73147762Y-79017494D01*
X73132447Y-79085665D01*
X73082707Y-79134733D01*
X73024021Y-79149500D01*
X72930173Y-79149500D01*
X72828310Y-79176793D01*
X72736987Y-79229520D01*
X72736984Y-79229522D01*
X72685181Y-79281326D01*
X72623858Y-79314811D01*
X72554166Y-79309827D01*
X72498233Y-79267955D01*
X72473816Y-79202491D01*
X72473500Y-79193645D01*
X72473500Y-76920275D01*
X72473500Y-76920273D01*
X72461235Y-76874500D01*
X72446207Y-76818412D01*
X72393480Y-76727087D01*
X71239237Y-75572844D01*
X73425000Y-75572844D01*
X73431401Y-75632372D01*
X73431403Y-75632379D01*
X73481645Y-75767086D01*
X73481649Y-75767093D01*
X73567809Y-75882187D01*
X73567812Y-75882190D01*
X73682906Y-75968350D01*
X73682913Y-75968354D01*
X73817624Y-76018598D01*
X73875000Y-76024765D01*
X74375000Y-76024765D01*
X74432375Y-76018598D01*
X74567086Y-75968354D01*
X74567093Y-75968350D01*
X74682187Y-75882190D01*
X74682190Y-75882187D01*
X74768350Y-75767093D01*
X74768354Y-75767086D01*
X74818596Y-75632379D01*
X74818598Y-75632372D01*
X74824999Y-75572844D01*
X74825000Y-75572827D01*
X74825000Y-74975000D01*
X74375000Y-74975000D01*
X74375000Y-76024765D01*
X73875000Y-76024765D01*
X73875000Y-74975000D01*
X73425000Y-74975000D01*
X73425000Y-75572844D01*
X71239237Y-75572844D01*
X70915674Y-75249281D01*
X70909987Y-75238866D01*
X70900819Y-75231331D01*
X70893549Y-75208763D01*
X70882189Y-75187958D01*
X70882495Y-75174446D01*
X70879397Y-75164827D01*
X70883328Y-75137726D01*
X70883509Y-75129773D01*
X70884374Y-75126514D01*
X70932171Y-74979409D01*
X70951225Y-74859106D01*
X70960500Y-74800551D01*
X70960500Y-74619448D01*
X70944019Y-74515397D01*
X70932171Y-74440591D01*
X70904191Y-74354476D01*
X70876212Y-74268363D01*
X70876211Y-74268360D01*
X70847740Y-74212484D01*
X70793996Y-74107006D01*
X70731401Y-74020851D01*
X70687558Y-73960505D01*
X70687554Y-73960500D01*
X70604209Y-73877155D01*
X73425000Y-73877155D01*
X73425000Y-74475000D01*
X73875000Y-74475000D01*
X74375000Y-74475000D01*
X74825000Y-74475000D01*
X74825000Y-73877172D01*
X74824999Y-73877155D01*
X74818598Y-73817627D01*
X74818596Y-73817620D01*
X74768354Y-73682913D01*
X74768350Y-73682906D01*
X74682190Y-73567812D01*
X74682187Y-73567809D01*
X74567093Y-73481649D01*
X74567086Y-73481645D01*
X74432380Y-73431403D01*
X74432373Y-73431401D01*
X74375000Y-73425232D01*
X74375000Y-74475000D01*
X73875000Y-74475000D01*
X73875000Y-73425233D01*
X73874999Y-73425232D01*
X73817626Y-73431401D01*
X73817619Y-73431403D01*
X73682913Y-73481645D01*
X73682906Y-73481649D01*
X73567812Y-73567809D01*
X73567809Y-73567812D01*
X73481649Y-73682906D01*
X73481645Y-73682913D01*
X73431403Y-73817620D01*
X73431401Y-73817627D01*
X73425000Y-73877155D01*
X70604209Y-73877155D01*
X70559499Y-73832445D01*
X70559494Y-73832441D01*
X70412997Y-73726006D01*
X70412996Y-73726005D01*
X70412994Y-73726004D01*
X70328424Y-73682913D01*
X70251639Y-73643788D01*
X70251636Y-73643787D01*
X70079410Y-73587829D01*
X69919321Y-73562473D01*
X69856186Y-73532544D01*
X69819255Y-73473232D01*
X69820253Y-73403370D01*
X69858863Y-73345137D01*
X69919321Y-73317527D01*
X69989425Y-73306422D01*
X70079409Y-73292171D01*
X70251639Y-73236211D01*
X70412994Y-73153996D01*
X70559501Y-73047553D01*
X70687553Y-72919501D01*
X70793996Y-72772994D01*
X70876211Y-72611639D01*
X70932171Y-72439409D01*
X70939822Y-72391102D01*
X74650000Y-72391102D01*
X74660131Y-72475467D01*
X74660131Y-72475468D01*
X74713077Y-72609729D01*
X74800278Y-72724721D01*
X74915270Y-72811922D01*
X75049532Y-72864868D01*
X75133898Y-72875000D01*
X75150000Y-72875000D01*
X75150000Y-72350000D01*
X74650000Y-72350000D01*
X74650000Y-72391102D01*
X70939822Y-72391102D01*
X70946332Y-72350000D01*
X70957540Y-72279240D01*
X70960500Y-72260551D01*
X70960500Y-72079448D01*
X70944019Y-71975397D01*
X70932171Y-71900591D01*
X70876211Y-71728361D01*
X70876211Y-71728360D01*
X70819589Y-71617235D01*
X70793996Y-71567006D01*
X70731401Y-71480851D01*
X70687558Y-71420505D01*
X70687554Y-71420500D01*
X70559499Y-71292445D01*
X70559494Y-71292441D01*
X70412997Y-71186006D01*
X70412996Y-71186005D01*
X70412994Y-71186004D01*
X70339897Y-71148759D01*
X70251639Y-71103788D01*
X70251636Y-71103787D01*
X70079410Y-71047829D01*
X69919321Y-71022473D01*
X69856186Y-70992544D01*
X69819255Y-70933232D01*
X69819706Y-70901696D01*
X74635001Y-70901696D01*
X74637851Y-70932106D01*
X74682653Y-71060145D01*
X74763208Y-71169293D01*
X74853122Y-71235652D01*
X74895373Y-71291299D01*
X74900832Y-71360955D01*
X74867765Y-71422505D01*
X74854415Y-71434225D01*
X74800279Y-71475277D01*
X74713077Y-71590270D01*
X74660131Y-71724531D01*
X74660131Y-71724532D01*
X74650000Y-71808897D01*
X74650000Y-71850000D01*
X75150000Y-71850000D01*
X75150000Y-71427500D01*
X75109000Y-71427500D01*
X75041961Y-71407815D01*
X74996206Y-71355011D01*
X74985000Y-71303500D01*
X74985000Y-70510000D01*
X74635001Y-70510000D01*
X74635001Y-70901696D01*
X69819706Y-70901696D01*
X69820253Y-70863370D01*
X69858863Y-70805137D01*
X69919321Y-70777527D01*
X69989425Y-70766422D01*
X70079409Y-70752171D01*
X70251639Y-70696211D01*
X70412994Y-70613996D01*
X70559501Y-70507553D01*
X70687553Y-70379501D01*
X70690935Y-70374847D01*
X70731402Y-70319148D01*
X70793996Y-70232994D01*
X70876211Y-70071639D01*
X70932171Y-69899409D01*
X70951167Y-69779475D01*
X70960500Y-69720551D01*
X70960500Y-69618293D01*
X74635000Y-69618293D01*
X74635000Y-70010000D01*
X74985000Y-70010000D01*
X74985000Y-69230737D01*
X74984999Y-69230737D01*
X74872355Y-69270153D01*
X74763207Y-69350707D01*
X74682653Y-69459854D01*
X74637850Y-69587895D01*
X74637850Y-69587899D01*
X74635000Y-69618293D01*
X70960500Y-69618293D01*
X70960500Y-69539448D01*
X70943867Y-69434436D01*
X70932171Y-69360591D01*
X70902786Y-69270153D01*
X70876212Y-69188363D01*
X70876211Y-69188360D01*
X70828299Y-69094329D01*
X70793996Y-69027006D01*
X70731401Y-68940851D01*
X70687558Y-68880505D01*
X70687554Y-68880500D01*
X70559499Y-68752445D01*
X70559494Y-68752441D01*
X70412997Y-68646006D01*
X70412996Y-68646005D01*
X70412994Y-68646004D01*
X70361300Y-68619664D01*
X70251639Y-68563788D01*
X70251636Y-68563787D01*
X70079410Y-68507829D01*
X69919321Y-68482473D01*
X69856186Y-68452544D01*
X69819255Y-68393232D01*
X69820253Y-68323370D01*
X69858863Y-68265137D01*
X69919321Y-68237527D01*
X69989425Y-68226422D01*
X70079409Y-68212171D01*
X70251639Y-68156211D01*
X70412994Y-68073996D01*
X70559501Y-67967553D01*
X70687553Y-67839501D01*
X70793996Y-67692994D01*
X70876211Y-67531639D01*
X70932171Y-67359409D01*
X70946765Y-67267259D01*
X70960500Y-67180551D01*
X70960500Y-66999448D01*
X70951259Y-66941102D01*
X73850000Y-66941102D01*
X73860131Y-67025467D01*
X73860131Y-67025468D01*
X73913077Y-67159729D01*
X74000278Y-67274721D01*
X74115270Y-67361922D01*
X74249532Y-67414868D01*
X74333898Y-67425000D01*
X74350000Y-67425000D01*
X74350000Y-66900000D01*
X73850000Y-66900000D01*
X73850000Y-66941102D01*
X70951259Y-66941102D01*
X70939686Y-66868036D01*
X70935286Y-66840257D01*
X70932171Y-66820591D01*
X70888609Y-66686518D01*
X70876212Y-66648363D01*
X70876211Y-66648360D01*
X70793996Y-66487006D01*
X70751182Y-66428077D01*
X70751181Y-66428074D01*
X70700921Y-66358897D01*
X73850000Y-66358897D01*
X73850000Y-66400000D01*
X74350000Y-66400000D01*
X74350000Y-65875000D01*
X74333898Y-65875000D01*
X74249532Y-65885131D01*
X74249531Y-65885131D01*
X74115270Y-65938077D01*
X74000278Y-66025278D01*
X73913077Y-66140270D01*
X73860131Y-66274531D01*
X73860131Y-66274532D01*
X73850000Y-66358897D01*
X70700921Y-66358897D01*
X70687558Y-66340505D01*
X70687554Y-66340500D01*
X70559499Y-66212445D01*
X70559494Y-66212441D01*
X70412997Y-66106006D01*
X70412996Y-66106005D01*
X70412994Y-66106004D01*
X70345277Y-66071500D01*
X70251639Y-66023788D01*
X70251636Y-66023787D01*
X70079410Y-65967828D01*
X69917720Y-65942219D01*
X69854585Y-65912289D01*
X69817654Y-65852978D01*
X69818652Y-65783115D01*
X69857262Y-65724883D01*
X69917721Y-65697273D01*
X70079292Y-65671683D01*
X70251444Y-65615748D01*
X70251452Y-65615745D01*
X70412730Y-65533568D01*
X70428532Y-65522085D01*
X70428533Y-65522085D01*
X69939410Y-65032962D01*
X70002993Y-65015925D01*
X70117007Y-64950099D01*
X70210099Y-64857007D01*
X70275925Y-64742993D01*
X70292962Y-64679410D01*
X70782085Y-65168533D01*
X70782085Y-65168532D01*
X70793568Y-65152730D01*
X70875745Y-64991452D01*
X70875748Y-64991444D01*
X70931682Y-64819293D01*
X70960000Y-64640506D01*
X70960000Y-64459493D01*
X70931682Y-64280706D01*
X70875748Y-64108555D01*
X70875747Y-64108552D01*
X70812759Y-63984933D01*
X70793571Y-63947275D01*
X70793566Y-63947267D01*
X70782085Y-63931466D01*
X70292962Y-64420589D01*
X70275925Y-64357007D01*
X70210099Y-64242993D01*
X70117007Y-64149901D01*
X70002993Y-64084075D01*
X69939409Y-64067037D01*
X70428533Y-63577913D01*
X70412730Y-63566431D01*
X70251447Y-63484252D01*
X70251444Y-63484251D01*
X70079293Y-63428317D01*
X69917720Y-63402726D01*
X69854585Y-63372797D01*
X69817654Y-63313485D01*
X69818652Y-63243623D01*
X69857262Y-63185390D01*
X69917720Y-63157780D01*
X69932270Y-63155475D01*
X70079409Y-63132171D01*
X70251639Y-63076211D01*
X70412994Y-62993996D01*
X70495539Y-62934024D01*
X70559495Y-62887558D01*
X70559497Y-62887555D01*
X70559501Y-62887553D01*
X70687553Y-62759501D01*
X70793996Y-62612994D01*
X70876211Y-62451639D01*
X70932171Y-62279409D01*
X70946765Y-62187259D01*
X70960500Y-62100551D01*
X70960500Y-61919448D01*
X70944019Y-61815397D01*
X70932171Y-61740591D01*
X70876211Y-61568361D01*
X70876211Y-61568360D01*
X70829415Y-61476520D01*
X70793996Y-61407006D01*
X70731401Y-61320851D01*
X70687558Y-61260505D01*
X70687554Y-61260500D01*
X70559499Y-61132445D01*
X70559494Y-61132441D01*
X70412997Y-61026006D01*
X70412996Y-61026005D01*
X70412994Y-61026004D01*
X70361300Y-60999664D01*
X70251639Y-60943788D01*
X70251636Y-60943787D01*
X70079410Y-60887829D01*
X69947728Y-60866972D01*
X69884594Y-60837042D01*
X69847663Y-60777731D01*
X69848661Y-60707868D01*
X69887271Y-60649636D01*
X69951235Y-60621522D01*
X69967120Y-60620499D01*
X70704864Y-60620499D01*
X70704879Y-60620497D01*
X70704882Y-60620497D01*
X70729987Y-60617586D01*
X70729988Y-60617585D01*
X70729991Y-60617585D01*
X70832765Y-60572206D01*
X70912206Y-60492765D01*
X70957585Y-60389991D01*
X70960500Y-60364865D01*
X70960499Y-59300000D01*
X70960499Y-58724500D01*
X70980183Y-58657461D01*
X71032987Y-58611706D01*
X71084499Y-58600500D01*
X73619842Y-58600500D01*
X73686881Y-58620185D01*
G37*
%TD.AperFunction*%
%TA.AperFunction,Conductor*%
G36*
X88562084Y-77868532D02*
G01*
X88565772Y-77868242D01*
X88634149Y-77882606D01*
X88683905Y-77931658D01*
X88699500Y-77991860D01*
X88699500Y-78978113D01*
X88679815Y-79045152D01*
X88627011Y-79090907D01*
X88557853Y-79100851D01*
X88494297Y-79071826D01*
X88475182Y-79050998D01*
X88467558Y-79040505D01*
X88467554Y-79040500D01*
X88339499Y-78912445D01*
X88339494Y-78912441D01*
X88192997Y-78806006D01*
X88192996Y-78806005D01*
X88192994Y-78806004D01*
X88128350Y-78773066D01*
X88031639Y-78723788D01*
X88031636Y-78723787D01*
X87859410Y-78667828D01*
X87697720Y-78642219D01*
X87634585Y-78612289D01*
X87597654Y-78552978D01*
X87598652Y-78483115D01*
X87637262Y-78424883D01*
X87697721Y-78397273D01*
X87859292Y-78371683D01*
X88031444Y-78315748D01*
X88031452Y-78315745D01*
X88192730Y-78233568D01*
X88208532Y-78222085D01*
X88208533Y-78222085D01*
X87719410Y-77732962D01*
X87782993Y-77715925D01*
X87897007Y-77650099D01*
X87990099Y-77557007D01*
X88055925Y-77442993D01*
X88072962Y-77379409D01*
X88562084Y-77868532D01*
G37*
%TD.AperFunction*%
%TA.AperFunction,Conductor*%
G36*
X69344075Y-77442993D02*
G01*
X69409901Y-77557007D01*
X69502993Y-77650099D01*
X69617007Y-77715925D01*
X69680590Y-77732962D01*
X69191466Y-78222085D01*
X69191466Y-78222086D01*
X69207267Y-78233566D01*
X69207275Y-78233571D01*
X69368552Y-78315747D01*
X69368555Y-78315748D01*
X69540706Y-78371682D01*
X69702279Y-78397273D01*
X69765413Y-78427202D01*
X69802345Y-78486513D01*
X69801347Y-78556376D01*
X69762738Y-78614609D01*
X69702280Y-78642219D01*
X69540589Y-78667829D01*
X69368363Y-78723787D01*
X69368360Y-78723788D01*
X69207002Y-78806006D01*
X69060505Y-78912441D01*
X69060500Y-78912445D01*
X68932445Y-79040500D01*
X68932441Y-79040505D01*
X68924818Y-79050998D01*
X68869488Y-79093664D01*
X68799875Y-79099643D01*
X68738080Y-79067037D01*
X68703723Y-79006199D01*
X68700500Y-78978113D01*
X68700500Y-77991861D01*
X68720185Y-77924822D01*
X68772989Y-77879067D01*
X68834229Y-77868243D01*
X68837913Y-77868533D01*
X69327037Y-77379409D01*
X69344075Y-77442993D01*
G37*
%TD.AperFunction*%
%TA.AperFunction,Conductor*%
G36*
X68905703Y-75428173D02*
G01*
X68924821Y-75449004D01*
X68932446Y-75459500D01*
X69060500Y-75587554D01*
X69060505Y-75587558D01*
X69122187Y-75632372D01*
X69207006Y-75693996D01*
X69312484Y-75747740D01*
X69368360Y-75776211D01*
X69368363Y-75776212D01*
X69454476Y-75804191D01*
X69540591Y-75832171D01*
X69660038Y-75851089D01*
X69702279Y-75857780D01*
X69765414Y-75887709D01*
X69802345Y-75947021D01*
X69801347Y-76016883D01*
X69762737Y-76075116D01*
X69702279Y-76102726D01*
X69540706Y-76128317D01*
X69368555Y-76184251D01*
X69368547Y-76184254D01*
X69207269Y-76266432D01*
X69191466Y-76277912D01*
X69191466Y-76277913D01*
X69680591Y-76767037D01*
X69617007Y-76784075D01*
X69502993Y-76849901D01*
X69409901Y-76942993D01*
X69344075Y-77057007D01*
X69327037Y-77120590D01*
X68837913Y-76631466D01*
X68834229Y-76631756D01*
X68765852Y-76617392D01*
X68716095Y-76568340D01*
X68700500Y-76508138D01*
X68700500Y-75521886D01*
X68720185Y-75454847D01*
X68772989Y-75409092D01*
X68842147Y-75399148D01*
X68905703Y-75428173D01*
G37*
%TD.AperFunction*%
%TA.AperFunction,Conductor*%
G36*
X88661917Y-75432959D02*
G01*
X88696277Y-75493796D01*
X88699500Y-75521886D01*
X88699500Y-76508138D01*
X88679815Y-76575177D01*
X88627011Y-76620932D01*
X88565773Y-76631756D01*
X88562086Y-76631465D01*
X88072962Y-77120589D01*
X88055925Y-77057007D01*
X87990099Y-76942993D01*
X87897007Y-76849901D01*
X87782993Y-76784075D01*
X87719408Y-76767037D01*
X88208533Y-76277913D01*
X88192730Y-76266431D01*
X88031447Y-76184252D01*
X88031444Y-76184251D01*
X87859293Y-76128317D01*
X87697720Y-76102726D01*
X87634585Y-76072797D01*
X87597654Y-76013485D01*
X87598652Y-75943623D01*
X87637262Y-75885390D01*
X87697720Y-75857780D01*
X87712270Y-75855475D01*
X87859409Y-75832171D01*
X88031639Y-75776211D01*
X88192994Y-75693996D01*
X88339501Y-75587553D01*
X88467553Y-75459501D01*
X88475180Y-75449003D01*
X88530508Y-75406336D01*
X88600121Y-75400355D01*
X88661917Y-75432959D01*
G37*
%TD.AperFunction*%
%TA.AperFunction,Conductor*%
G36*
X69344075Y-64742993D02*
G01*
X69409901Y-64857007D01*
X69502993Y-64950099D01*
X69617007Y-65015925D01*
X69680590Y-65032962D01*
X69191466Y-65522085D01*
X69191466Y-65522086D01*
X69207267Y-65533566D01*
X69207275Y-65533571D01*
X69368552Y-65615747D01*
X69368555Y-65615748D01*
X69540706Y-65671682D01*
X69702279Y-65697273D01*
X69765413Y-65727202D01*
X69802345Y-65786513D01*
X69801347Y-65856376D01*
X69762738Y-65914609D01*
X69702280Y-65942219D01*
X69540589Y-65967829D01*
X69368363Y-66023787D01*
X69368360Y-66023788D01*
X69207002Y-66106006D01*
X69060505Y-66212441D01*
X69060500Y-66212445D01*
X68932445Y-66340500D01*
X68932441Y-66340505D01*
X68924818Y-66350998D01*
X68869488Y-66393664D01*
X68799875Y-66399643D01*
X68738080Y-66367037D01*
X68703723Y-66306199D01*
X68700500Y-66278113D01*
X68700500Y-65291861D01*
X68720185Y-65224822D01*
X68772989Y-65179067D01*
X68834229Y-65168243D01*
X68837913Y-65168533D01*
X69327037Y-64679409D01*
X69344075Y-64742993D01*
G37*
%TD.AperFunction*%
%TA.AperFunction,Conductor*%
G36*
X68905703Y-62728173D02*
G01*
X68924821Y-62749004D01*
X68932446Y-62759500D01*
X69060500Y-62887554D01*
X69060505Y-62887558D01*
X69184801Y-62977863D01*
X69207006Y-62993996D01*
X69269256Y-63025714D01*
X69368360Y-63076211D01*
X69368363Y-63076212D01*
X69430399Y-63096368D01*
X69540591Y-63132171D01*
X69660038Y-63151089D01*
X69702279Y-63157780D01*
X69765414Y-63187709D01*
X69802345Y-63247021D01*
X69801347Y-63316883D01*
X69762737Y-63375116D01*
X69702279Y-63402726D01*
X69540706Y-63428317D01*
X69368555Y-63484251D01*
X69368547Y-63484254D01*
X69207269Y-63566432D01*
X69191466Y-63577912D01*
X69191466Y-63577913D01*
X69680591Y-64067037D01*
X69617007Y-64084075D01*
X69502993Y-64149901D01*
X69409901Y-64242993D01*
X69344075Y-64357007D01*
X69327037Y-64420590D01*
X68837913Y-63931466D01*
X68834229Y-63931756D01*
X68765852Y-63917392D01*
X68716095Y-63868340D01*
X68700500Y-63808138D01*
X68700500Y-62821886D01*
X68720185Y-62754847D01*
X68772989Y-62709092D01*
X68842147Y-62699148D01*
X68905703Y-62728173D01*
G37*
%TD.AperFunction*%
%TA.AperFunction,Conductor*%
G36*
X86382539Y-58620185D02*
G01*
X86428294Y-58672989D01*
X86439500Y-58724500D01*
X86439500Y-60002744D01*
X86419815Y-60069783D01*
X86403181Y-60090425D01*
X86155426Y-60338181D01*
X86094103Y-60371666D01*
X86067745Y-60374500D01*
X83854238Y-60374500D01*
X83787199Y-60354815D01*
X83741444Y-60302011D01*
X83731500Y-60232853D01*
X83739677Y-60203047D01*
X83789256Y-60083351D01*
X83789258Y-60083343D01*
X83819999Y-59928797D01*
X83820000Y-59928794D01*
X83820000Y-59800000D01*
X83320000Y-59800000D01*
X83320000Y-59300000D01*
X83820000Y-59300000D01*
X83820000Y-59171206D01*
X83819999Y-59171202D01*
X83789258Y-59016656D01*
X83789256Y-59016648D01*
X83728952Y-58871060D01*
X83728947Y-58871051D01*
X83677056Y-58793391D01*
X83656178Y-58726714D01*
X83674662Y-58659333D01*
X83726641Y-58612643D01*
X83780158Y-58600500D01*
X86315500Y-58600500D01*
X86382539Y-58620185D01*
G37*
%TD.AperFunction*%
%TD*%
M02*
