%TF.GenerationSoftware,KiCad,Pcbnew,9.0.6*%
%TF.CreationDate,2025-12-04T10:49:31-05:00*%
%TF.ProjectId,Devboard,44657662-6f61-4726-942e-6b696361645f,rev?*%
%TF.SameCoordinates,Original*%
%TF.FileFunction,Copper,L2,Bot*%
%TF.FilePolarity,Positive*%
%FSLAX46Y46*%
G04 Gerber Fmt 4.6, Leading zero omitted, Abs format (unit mm)*
G04 Created by KiCad (PCBNEW 9.0.6) date 2025-12-04 10:49:31*
%MOMM*%
%LPD*%
G01*
G04 APERTURE LIST*
%TA.AperFunction,ComponentPad*%
%ADD10R,1.700000X1.700000*%
%TD*%
%TA.AperFunction,ComponentPad*%
%ADD11C,1.700000*%
%TD*%
%TA.AperFunction,HeatsinkPad*%
%ADD12O,1.000000X1.600000*%
%TD*%
%TA.AperFunction,HeatsinkPad*%
%ADD13O,1.000000X2.100000*%
%TD*%
%TA.AperFunction,ViaPad*%
%ADD14C,0.600000*%
%TD*%
%TA.AperFunction,Conductor*%
%ADD15C,0.200000*%
%TD*%
G04 APERTURE END LIST*
D10*
%TO.P,J4,1,Pin_1*%
%TO.N,SWCLK*%
X76160000Y-107690000D03*
D11*
%TO.P,J4,2,Pin_2*%
%TO.N,GND*%
X78700000Y-107690000D03*
%TO.P,J4,3,Pin_3*%
%TO.N,SWD*%
X81240000Y-107690000D03*
%TD*%
D10*
%TO.P,J3,1,Pin_1*%
%TO.N,VBUS*%
X87590000Y-59470000D03*
D11*
%TO.P,J3,2,Pin_2*%
%TO.N,+3V3*%
X87590000Y-62010000D03*
%TO.P,J3,3,Pin_3*%
%TO.N,GPIO29_ADC3*%
X87590000Y-64550000D03*
%TO.P,J3,4,Pin_4*%
%TO.N,GPIO28_ADC2*%
X87590000Y-67090000D03*
%TO.P,J3,5,Pin_5*%
%TO.N,GPIO27_ADC1*%
X87590000Y-69630000D03*
%TO.P,J3,6,Pin_6*%
%TO.N,GPIO26_ADC0*%
X87590000Y-72170000D03*
%TO.P,J3,7,Pin_7*%
%TO.N,RUN*%
X87590000Y-74710000D03*
%TO.P,J3,8,Pin_8*%
%TO.N,GND*%
X87590000Y-77250000D03*
%TO.P,J3,9,Pin_9*%
%TO.N,GPIO25*%
X87590000Y-79790000D03*
%TO.P,J3,10,Pin_10*%
%TO.N,GPIO24*%
X87590000Y-82330000D03*
%TO.P,J3,11,Pin_11*%
%TO.N,GPIO23*%
X87590000Y-84870000D03*
%TO.P,J3,12,Pin_12*%
%TO.N,GPIO22*%
X87590000Y-87410000D03*
%TO.P,J3,13,Pin_13*%
%TO.N,GND*%
X87590000Y-89950000D03*
%TO.P,J3,14,Pin_14*%
%TO.N,GPIO21*%
X87590000Y-92490000D03*
%TO.P,J3,15,Pin_15*%
%TO.N,GPIO20*%
X87590000Y-95030000D03*
%TO.P,J3,16,Pin_16*%
%TO.N,GPIO19*%
X87590000Y-97570000D03*
%TO.P,J3,17,Pin_17*%
%TO.N,GPIO18*%
X87590000Y-100110000D03*
%TO.P,J3,18,Pin_18*%
%TO.N,GND*%
X87590000Y-102650000D03*
%TO.P,J3,19,Pin_19*%
%TO.N,GPIO17*%
X87590000Y-105190000D03*
%TO.P,J3,20,Pin_20*%
%TO.N,GPIO16*%
X87590000Y-107730000D03*
%TD*%
D10*
%TO.P,J2,1,Pin_1*%
%TO.N,GPIO0*%
X69810000Y-59470000D03*
D11*
%TO.P,J2,2,Pin_2*%
%TO.N,GPIO1*%
X69810000Y-62010000D03*
%TO.P,J2,3,Pin_3*%
%TO.N,GND*%
X69810000Y-64550000D03*
%TO.P,J2,4,Pin_4*%
%TO.N,GPIO2*%
X69810000Y-67090000D03*
%TO.P,J2,5,Pin_5*%
%TO.N,GPIO3*%
X69810000Y-69630000D03*
%TO.P,J2,6,Pin_6*%
%TO.N,GPIO4*%
X69810000Y-72170000D03*
%TO.P,J2,7,Pin_7*%
%TO.N,GPIO5*%
X69810000Y-74710000D03*
%TO.P,J2,8,Pin_8*%
%TO.N,GND*%
X69810000Y-77250000D03*
%TO.P,J2,9,Pin_9*%
%TO.N,GPIO6*%
X69810000Y-79790000D03*
%TO.P,J2,10,Pin_10*%
%TO.N,GPIO7*%
X69810000Y-82330000D03*
%TO.P,J2,11,Pin_11*%
%TO.N,GPIO8*%
X69810000Y-84870000D03*
%TO.P,J2,12,Pin_12*%
%TO.N,GPIO9*%
X69810000Y-87410000D03*
%TO.P,J2,13,Pin_13*%
%TO.N,GND*%
X69810000Y-89950000D03*
%TO.P,J2,14,Pin_14*%
%TO.N,GPIO10*%
X69810000Y-92490000D03*
%TO.P,J2,15,Pin_15*%
%TO.N,GPIO11*%
X69810000Y-95030000D03*
%TO.P,J2,16,Pin_16*%
%TO.N,GPIO12*%
X69810000Y-97570000D03*
%TO.P,J2,17,Pin_17*%
%TO.N,GPIO13*%
X69810000Y-100110000D03*
%TO.P,J2,18,Pin_18*%
%TO.N,GND*%
X69810000Y-102650000D03*
%TO.P,J2,19,Pin_19*%
%TO.N,GPIO14*%
X69810000Y-105190000D03*
%TO.P,J2,20,Pin_20*%
%TO.N,GPIO15*%
X69810000Y-107730000D03*
%TD*%
D12*
%TO.P,J1,S1,SHIELD*%
%TO.N,GND*%
X74380000Y-59550000D03*
D13*
X74380000Y-63730000D03*
D12*
X83020000Y-59550000D03*
D13*
X83020000Y-63730000D03*
%TD*%
D14*
%TO.N,GND*%
X75795000Y-78550000D03*
X77025000Y-77225000D03*
X79450000Y-78050000D03*
X85725000Y-89975000D03*
X88325000Y-78475000D03*
%TO.N,RUN*%
X80339010Y-90100999D03*
%TO.N,+1V1*%
X78437500Y-81187500D03*
X80335206Y-85131745D03*
X79500000Y-90101000D03*
%TO.N,GND*%
X70655000Y-76405000D03*
X70625000Y-78475000D03*
X69100000Y-78500000D03*
X69100000Y-76050000D03*
X71375000Y-74925000D03*
X74537500Y-81162500D03*
X81700000Y-71075000D03*
X84650000Y-63625000D03*
X78950000Y-68725000D03*
X74375000Y-71000000D03*
X77900000Y-72175000D03*
X84350000Y-79950000D03*
X80250000Y-101400000D03*
X80300000Y-99850000D03*
X74225000Y-83150000D03*
X76850000Y-95100000D03*
X86350000Y-78425000D03*
X84925000Y-59675000D03*
X81875000Y-99825000D03*
X81850000Y-101450000D03*
X72200000Y-88800000D03*
X75583450Y-97701000D03*
X75200000Y-95420000D03*
X77650000Y-79275000D03*
X77850000Y-85625000D03*
X80775000Y-87700000D03*
X79300000Y-85600000D03*
X76800000Y-86650000D03*
X77700000Y-90100000D03*
X77100000Y-93650000D03*
%TO.N,GPIO28_ADC2*%
X81175000Y-85400000D03*
%TO.N,GPIO29_ADC3*%
X83575000Y-79611765D03*
X83575000Y-85600000D03*
%TO.N,GPIO16*%
X81202401Y-90096128D03*
%TO.N,RUN*%
X86500000Y-75800000D03*
%TO.N,GPIO0*%
X74325000Y-85019023D03*
%TO.N,GPIO1*%
X72751000Y-83350000D03*
%TO.N,GPIO2*%
X72673000Y-85076735D03*
%TO.N,GPIO3*%
X72673000Y-85950000D03*
%TO.N,GPIO4*%
X72673000Y-86800000D03*
%TO.N,GPIO8*%
X76201120Y-90102138D03*
%TO.N,+3V3*%
X78550000Y-78000000D03*
X79178223Y-80803404D03*
X79100000Y-83807289D03*
X78000000Y-70260000D03*
X81962500Y-83237500D03*
%TD*%
D15*
%TO.N,RUN*%
X82975000Y-87741470D02*
X81491470Y-89225000D01*
X81491470Y-89225000D02*
X81215009Y-89225000D01*
X86500000Y-75800000D02*
X82975000Y-79325000D01*
X82975000Y-79325000D02*
X82975000Y-87741470D01*
X81215009Y-89225000D02*
X80339010Y-90100999D01*
%TO.N,GPIO16*%
X81200000Y-103100000D02*
X85830000Y-107730000D01*
X81202401Y-90096128D02*
X81200000Y-90098529D01*
X81200000Y-90098529D02*
X81200000Y-103100000D01*
X85830000Y-107730000D02*
X87590000Y-107730000D01*
%TO.N,+1V1*%
X79300000Y-86824870D02*
X80335206Y-85789664D01*
X79502945Y-90090071D02*
X79300000Y-89887126D01*
X79500000Y-90101000D02*
X79502945Y-90098055D01*
X80335206Y-85789664D02*
X80335206Y-85131745D01*
X79502945Y-90098055D02*
X79502945Y-90090071D01*
X79300000Y-89887126D02*
X79300000Y-86824870D01*
%TO.N,GPIO8*%
X73938376Y-88998376D02*
X69810000Y-84870000D01*
X75097358Y-88998376D02*
X73938376Y-88998376D01*
X76201120Y-90102138D02*
X75097358Y-88998376D01*
%TO.N,+1V1*%
X78437500Y-83994732D02*
X78437500Y-81187500D01*
X80202461Y-84999000D02*
X79441768Y-84999000D01*
X79441768Y-84999000D02*
X78437500Y-83994732D01*
X80335206Y-85131745D02*
X80202461Y-84999000D01*
%TO.N,GND*%
X70655000Y-76405000D02*
X71375000Y-75685000D01*
X71375000Y-75685000D02*
X71375000Y-74925000D01*
X69810000Y-77250000D02*
X70655000Y-76405000D01*
%TO.N,GPIO4*%
X71348000Y-82768857D02*
X71975000Y-82141857D01*
X71348000Y-83931143D02*
X71348000Y-82768857D01*
X71975000Y-82141857D02*
X71975000Y-74335000D01*
X71698000Y-84281143D02*
X71348000Y-83931143D01*
X71698000Y-84634692D02*
X71698000Y-84281143D01*
X71671000Y-85491778D02*
X71671000Y-84661692D01*
X71774000Y-85618100D02*
X71774000Y-85594778D01*
X71671000Y-84661692D02*
X71698000Y-84634692D01*
X71925000Y-85769100D02*
X71774000Y-85618100D01*
X72307100Y-86800000D02*
X71925000Y-86417900D01*
X71975000Y-74335000D02*
X69810000Y-72170000D01*
X72673000Y-86800000D02*
X72307100Y-86800000D01*
X71925000Y-86417900D02*
X71925000Y-85769100D01*
X71774000Y-85594778D02*
X71671000Y-85491778D01*
%TO.N,GPIO3*%
X72376000Y-72196000D02*
X69810000Y-69630000D01*
X72376000Y-82307957D02*
X72376000Y-72196000D01*
X71749000Y-82934957D02*
X72376000Y-82307957D01*
X71749000Y-83765043D02*
X71749000Y-82934957D01*
X72099000Y-84800792D02*
X72099000Y-84115043D01*
X72072000Y-84827792D02*
X72099000Y-84800792D01*
X72175000Y-85428678D02*
X72072000Y-85325678D01*
X72072000Y-85325678D02*
X72072000Y-84827792D01*
X72175000Y-85452000D02*
X72175000Y-85428678D01*
X72099000Y-84115043D02*
X71749000Y-83765043D01*
X72673000Y-85950000D02*
X72175000Y-85452000D01*
%TO.N,GPIO2*%
X72777000Y-70057000D02*
X69810000Y-67090000D01*
X72777000Y-82474057D02*
X72777000Y-70057000D01*
X72150000Y-83598943D02*
X72150000Y-83101057D01*
X72500000Y-83948943D02*
X72150000Y-83598943D01*
X72500000Y-84903735D02*
X72500000Y-83948943D01*
X72150000Y-83101057D02*
X72777000Y-82474057D01*
X72673000Y-85076735D02*
X72500000Y-84903735D01*
%TO.N,GPIO1*%
X73178000Y-65378000D02*
X69810000Y-62010000D01*
X73178000Y-82923000D02*
X73178000Y-65378000D01*
X72751000Y-83350000D02*
X73178000Y-82923000D01*
%TO.N,GPIO29_ADC3*%
X83650000Y-85675000D02*
X83575000Y-85600000D01*
X84000000Y-85675000D02*
X83650000Y-85675000D01*
X84550000Y-85125000D02*
X84000000Y-85675000D01*
X83575000Y-81375000D02*
X84550000Y-82350000D01*
X84550000Y-82350000D02*
X84550000Y-85125000D01*
X83575000Y-79611765D02*
X83575000Y-81375000D01*
%TO.N,+3V3*%
X81962500Y-83237500D02*
X80450000Y-81725000D01*
X80450000Y-81725000D02*
X79100000Y-81725000D01*
X78550000Y-71050000D02*
X79340000Y-70260000D01*
X78550000Y-71075000D02*
X78550000Y-71050000D01*
X78550000Y-71075000D02*
X78550000Y-80175181D01*
%TO.N,GPIO28_ADC2*%
X82574000Y-83826000D02*
X82574000Y-72106000D01*
X81175000Y-85225000D02*
X82574000Y-83826000D01*
X81175000Y-85400000D02*
X81175000Y-85225000D01*
X82574000Y-72106000D02*
X87590000Y-67090000D01*
%TO.N,GPIO0*%
X73579000Y-63239000D02*
X69810000Y-59470000D01*
X74325000Y-85019023D02*
X73579000Y-84273023D01*
X73579000Y-84273023D02*
X73579000Y-63239000D01*
%TO.N,+3V3*%
X79100000Y-83807289D02*
X79100000Y-81725000D01*
X78550000Y-80175181D02*
X79178223Y-80803404D01*
X78550000Y-70260000D02*
X79340000Y-70260000D01*
X79100000Y-80881627D02*
X79178223Y-80803404D01*
X79100000Y-81123970D02*
X79100000Y-80881627D01*
X78000000Y-70260000D02*
X78550000Y-70260000D01*
X79340000Y-70260000D02*
X87590000Y-62010000D01*
X79299485Y-80924485D02*
X79299485Y-80858455D01*
X79100000Y-81725000D02*
X79100000Y-81123970D01*
X78000000Y-70500000D02*
X78000000Y-70260000D01*
X78550000Y-71050000D02*
X78000000Y-70500000D01*
%TD*%
%TA.AperFunction,Conductor*%
%TO.N,GND*%
G36*
X73686881Y-58620185D02*
G01*
X73732636Y-58672989D01*
X73742580Y-58742147D01*
X73722944Y-58793391D01*
X73671052Y-58871051D01*
X73671047Y-58871060D01*
X73610743Y-59016648D01*
X73610741Y-59016656D01*
X73580000Y-59171202D01*
X73580000Y-59300000D01*
X74080000Y-59300000D01*
X74080000Y-59800000D01*
X73580000Y-59800000D01*
X73580000Y-59928797D01*
X73610741Y-60083343D01*
X73610743Y-60083351D01*
X73671047Y-60228939D01*
X73671052Y-60228948D01*
X73758598Y-60359969D01*
X73758601Y-60359973D01*
X73870026Y-60471398D01*
X73870034Y-60471404D01*
X74001047Y-60558944D01*
X74001065Y-60558954D01*
X74129999Y-60612360D01*
X74130000Y-60612360D01*
X74130000Y-60016988D01*
X74139940Y-60034205D01*
X74195795Y-60090060D01*
X74264204Y-60129556D01*
X74340504Y-60150000D01*
X74419496Y-60150000D01*
X74495796Y-60129556D01*
X74564205Y-60090060D01*
X74620060Y-60034205D01*
X74630000Y-60016988D01*
X74630000Y-60612360D01*
X74758934Y-60558954D01*
X74758952Y-60558944D01*
X74889965Y-60471404D01*
X74889973Y-60471398D01*
X75001398Y-60359973D01*
X75001401Y-60359969D01*
X75088947Y-60228948D01*
X75088952Y-60228939D01*
X75149256Y-60083351D01*
X75149258Y-60083343D01*
X75179999Y-59928797D01*
X75180000Y-59928794D01*
X75180000Y-59800000D01*
X74680000Y-59800000D01*
X74680000Y-59300000D01*
X75180000Y-59300000D01*
X75180000Y-59171206D01*
X75179999Y-59171202D01*
X75149258Y-59016656D01*
X75149256Y-59016648D01*
X75088952Y-58871060D01*
X75088947Y-58871051D01*
X75037056Y-58793391D01*
X75016178Y-58726714D01*
X75034662Y-58659333D01*
X75086641Y-58612643D01*
X75140158Y-58600500D01*
X82259842Y-58600500D01*
X82326881Y-58620185D01*
X82372636Y-58672989D01*
X82382580Y-58742147D01*
X82362944Y-58793391D01*
X82311052Y-58871051D01*
X82311047Y-58871060D01*
X82250743Y-59016648D01*
X82250741Y-59016656D01*
X82220000Y-59171202D01*
X82220000Y-59300000D01*
X82720000Y-59300000D01*
X82720000Y-59800000D01*
X82220000Y-59800000D01*
X82220000Y-59928797D01*
X82250741Y-60083343D01*
X82250743Y-60083351D01*
X82311047Y-60228939D01*
X82311052Y-60228948D01*
X82398598Y-60359969D01*
X82398601Y-60359973D01*
X82510026Y-60471398D01*
X82510034Y-60471404D01*
X82641047Y-60558944D01*
X82641065Y-60558954D01*
X82769999Y-60612360D01*
X82770000Y-60612360D01*
X82770000Y-60016988D01*
X82779940Y-60034205D01*
X82835795Y-60090060D01*
X82904204Y-60129556D01*
X82980504Y-60150000D01*
X83059496Y-60150000D01*
X83135796Y-60129556D01*
X83204205Y-60090060D01*
X83260060Y-60034205D01*
X83270000Y-60016988D01*
X83270000Y-60612360D01*
X83398934Y-60558954D01*
X83398952Y-60558944D01*
X83529965Y-60471404D01*
X83529973Y-60471398D01*
X83641398Y-60359973D01*
X83641401Y-60359969D01*
X83728947Y-60228948D01*
X83728952Y-60228939D01*
X83789256Y-60083351D01*
X83789258Y-60083343D01*
X83819999Y-59928797D01*
X83820000Y-59928794D01*
X83820000Y-59800000D01*
X83320000Y-59800000D01*
X83320000Y-59300000D01*
X83820000Y-59300000D01*
X83820000Y-59171206D01*
X83819999Y-59171202D01*
X83789258Y-59016656D01*
X83789256Y-59016648D01*
X83728952Y-58871060D01*
X83728947Y-58871051D01*
X83677056Y-58793391D01*
X83656178Y-58726714D01*
X83674662Y-58659333D01*
X83726641Y-58612643D01*
X83780158Y-58600500D01*
X86315500Y-58600500D01*
X86382539Y-58620185D01*
X86428294Y-58672989D01*
X86439500Y-58724500D01*
X86439500Y-60364856D01*
X86439502Y-60364882D01*
X86442413Y-60389987D01*
X86442415Y-60389991D01*
X86487793Y-60492764D01*
X86487794Y-60492765D01*
X86567235Y-60572206D01*
X86670009Y-60617585D01*
X86695135Y-60620500D01*
X87432873Y-60620499D01*
X87499910Y-60640183D01*
X87545665Y-60692987D01*
X87555609Y-60762146D01*
X87526584Y-60825702D01*
X87467806Y-60863476D01*
X87452270Y-60866972D01*
X87320589Y-60887829D01*
X87148363Y-60943787D01*
X87148360Y-60943788D01*
X86987002Y-61026006D01*
X86840505Y-61132441D01*
X86840500Y-61132445D01*
X86712445Y-61260500D01*
X86712441Y-61260505D01*
X86606006Y-61407002D01*
X86523788Y-61568360D01*
X86523787Y-61568363D01*
X86467829Y-61740589D01*
X86439500Y-61919448D01*
X86439500Y-62100551D01*
X86467829Y-62279410D01*
X86514575Y-62423281D01*
X86516570Y-62493122D01*
X86484325Y-62549280D01*
X79210426Y-69823181D01*
X79149103Y-69856666D01*
X79122745Y-69859500D01*
X78500098Y-69859500D01*
X78433059Y-69839815D01*
X78412417Y-69823181D01*
X78368717Y-69779481D01*
X78368709Y-69779475D01*
X78231790Y-69700426D01*
X78231786Y-69700424D01*
X78231784Y-69700423D01*
X78079057Y-69659500D01*
X77920943Y-69659500D01*
X77768216Y-69700423D01*
X77768209Y-69700426D01*
X77631290Y-69779475D01*
X77631282Y-69779481D01*
X77519481Y-69891282D01*
X77519475Y-69891290D01*
X77440426Y-70028209D01*
X77440423Y-70028216D01*
X77399500Y-70180943D01*
X77399500Y-70339057D01*
X77410337Y-70379499D01*
X77440423Y-70491783D01*
X77440426Y-70491790D01*
X77519475Y-70628709D01*
X77519479Y-70628714D01*
X77519480Y-70628716D01*
X77631284Y-70740520D01*
X77718515Y-70790882D01*
X77744193Y-70810586D01*
X78113181Y-71179574D01*
X78146666Y-71240897D01*
X78149500Y-71267255D01*
X78149500Y-77499902D01*
X78129815Y-77566941D01*
X78113181Y-77587583D01*
X78069481Y-77631282D01*
X78069475Y-77631290D01*
X77990426Y-77768209D01*
X77990423Y-77768216D01*
X77949500Y-77920943D01*
X77949500Y-78079057D01*
X77987825Y-78222086D01*
X77990423Y-78231783D01*
X77990426Y-78231790D01*
X78069475Y-78368709D01*
X78069481Y-78368717D01*
X78113181Y-78412417D01*
X78146666Y-78473740D01*
X78149500Y-78500098D01*
X78149500Y-80122454D01*
X78149500Y-80227908D01*
X78153766Y-80243830D01*
X78176793Y-80329770D01*
X78203156Y-80375431D01*
X78229520Y-80421094D01*
X78229522Y-80421096D01*
X78237663Y-80429237D01*
X78271148Y-80490560D01*
X78266164Y-80560252D01*
X78224292Y-80616185D01*
X78211982Y-80624305D01*
X78068787Y-80706977D01*
X78068782Y-80706981D01*
X77956981Y-80818782D01*
X77956975Y-80818790D01*
X77877926Y-80955709D01*
X77877923Y-80955716D01*
X77837000Y-81108443D01*
X77837000Y-81266557D01*
X77858289Y-81346006D01*
X77877923Y-81419283D01*
X77877926Y-81419290D01*
X77956975Y-81556209D01*
X77956981Y-81556217D01*
X78000681Y-81599917D01*
X78034166Y-81661240D01*
X78037000Y-81687598D01*
X78037000Y-83942005D01*
X78037000Y-84047459D01*
X78039855Y-84058113D01*
X78064293Y-84149321D01*
X78090656Y-84194982D01*
X78117020Y-84240645D01*
X79121287Y-85244912D01*
X79121288Y-85244913D01*
X79195855Y-85319480D01*
X79287181Y-85372207D01*
X79389041Y-85399500D01*
X79494495Y-85399500D01*
X79724805Y-85399500D01*
X79730530Y-85401181D01*
X79736389Y-85400042D01*
X79763672Y-85410912D01*
X79791844Y-85419185D01*
X79797178Y-85424263D01*
X79801297Y-85425904D01*
X79812679Y-85439018D01*
X79825694Y-85451407D01*
X79829188Y-85456297D01*
X79854686Y-85500461D01*
X79875919Y-85521694D01*
X79881878Y-85530033D01*
X79890126Y-85553740D01*
X79902155Y-85575768D01*
X79901411Y-85586171D01*
X79904839Y-85596023D01*
X79898961Y-85620425D01*
X79897171Y-85645460D01*
X79890390Y-85656010D01*
X79888478Y-85663950D01*
X79880196Y-85671872D01*
X79868670Y-85689807D01*
X78979522Y-86578954D01*
X78979518Y-86578960D01*
X78926792Y-86670282D01*
X78926793Y-86670283D01*
X78899500Y-86772143D01*
X78899500Y-89939857D01*
X78901899Y-89948809D01*
X78901899Y-90012987D01*
X78899500Y-90021938D01*
X78899500Y-90021943D01*
X78899500Y-90180057D01*
X78939118Y-90327911D01*
X78940423Y-90332783D01*
X78940426Y-90332790D01*
X79019475Y-90469709D01*
X79019479Y-90469714D01*
X79019480Y-90469716D01*
X79131284Y-90581520D01*
X79131286Y-90581521D01*
X79131290Y-90581524D01*
X79218126Y-90631658D01*
X79268216Y-90660577D01*
X79420943Y-90701500D01*
X79420945Y-90701500D01*
X79579055Y-90701500D01*
X79579057Y-90701500D01*
X79731784Y-90660577D01*
X79857506Y-90587991D01*
X79925405Y-90571519D01*
X79981503Y-90587990D01*
X80107226Y-90660576D01*
X80259953Y-90701499D01*
X80259955Y-90701499D01*
X80418065Y-90701499D01*
X80418067Y-90701499D01*
X80570794Y-90660576D01*
X80613500Y-90635920D01*
X80681401Y-90619447D01*
X80747427Y-90642300D01*
X80790618Y-90697221D01*
X80799500Y-90743307D01*
X80799500Y-103152726D01*
X80826793Y-103254589D01*
X80834844Y-103268533D01*
X80879520Y-103345913D01*
X85584087Y-108050480D01*
X85675412Y-108103207D01*
X85777273Y-108130500D01*
X86426840Y-108130500D01*
X86493879Y-108150185D01*
X86537325Y-108198205D01*
X86606003Y-108332993D01*
X86656586Y-108402615D01*
X86680065Y-108468422D01*
X86664239Y-108536476D01*
X86614133Y-108585170D01*
X86556267Y-108599500D01*
X82244671Y-108599500D01*
X82177632Y-108579815D01*
X82131877Y-108527011D01*
X82121933Y-108457853D01*
X82144353Y-108402615D01*
X82194935Y-108332993D01*
X82223996Y-108292994D01*
X82306211Y-108131639D01*
X82362171Y-107959409D01*
X82376765Y-107867259D01*
X82390500Y-107780551D01*
X82390500Y-107599448D01*
X82368506Y-107460589D01*
X82362171Y-107420591D01*
X82306273Y-107248552D01*
X82306212Y-107248363D01*
X82306211Y-107248360D01*
X82244375Y-107127002D01*
X82223996Y-107087006D01*
X82169375Y-107011826D01*
X82117558Y-106940505D01*
X82117554Y-106940500D01*
X81989499Y-106812445D01*
X81989494Y-106812441D01*
X81842997Y-106706006D01*
X81842996Y-106706005D01*
X81842994Y-106706004D01*
X81766906Y-106667235D01*
X81681639Y-106623788D01*
X81681636Y-106623787D01*
X81509410Y-106567829D01*
X81330551Y-106539500D01*
X81330546Y-106539500D01*
X81149454Y-106539500D01*
X81149449Y-106539500D01*
X80970589Y-106567829D01*
X80798363Y-106623787D01*
X80798360Y-106623788D01*
X80637002Y-106706006D01*
X80490505Y-106812441D01*
X80490500Y-106812445D01*
X80362445Y-106940500D01*
X80362441Y-106940505D01*
X80256006Y-107087002D01*
X80173788Y-107248360D01*
X80173787Y-107248363D01*
X80117829Y-107420589D01*
X80092219Y-107582280D01*
X80062289Y-107645414D01*
X80002978Y-107682345D01*
X79933115Y-107681347D01*
X79874883Y-107642737D01*
X79847273Y-107582279D01*
X79821682Y-107420706D01*
X79765748Y-107248555D01*
X79765747Y-107248552D01*
X79683571Y-107087275D01*
X79683566Y-107087267D01*
X79672085Y-107071466D01*
X79182962Y-107560589D01*
X79165925Y-107497007D01*
X79100099Y-107382993D01*
X79007007Y-107289901D01*
X78892993Y-107224075D01*
X78829409Y-107207037D01*
X79318533Y-106717913D01*
X79302730Y-106706431D01*
X79141447Y-106624252D01*
X79141444Y-106624251D01*
X78969293Y-106568317D01*
X78790506Y-106540000D01*
X78609494Y-106540000D01*
X78430706Y-106568317D01*
X78258555Y-106624251D01*
X78258547Y-106624254D01*
X78097269Y-106706432D01*
X78081466Y-106717912D01*
X78081466Y-106717913D01*
X78570591Y-107207037D01*
X78507007Y-107224075D01*
X78392993Y-107289901D01*
X78299901Y-107382993D01*
X78234075Y-107497007D01*
X78217037Y-107560590D01*
X77727913Y-107071466D01*
X77727912Y-107071466D01*
X77716432Y-107087269D01*
X77634254Y-107248547D01*
X77634251Y-107248555D01*
X77578317Y-107420706D01*
X77556972Y-107555471D01*
X77527043Y-107618606D01*
X77467731Y-107655537D01*
X77397868Y-107654539D01*
X77339636Y-107615929D01*
X77311522Y-107551965D01*
X77310499Y-107536073D01*
X77310499Y-106795143D01*
X77310499Y-106795136D01*
X77307585Y-106770009D01*
X77262206Y-106667235D01*
X77182765Y-106587794D01*
X77138654Y-106568317D01*
X77079992Y-106542415D01*
X77054865Y-106539500D01*
X75265143Y-106539500D01*
X75265117Y-106539502D01*
X75240012Y-106542413D01*
X75240008Y-106542415D01*
X75137235Y-106587793D01*
X75057794Y-106667234D01*
X75012415Y-106770006D01*
X75012415Y-106770008D01*
X75009502Y-106795122D01*
X75009500Y-106795135D01*
X75009500Y-107682345D01*
X75009501Y-108475500D01*
X74989816Y-108542539D01*
X74937013Y-108588294D01*
X74885501Y-108599500D01*
X70843733Y-108599500D01*
X70776694Y-108579815D01*
X70730939Y-108527011D01*
X70720995Y-108457853D01*
X70743414Y-108402615D01*
X70759805Y-108380053D01*
X70793996Y-108332994D01*
X70876211Y-108171639D01*
X70932171Y-107999409D01*
X70946765Y-107907259D01*
X70960500Y-107820551D01*
X70960500Y-107639448D01*
X70944019Y-107535397D01*
X70932171Y-107460591D01*
X70877777Y-107293181D01*
X70876212Y-107288363D01*
X70876211Y-107288360D01*
X70826093Y-107190000D01*
X70793996Y-107127006D01*
X70765124Y-107087267D01*
X70687558Y-106980505D01*
X70687554Y-106980500D01*
X70559499Y-106852445D01*
X70559494Y-106852441D01*
X70412997Y-106746006D01*
X70412996Y-106746005D01*
X70412994Y-106746004D01*
X70357861Y-106717912D01*
X70251639Y-106663788D01*
X70251636Y-106663787D01*
X70079410Y-106607829D01*
X69919321Y-106582473D01*
X69856186Y-106552544D01*
X69819255Y-106493232D01*
X69820253Y-106423370D01*
X69858863Y-106365137D01*
X69919321Y-106337527D01*
X69989425Y-106326422D01*
X70079409Y-106312171D01*
X70251639Y-106256211D01*
X70412994Y-106173996D01*
X70559501Y-106067553D01*
X70687553Y-105939501D01*
X70793996Y-105792994D01*
X70876211Y-105631639D01*
X70932171Y-105459409D01*
X70946765Y-105367259D01*
X70960500Y-105280551D01*
X70960500Y-105099448D01*
X70944019Y-104995397D01*
X70932171Y-104920591D01*
X70876211Y-104748361D01*
X70876211Y-104748360D01*
X70847740Y-104692484D01*
X70793996Y-104587006D01*
X70731401Y-104500851D01*
X70687558Y-104440505D01*
X70687554Y-104440500D01*
X70559499Y-104312445D01*
X70559494Y-104312441D01*
X70412997Y-104206006D01*
X70412996Y-104206005D01*
X70412994Y-104206004D01*
X70361300Y-104179664D01*
X70251639Y-104123788D01*
X70251636Y-104123787D01*
X70079410Y-104067828D01*
X69917720Y-104042219D01*
X69854585Y-104012289D01*
X69817654Y-103952978D01*
X69818652Y-103883115D01*
X69857262Y-103824883D01*
X69917721Y-103797273D01*
X70079292Y-103771683D01*
X70251444Y-103715748D01*
X70251452Y-103715745D01*
X70412730Y-103633568D01*
X70428532Y-103622085D01*
X70428533Y-103622085D01*
X69939410Y-103132962D01*
X70002993Y-103115925D01*
X70117007Y-103050099D01*
X70210099Y-102957007D01*
X70275925Y-102842993D01*
X70292962Y-102779410D01*
X70782085Y-103268533D01*
X70782085Y-103268532D01*
X70793568Y-103252730D01*
X70875745Y-103091452D01*
X70875748Y-103091444D01*
X70931682Y-102919293D01*
X70960000Y-102740506D01*
X70960000Y-102559493D01*
X70931682Y-102380706D01*
X70875748Y-102208555D01*
X70875747Y-102208552D01*
X70793571Y-102047275D01*
X70793566Y-102047267D01*
X70782085Y-102031466D01*
X70292962Y-102520589D01*
X70275925Y-102457007D01*
X70210099Y-102342993D01*
X70117007Y-102249901D01*
X70002993Y-102184075D01*
X69939409Y-102167037D01*
X70428533Y-101677913D01*
X70412730Y-101666431D01*
X70251447Y-101584252D01*
X70251444Y-101584251D01*
X70079293Y-101528317D01*
X69917720Y-101502726D01*
X69854585Y-101472797D01*
X69817654Y-101413485D01*
X69818652Y-101343623D01*
X69857262Y-101285390D01*
X69917720Y-101257780D01*
X69932270Y-101255475D01*
X70079409Y-101232171D01*
X70251639Y-101176211D01*
X70412994Y-101093996D01*
X70559501Y-100987553D01*
X70687553Y-100859501D01*
X70793996Y-100712994D01*
X70876211Y-100551639D01*
X70932171Y-100379409D01*
X70946765Y-100287259D01*
X70960500Y-100200551D01*
X70960500Y-100019448D01*
X70944019Y-99915397D01*
X70932171Y-99840591D01*
X70876211Y-99668361D01*
X70876211Y-99668360D01*
X70847740Y-99612484D01*
X70793996Y-99507006D01*
X70731401Y-99420851D01*
X70687558Y-99360505D01*
X70687554Y-99360500D01*
X70559499Y-99232445D01*
X70559494Y-99232441D01*
X70412997Y-99126006D01*
X70412996Y-99126005D01*
X70412994Y-99126004D01*
X70361300Y-99099664D01*
X70251639Y-99043788D01*
X70251636Y-99043787D01*
X70079410Y-98987829D01*
X69919321Y-98962473D01*
X69856186Y-98932544D01*
X69819255Y-98873232D01*
X69820253Y-98803370D01*
X69858863Y-98745137D01*
X69919321Y-98717527D01*
X69989425Y-98706422D01*
X70079409Y-98692171D01*
X70251639Y-98636211D01*
X70412994Y-98553996D01*
X70559501Y-98447553D01*
X70687553Y-98319501D01*
X70793996Y-98172994D01*
X70876211Y-98011639D01*
X70932171Y-97839409D01*
X70946765Y-97747259D01*
X70960500Y-97660551D01*
X70960500Y-97479448D01*
X70944019Y-97375397D01*
X70932171Y-97300591D01*
X70876211Y-97128361D01*
X70876211Y-97128360D01*
X70847740Y-97072484D01*
X70793996Y-96967006D01*
X70731401Y-96880851D01*
X70687558Y-96820505D01*
X70687554Y-96820500D01*
X70559499Y-96692445D01*
X70559494Y-96692441D01*
X70412997Y-96586006D01*
X70412996Y-96586005D01*
X70412994Y-96586004D01*
X70361300Y-96559664D01*
X70251639Y-96503788D01*
X70251636Y-96503787D01*
X70079410Y-96447829D01*
X69919321Y-96422473D01*
X69856186Y-96392544D01*
X69819255Y-96333232D01*
X69820253Y-96263370D01*
X69858863Y-96205137D01*
X69919321Y-96177527D01*
X69989425Y-96166422D01*
X70079409Y-96152171D01*
X70251639Y-96096211D01*
X70412994Y-96013996D01*
X70559501Y-95907553D01*
X70687553Y-95779501D01*
X70793996Y-95632994D01*
X70876211Y-95471639D01*
X70932171Y-95299409D01*
X70946765Y-95207259D01*
X70960500Y-95120551D01*
X70960500Y-94939448D01*
X70944019Y-94835397D01*
X70932171Y-94760591D01*
X70876211Y-94588361D01*
X70876211Y-94588360D01*
X70847740Y-94532484D01*
X70793996Y-94427006D01*
X70731401Y-94340851D01*
X70687558Y-94280505D01*
X70687554Y-94280500D01*
X70559499Y-94152445D01*
X70559494Y-94152441D01*
X70412997Y-94046006D01*
X70412996Y-94046005D01*
X70412994Y-94046004D01*
X70361300Y-94019664D01*
X70251639Y-93963788D01*
X70251636Y-93963787D01*
X70079410Y-93907829D01*
X69919321Y-93882473D01*
X69856186Y-93852544D01*
X69819255Y-93793232D01*
X69820253Y-93723370D01*
X69858863Y-93665137D01*
X69919321Y-93637527D01*
X69989425Y-93626422D01*
X70079409Y-93612171D01*
X70251639Y-93556211D01*
X70412994Y-93473996D01*
X70559501Y-93367553D01*
X70687553Y-93239501D01*
X70793996Y-93092994D01*
X70876211Y-92931639D01*
X70932171Y-92759409D01*
X70946765Y-92667259D01*
X70960500Y-92580551D01*
X70960500Y-92399448D01*
X70944019Y-92295397D01*
X70932171Y-92220591D01*
X70876211Y-92048361D01*
X70876211Y-92048360D01*
X70847740Y-91992484D01*
X70793996Y-91887006D01*
X70731401Y-91800851D01*
X70687558Y-91740505D01*
X70687554Y-91740500D01*
X70559499Y-91612445D01*
X70559494Y-91612441D01*
X70412997Y-91506006D01*
X70412996Y-91506005D01*
X70412994Y-91506004D01*
X70361300Y-91479664D01*
X70251639Y-91423788D01*
X70251636Y-91423787D01*
X70079410Y-91367828D01*
X69917720Y-91342219D01*
X69854585Y-91312289D01*
X69817654Y-91252978D01*
X69818652Y-91183115D01*
X69857262Y-91124883D01*
X69917721Y-91097273D01*
X70079292Y-91071683D01*
X70251444Y-91015748D01*
X70251452Y-91015745D01*
X70412730Y-90933568D01*
X70428532Y-90922085D01*
X70428533Y-90922085D01*
X69939410Y-90432962D01*
X70002993Y-90415925D01*
X70117007Y-90350099D01*
X70210099Y-90257007D01*
X70275925Y-90142993D01*
X70292962Y-90079410D01*
X70782085Y-90568533D01*
X70782085Y-90568532D01*
X70793568Y-90552730D01*
X70875745Y-90391452D01*
X70875748Y-90391444D01*
X70931682Y-90219293D01*
X70960000Y-90040506D01*
X70960000Y-89859493D01*
X70931682Y-89680706D01*
X70875748Y-89508555D01*
X70875747Y-89508552D01*
X70793571Y-89347275D01*
X70793566Y-89347267D01*
X70782085Y-89331466D01*
X70292962Y-89820589D01*
X70275925Y-89757007D01*
X70210099Y-89642993D01*
X70117007Y-89549901D01*
X70002993Y-89484075D01*
X69939409Y-89467037D01*
X70428533Y-88977913D01*
X70412730Y-88966431D01*
X70251447Y-88884252D01*
X70251444Y-88884251D01*
X70079293Y-88828317D01*
X69917720Y-88802726D01*
X69854585Y-88772797D01*
X69817654Y-88713485D01*
X69818652Y-88643623D01*
X69857262Y-88585390D01*
X69917720Y-88557780D01*
X69932270Y-88555475D01*
X70079409Y-88532171D01*
X70251639Y-88476211D01*
X70412994Y-88393996D01*
X70559501Y-88287553D01*
X70687553Y-88159501D01*
X70793996Y-88012994D01*
X70876211Y-87851639D01*
X70932171Y-87679409D01*
X70948616Y-87575577D01*
X70960500Y-87500551D01*
X70960500Y-87319448D01*
X70944019Y-87215397D01*
X70932171Y-87140591D01*
X70876211Y-86968361D01*
X70876211Y-86968360D01*
X70830708Y-86879057D01*
X70793996Y-86807006D01*
X70768667Y-86772143D01*
X70698638Y-86675755D01*
X70698634Y-86675751D01*
X70687553Y-86660499D01*
X70559501Y-86532447D01*
X70544248Y-86521365D01*
X70544244Y-86521361D01*
X70412997Y-86426006D01*
X70412996Y-86426005D01*
X70412994Y-86426004D01*
X70361300Y-86399664D01*
X70251639Y-86343788D01*
X70251636Y-86343787D01*
X70079410Y-86287829D01*
X69919321Y-86262473D01*
X69856186Y-86232544D01*
X69819255Y-86173232D01*
X69820253Y-86103370D01*
X69858863Y-86045137D01*
X69919321Y-86017527D01*
X70079409Y-85992171D01*
X70130182Y-85975674D01*
X70223284Y-85945423D01*
X70293123Y-85943429D01*
X70349281Y-85975674D01*
X73617895Y-89244288D01*
X73617896Y-89244289D01*
X73692463Y-89318856D01*
X73783789Y-89371583D01*
X73885649Y-89398876D01*
X74880103Y-89398876D01*
X74947142Y-89418561D01*
X74967784Y-89435195D01*
X75564301Y-90031712D01*
X75597786Y-90093035D01*
X75600620Y-90119393D01*
X75600620Y-90181195D01*
X75639935Y-90327918D01*
X75641543Y-90333921D01*
X75641546Y-90333928D01*
X75720595Y-90470847D01*
X75720599Y-90470852D01*
X75720600Y-90470854D01*
X75832404Y-90582658D01*
X75832406Y-90582659D01*
X75832410Y-90582662D01*
X75917275Y-90631658D01*
X75969336Y-90661715D01*
X76122063Y-90702638D01*
X76122065Y-90702638D01*
X76280175Y-90702638D01*
X76280177Y-90702638D01*
X76432904Y-90661715D01*
X76569836Y-90582658D01*
X76681640Y-90470854D01*
X76760697Y-90333922D01*
X76801620Y-90181195D01*
X76801620Y-90023081D01*
X76760697Y-89870354D01*
X76757227Y-89864344D01*
X76681644Y-89733428D01*
X76681638Y-89733420D01*
X76569837Y-89621619D01*
X76569829Y-89621613D01*
X76432910Y-89542564D01*
X76432906Y-89542562D01*
X76432904Y-89542561D01*
X76280177Y-89501638D01*
X76280176Y-89501638D01*
X76218375Y-89501638D01*
X76151336Y-89481953D01*
X76130694Y-89465319D01*
X75343273Y-88677898D01*
X75343271Y-88677896D01*
X75297608Y-88651532D01*
X75251947Y-88625169D01*
X75201015Y-88611522D01*
X75150085Y-88597876D01*
X75150084Y-88597876D01*
X74155631Y-88597876D01*
X74088592Y-88578191D01*
X74067950Y-88561557D01*
X72994445Y-87488052D01*
X72960960Y-87426729D01*
X72965944Y-87357037D01*
X73007816Y-87301104D01*
X73020123Y-87292986D01*
X73041716Y-87280520D01*
X73153520Y-87168716D01*
X73232577Y-87031784D01*
X73273500Y-86879057D01*
X73273500Y-86720943D01*
X73232577Y-86568216D01*
X73156819Y-86436999D01*
X73140347Y-86369099D01*
X73156820Y-86313000D01*
X73171352Y-86287829D01*
X73232577Y-86181784D01*
X73273500Y-86029057D01*
X73273500Y-85870943D01*
X73232577Y-85718216D01*
X73169524Y-85609004D01*
X73150104Y-85575367D01*
X73133631Y-85507466D01*
X73150104Y-85451367D01*
X73164805Y-85425904D01*
X73232577Y-85308519D01*
X73273500Y-85155792D01*
X73273500Y-84997678D01*
X73232577Y-84844951D01*
X73222728Y-84827892D01*
X73206256Y-84759994D01*
X73229108Y-84693967D01*
X73284029Y-84650777D01*
X73353583Y-84644135D01*
X73415685Y-84676151D01*
X73417797Y-84678213D01*
X73688181Y-84948597D01*
X73721666Y-85009920D01*
X73724500Y-85036278D01*
X73724500Y-85098080D01*
X73763844Y-85244912D01*
X73765423Y-85250806D01*
X73765426Y-85250813D01*
X73844475Y-85387732D01*
X73844479Y-85387737D01*
X73844480Y-85387739D01*
X73956284Y-85499543D01*
X73956286Y-85499544D01*
X73956290Y-85499547D01*
X74087616Y-85575367D01*
X74093216Y-85578600D01*
X74245943Y-85619523D01*
X74245945Y-85619523D01*
X74404055Y-85619523D01*
X74404057Y-85619523D01*
X74556784Y-85578600D01*
X74693716Y-85499543D01*
X74805520Y-85387739D01*
X74884577Y-85250807D01*
X74925500Y-85098080D01*
X74925500Y-84939966D01*
X74884577Y-84787239D01*
X74878802Y-84777236D01*
X74805524Y-84650313D01*
X74805518Y-84650305D01*
X74693717Y-84538504D01*
X74693709Y-84538498D01*
X74556790Y-84459449D01*
X74556786Y-84459447D01*
X74556784Y-84459446D01*
X74404057Y-84418523D01*
X74404056Y-84418523D01*
X74342255Y-84418523D01*
X74275216Y-84398838D01*
X74254574Y-84382204D01*
X74015819Y-84143449D01*
X73982334Y-84082126D01*
X73979500Y-84055768D01*
X73979500Y-65165599D01*
X73999185Y-65098560D01*
X74051989Y-65052805D01*
X74121147Y-65042861D01*
X74126891Y-65044437D01*
X74130000Y-65042360D01*
X74130000Y-64446988D01*
X74139940Y-64464205D01*
X74195795Y-64520060D01*
X74264204Y-64559556D01*
X74340504Y-64580000D01*
X74419496Y-64580000D01*
X74495796Y-64559556D01*
X74564205Y-64520060D01*
X74620060Y-64464205D01*
X74630000Y-64446988D01*
X74630000Y-65042360D01*
X74758934Y-64988954D01*
X74758952Y-64988944D01*
X74889965Y-64901404D01*
X74889973Y-64901398D01*
X75001398Y-64789973D01*
X75001401Y-64789969D01*
X75088947Y-64658948D01*
X75088952Y-64658939D01*
X75149256Y-64513351D01*
X75149258Y-64513343D01*
X75179999Y-64358797D01*
X75180000Y-64358794D01*
X75180000Y-63980000D01*
X74680000Y-63980000D01*
X74680000Y-63480000D01*
X75231362Y-63480000D01*
X75231362Y-63481884D01*
X75277320Y-63485163D01*
X75333261Y-63527024D01*
X75341391Y-63539346D01*
X75349485Y-63553365D01*
X75456635Y-63660515D01*
X75587865Y-63736281D01*
X75734234Y-63775500D01*
X75734236Y-63775500D01*
X75885764Y-63775500D01*
X75885766Y-63775500D01*
X76032135Y-63736281D01*
X76163365Y-63660515D01*
X76270515Y-63553365D01*
X76346281Y-63422135D01*
X76385500Y-63275766D01*
X76385500Y-63124234D01*
X81014500Y-63124234D01*
X81014500Y-63275765D01*
X81053719Y-63422136D01*
X81089315Y-63483789D01*
X81129485Y-63553365D01*
X81236635Y-63660515D01*
X81367865Y-63736281D01*
X81514234Y-63775500D01*
X81514236Y-63775500D01*
X81665764Y-63775500D01*
X81665766Y-63775500D01*
X81812135Y-63736281D01*
X81943365Y-63660515D01*
X82050515Y-63553365D01*
X82058604Y-63539353D01*
X82109168Y-63491139D01*
X82177774Y-63477914D01*
X82182985Y-63480000D01*
X82720000Y-63480000D01*
X82720000Y-63980000D01*
X82220000Y-63980000D01*
X82220000Y-64358797D01*
X82250741Y-64513343D01*
X82250743Y-64513351D01*
X82311047Y-64658939D01*
X82311052Y-64658948D01*
X82398598Y-64789969D01*
X82398601Y-64789973D01*
X82510026Y-64901398D01*
X82510034Y-64901404D01*
X82641047Y-64988944D01*
X82641065Y-64988954D01*
X82769999Y-65042360D01*
X82770000Y-65042360D01*
X82770000Y-64446988D01*
X82779940Y-64464205D01*
X82835795Y-64520060D01*
X82904204Y-64559556D01*
X82980504Y-64580000D01*
X83059496Y-64580000D01*
X83135796Y-64559556D01*
X83204205Y-64520060D01*
X83260060Y-64464205D01*
X83270000Y-64446988D01*
X83270000Y-65042360D01*
X83398934Y-64988954D01*
X83398952Y-64988944D01*
X83529965Y-64901404D01*
X83529973Y-64901398D01*
X83641398Y-64789973D01*
X83641401Y-64789969D01*
X83728947Y-64658948D01*
X83728952Y-64658939D01*
X83789256Y-64513351D01*
X83789258Y-64513343D01*
X83819999Y-64358797D01*
X83820000Y-64358794D01*
X83820000Y-63980000D01*
X83320000Y-63980000D01*
X83320000Y-63480000D01*
X83820000Y-63480000D01*
X83820000Y-63101206D01*
X83819999Y-63101202D01*
X83789258Y-62946656D01*
X83789256Y-62946648D01*
X83728952Y-62801060D01*
X83728947Y-62801051D01*
X83641401Y-62670030D01*
X83641398Y-62670026D01*
X83529973Y-62558601D01*
X83529969Y-62558598D01*
X83398948Y-62471052D01*
X83398938Y-62471047D01*
X83270000Y-62417639D01*
X83270000Y-63013011D01*
X83260060Y-62995795D01*
X83204205Y-62939940D01*
X83135796Y-62900444D01*
X83059496Y-62880000D01*
X82980504Y-62880000D01*
X82904204Y-62900444D01*
X82835795Y-62939940D01*
X82779940Y-62995795D01*
X82770000Y-63013011D01*
X82770000Y-62417639D01*
X82769999Y-62417639D01*
X82641061Y-62471047D01*
X82641051Y-62471052D01*
X82510030Y-62558598D01*
X82510026Y-62558601D01*
X82398601Y-62670026D01*
X82398598Y-62670030D01*
X82311052Y-62801051D01*
X82311049Y-62801057D01*
X82287446Y-62858040D01*
X82243604Y-62912443D01*
X82177310Y-62934507D01*
X82109611Y-62917227D01*
X82065498Y-62872587D01*
X82050515Y-62846635D01*
X81943365Y-62739485D01*
X81872102Y-62698341D01*
X81812136Y-62663719D01*
X81738950Y-62644109D01*
X81665766Y-62624500D01*
X81514234Y-62624500D01*
X81367863Y-62663719D01*
X81236635Y-62739485D01*
X81236632Y-62739487D01*
X81129487Y-62846632D01*
X81129485Y-62846635D01*
X81053719Y-62977863D01*
X81014500Y-63124234D01*
X76385500Y-63124234D01*
X76346281Y-62977865D01*
X76270515Y-62846635D01*
X76163365Y-62739485D01*
X76092102Y-62698341D01*
X76032136Y-62663719D01*
X75958950Y-62644109D01*
X75885766Y-62624500D01*
X75734234Y-62624500D01*
X75587863Y-62663719D01*
X75456635Y-62739485D01*
X75456632Y-62739487D01*
X75349487Y-62846632D01*
X75349481Y-62846641D01*
X75334499Y-62872589D01*
X75283931Y-62920803D01*
X75215324Y-62934024D01*
X75150460Y-62908054D01*
X75112553Y-62858038D01*
X75088954Y-62801064D01*
X75088947Y-62801051D01*
X75001401Y-62670030D01*
X75001398Y-62670026D01*
X74889973Y-62558601D01*
X74889969Y-62558598D01*
X74758948Y-62471052D01*
X74758938Y-62471047D01*
X74630000Y-62417639D01*
X74630000Y-63013011D01*
X74620060Y-62995795D01*
X74564205Y-62939940D01*
X74495796Y-62900444D01*
X74419496Y-62880000D01*
X74340504Y-62880000D01*
X74264204Y-62900444D01*
X74195795Y-62939940D01*
X74139940Y-62995795D01*
X74130000Y-63013011D01*
X74130000Y-62417639D01*
X74129999Y-62417639D01*
X74001061Y-62471047D01*
X74001051Y-62471052D01*
X73870030Y-62558598D01*
X73755191Y-62673437D01*
X73693868Y-62706921D01*
X73624176Y-62701937D01*
X73579829Y-62673436D01*
X70996818Y-60090425D01*
X70963333Y-60029102D01*
X70960499Y-60002744D01*
X70960499Y-58724500D01*
X70980184Y-58657461D01*
X71032988Y-58611706D01*
X71084499Y-58600500D01*
X73619842Y-58600500D01*
X73686881Y-58620185D01*
G37*
%TD.AperFunction*%
%TA.AperFunction,Conductor*%
G36*
X86609395Y-76420185D02*
G01*
X86655150Y-76472989D01*
X86665094Y-76542147D01*
X86642674Y-76597385D01*
X86606434Y-76647265D01*
X86524252Y-76808552D01*
X86524251Y-76808555D01*
X86468317Y-76980706D01*
X86440000Y-77159493D01*
X86440000Y-77340506D01*
X86468317Y-77519293D01*
X86524251Y-77691444D01*
X86524252Y-77691447D01*
X86606431Y-77852730D01*
X86617913Y-77868532D01*
X86617913Y-77868533D01*
X87107037Y-77379408D01*
X87124075Y-77442993D01*
X87189901Y-77557007D01*
X87282993Y-77650099D01*
X87397007Y-77715925D01*
X87460590Y-77732962D01*
X86971466Y-78222085D01*
X86971466Y-78222086D01*
X86987267Y-78233566D01*
X86987275Y-78233571D01*
X87148552Y-78315747D01*
X87148555Y-78315748D01*
X87320706Y-78371682D01*
X87482279Y-78397273D01*
X87545413Y-78427202D01*
X87582345Y-78486513D01*
X87581347Y-78556376D01*
X87542738Y-78614609D01*
X87482280Y-78642219D01*
X87320589Y-78667829D01*
X87148363Y-78723787D01*
X87148360Y-78723788D01*
X86987002Y-78806006D01*
X86840505Y-78912441D01*
X86840500Y-78912445D01*
X86712445Y-79040500D01*
X86712441Y-79040505D01*
X86606006Y-79187002D01*
X86523788Y-79348360D01*
X86523787Y-79348363D01*
X86467829Y-79520589D01*
X86439500Y-79699448D01*
X86439500Y-79880551D01*
X86467829Y-80059410D01*
X86523787Y-80231636D01*
X86523788Y-80231639D01*
X86606006Y-80392997D01*
X86712441Y-80539494D01*
X86712445Y-80539499D01*
X86840500Y-80667554D01*
X86840505Y-80667558D01*
X86918672Y-80724349D01*
X86987006Y-80773996D01*
X87074903Y-80818782D01*
X87148360Y-80856211D01*
X87148363Y-80856212D01*
X87234476Y-80884191D01*
X87320591Y-80912171D01*
X87393639Y-80923740D01*
X87480678Y-80937527D01*
X87543813Y-80967456D01*
X87580744Y-81026768D01*
X87579746Y-81096631D01*
X87541136Y-81154863D01*
X87480678Y-81182473D01*
X87320589Y-81207829D01*
X87148363Y-81263787D01*
X87148360Y-81263788D01*
X86987002Y-81346006D01*
X86840505Y-81452441D01*
X86840500Y-81452445D01*
X86712445Y-81580500D01*
X86712441Y-81580505D01*
X86606006Y-81727002D01*
X86523788Y-81888360D01*
X86523787Y-81888363D01*
X86467829Y-82060589D01*
X86439500Y-82239448D01*
X86439500Y-82420551D01*
X86467829Y-82599410D01*
X86523787Y-82771636D01*
X86523788Y-82771639D01*
X86606006Y-82932997D01*
X86712441Y-83079494D01*
X86712445Y-83079499D01*
X86840500Y-83207554D01*
X86840505Y-83207558D01*
X86869188Y-83228397D01*
X86987006Y-83313996D01*
X87092484Y-83367740D01*
X87148360Y-83396211D01*
X87148363Y-83396212D01*
X87234476Y-83424191D01*
X87320591Y-83452171D01*
X87393639Y-83463740D01*
X87480678Y-83477527D01*
X87543813Y-83507456D01*
X87580744Y-83566768D01*
X87579746Y-83636631D01*
X87541136Y-83694863D01*
X87480678Y-83722473D01*
X87320589Y-83747829D01*
X87148363Y-83803787D01*
X87148360Y-83803788D01*
X86987002Y-83886006D01*
X86840505Y-83992441D01*
X86840500Y-83992445D01*
X86712445Y-84120500D01*
X86712441Y-84120505D01*
X86606006Y-84267002D01*
X86523788Y-84428360D01*
X86523787Y-84428363D01*
X86467829Y-84600589D01*
X86439500Y-84779448D01*
X86439500Y-84960551D01*
X86467829Y-85139410D01*
X86523787Y-85311636D01*
X86523788Y-85311639D01*
X86568556Y-85399499D01*
X86594984Y-85451367D01*
X86606006Y-85472997D01*
X86712441Y-85619494D01*
X86712445Y-85619499D01*
X86840500Y-85747554D01*
X86840505Y-85747558D01*
X86968287Y-85840396D01*
X86987006Y-85853996D01*
X87077335Y-85900021D01*
X87148360Y-85936211D01*
X87148363Y-85936212D01*
X87220263Y-85959573D01*
X87320591Y-85992171D01*
X87393639Y-86003740D01*
X87480678Y-86017527D01*
X87543813Y-86047456D01*
X87580744Y-86106768D01*
X87579746Y-86176631D01*
X87541136Y-86234863D01*
X87480678Y-86262473D01*
X87320589Y-86287829D01*
X87148363Y-86343787D01*
X87148360Y-86343788D01*
X86987002Y-86426006D01*
X86840505Y-86532441D01*
X86840500Y-86532445D01*
X86712445Y-86660500D01*
X86712441Y-86660505D01*
X86606006Y-86807002D01*
X86523788Y-86968360D01*
X86523787Y-86968363D01*
X86467829Y-87140589D01*
X86439500Y-87319448D01*
X86439500Y-87500551D01*
X86467829Y-87679410D01*
X86523787Y-87851636D01*
X86523788Y-87851639D01*
X86546422Y-87896059D01*
X86592955Y-87987385D01*
X86606006Y-88012997D01*
X86712441Y-88159494D01*
X86712445Y-88159499D01*
X86840500Y-88287554D01*
X86840505Y-88287558D01*
X86968287Y-88380396D01*
X86987006Y-88393996D01*
X87092484Y-88447740D01*
X87148360Y-88476211D01*
X87148363Y-88476212D01*
X87234476Y-88504191D01*
X87320591Y-88532171D01*
X87440038Y-88551089D01*
X87482279Y-88557780D01*
X87545414Y-88587709D01*
X87582345Y-88647021D01*
X87581347Y-88716883D01*
X87542737Y-88775116D01*
X87482279Y-88802726D01*
X87320706Y-88828317D01*
X87148555Y-88884251D01*
X87148547Y-88884254D01*
X86987269Y-88966432D01*
X86971466Y-88977912D01*
X86971466Y-88977913D01*
X87460591Y-89467037D01*
X87397007Y-89484075D01*
X87282993Y-89549901D01*
X87189901Y-89642993D01*
X87124075Y-89757007D01*
X87107037Y-89820590D01*
X86617913Y-89331466D01*
X86617912Y-89331466D01*
X86606432Y-89347269D01*
X86524254Y-89508547D01*
X86524251Y-89508555D01*
X86468317Y-89680706D01*
X86440000Y-89859493D01*
X86440000Y-90040506D01*
X86468317Y-90219293D01*
X86524251Y-90391444D01*
X86524252Y-90391447D01*
X86606431Y-90552730D01*
X86617913Y-90568532D01*
X86617913Y-90568533D01*
X87107037Y-90079409D01*
X87124075Y-90142993D01*
X87189901Y-90257007D01*
X87282993Y-90350099D01*
X87397007Y-90415925D01*
X87460590Y-90432962D01*
X86971466Y-90922085D01*
X86971466Y-90922086D01*
X86987267Y-90933566D01*
X86987275Y-90933571D01*
X87148552Y-91015747D01*
X87148555Y-91015748D01*
X87320706Y-91071682D01*
X87482279Y-91097273D01*
X87545413Y-91127202D01*
X87582345Y-91186513D01*
X87581347Y-91256376D01*
X87542738Y-91314609D01*
X87482280Y-91342219D01*
X87320589Y-91367829D01*
X87148363Y-91423787D01*
X87148360Y-91423788D01*
X86987002Y-91506006D01*
X86840505Y-91612441D01*
X86840500Y-91612445D01*
X86712445Y-91740500D01*
X86712441Y-91740505D01*
X86606006Y-91887002D01*
X86523788Y-92048360D01*
X86523787Y-92048363D01*
X86467829Y-92220589D01*
X86439500Y-92399448D01*
X86439500Y-92580551D01*
X86467829Y-92759410D01*
X86523787Y-92931636D01*
X86523788Y-92931639D01*
X86606006Y-93092997D01*
X86712441Y-93239494D01*
X86712445Y-93239499D01*
X86840500Y-93367554D01*
X86840505Y-93367558D01*
X86968287Y-93460396D01*
X86987006Y-93473996D01*
X87092484Y-93527740D01*
X87148360Y-93556211D01*
X87148363Y-93556212D01*
X87234476Y-93584191D01*
X87320591Y-93612171D01*
X87393639Y-93623740D01*
X87480678Y-93637527D01*
X87543813Y-93667456D01*
X87580744Y-93726768D01*
X87579746Y-93796631D01*
X87541136Y-93854863D01*
X87480678Y-93882473D01*
X87320589Y-93907829D01*
X87148363Y-93963787D01*
X87148360Y-93963788D01*
X86987002Y-94046006D01*
X86840505Y-94152441D01*
X86840500Y-94152445D01*
X86712445Y-94280500D01*
X86712441Y-94280505D01*
X86606006Y-94427002D01*
X86523788Y-94588360D01*
X86523787Y-94588363D01*
X86467829Y-94760589D01*
X86439500Y-94939448D01*
X86439500Y-95120551D01*
X86467829Y-95299410D01*
X86523787Y-95471636D01*
X86523788Y-95471639D01*
X86606006Y-95632997D01*
X86712441Y-95779494D01*
X86712445Y-95779499D01*
X86840500Y-95907554D01*
X86840505Y-95907558D01*
X86968287Y-96000396D01*
X86987006Y-96013996D01*
X87092484Y-96067740D01*
X87148360Y-96096211D01*
X87148363Y-96096212D01*
X87234476Y-96124191D01*
X87320591Y-96152171D01*
X87393639Y-96163740D01*
X87480678Y-96177527D01*
X87543813Y-96207456D01*
X87580744Y-96266768D01*
X87579746Y-96336631D01*
X87541136Y-96394863D01*
X87480678Y-96422473D01*
X87320589Y-96447829D01*
X87148363Y-96503787D01*
X87148360Y-96503788D01*
X86987002Y-96586006D01*
X86840505Y-96692441D01*
X86840500Y-96692445D01*
X86712445Y-96820500D01*
X86712441Y-96820505D01*
X86606006Y-96967002D01*
X86523788Y-97128360D01*
X86523787Y-97128363D01*
X86467829Y-97300589D01*
X86439500Y-97479448D01*
X86439500Y-97660551D01*
X86467829Y-97839410D01*
X86523787Y-98011636D01*
X86523788Y-98011639D01*
X86606006Y-98172997D01*
X86712441Y-98319494D01*
X86712445Y-98319499D01*
X86840500Y-98447554D01*
X86840505Y-98447558D01*
X86968287Y-98540396D01*
X86987006Y-98553996D01*
X87092484Y-98607740D01*
X87148360Y-98636211D01*
X87148363Y-98636212D01*
X87234476Y-98664191D01*
X87320591Y-98692171D01*
X87393639Y-98703740D01*
X87480678Y-98717527D01*
X87543813Y-98747456D01*
X87580744Y-98806768D01*
X87579746Y-98876631D01*
X87541136Y-98934863D01*
X87480678Y-98962473D01*
X87320589Y-98987829D01*
X87148363Y-99043787D01*
X87148360Y-99043788D01*
X86987002Y-99126006D01*
X86840505Y-99232441D01*
X86840500Y-99232445D01*
X86712445Y-99360500D01*
X86712441Y-99360505D01*
X86606006Y-99507002D01*
X86523788Y-99668360D01*
X86523787Y-99668363D01*
X86467829Y-99840589D01*
X86439500Y-100019448D01*
X86439500Y-100200551D01*
X86467829Y-100379410D01*
X86523787Y-100551636D01*
X86523788Y-100551639D01*
X86606006Y-100712997D01*
X86712441Y-100859494D01*
X86712445Y-100859499D01*
X86840500Y-100987554D01*
X86840505Y-100987558D01*
X86968287Y-101080396D01*
X86987006Y-101093996D01*
X87092484Y-101147740D01*
X87148360Y-101176211D01*
X87148363Y-101176212D01*
X87234476Y-101204191D01*
X87320591Y-101232171D01*
X87440038Y-101251089D01*
X87482279Y-101257780D01*
X87545414Y-101287709D01*
X87582345Y-101347021D01*
X87581347Y-101416883D01*
X87542737Y-101475116D01*
X87482279Y-101502726D01*
X87320706Y-101528317D01*
X87148555Y-101584251D01*
X87148547Y-101584254D01*
X86987269Y-101666432D01*
X86971466Y-101677912D01*
X86971466Y-101677913D01*
X87460591Y-102167037D01*
X87397007Y-102184075D01*
X87282993Y-102249901D01*
X87189901Y-102342993D01*
X87124075Y-102457007D01*
X87107037Y-102520590D01*
X86617913Y-102031466D01*
X86617912Y-102031466D01*
X86606432Y-102047269D01*
X86524254Y-102208547D01*
X86524251Y-102208555D01*
X86468317Y-102380706D01*
X86440000Y-102559493D01*
X86440000Y-102740506D01*
X86468317Y-102919293D01*
X86524251Y-103091444D01*
X86524252Y-103091447D01*
X86606431Y-103252730D01*
X86617913Y-103268532D01*
X86617913Y-103268533D01*
X87107037Y-102779409D01*
X87124075Y-102842993D01*
X87189901Y-102957007D01*
X87282993Y-103050099D01*
X87397007Y-103115925D01*
X87460590Y-103132962D01*
X86971466Y-103622085D01*
X86971466Y-103622086D01*
X86987267Y-103633566D01*
X86987275Y-103633571D01*
X87148552Y-103715747D01*
X87148555Y-103715748D01*
X87320706Y-103771682D01*
X87482279Y-103797273D01*
X87545413Y-103827202D01*
X87582345Y-103886513D01*
X87581347Y-103956376D01*
X87542738Y-104014609D01*
X87482280Y-104042219D01*
X87320589Y-104067829D01*
X87148363Y-104123787D01*
X87148360Y-104123788D01*
X86987002Y-104206006D01*
X86840505Y-104312441D01*
X86840500Y-104312445D01*
X86712445Y-104440500D01*
X86712441Y-104440505D01*
X86606006Y-104587002D01*
X86523788Y-104748360D01*
X86523787Y-104748363D01*
X86467829Y-104920589D01*
X86439500Y-105099448D01*
X86439500Y-105280551D01*
X86467829Y-105459410D01*
X86523787Y-105631636D01*
X86523788Y-105631639D01*
X86606006Y-105792997D01*
X86712441Y-105939494D01*
X86712445Y-105939499D01*
X86840500Y-106067554D01*
X86840505Y-106067558D01*
X86968287Y-106160396D01*
X86987006Y-106173996D01*
X87092484Y-106227740D01*
X87148360Y-106256211D01*
X87148363Y-106256212D01*
X87234476Y-106284191D01*
X87320591Y-106312171D01*
X87393639Y-106323740D01*
X87480678Y-106337527D01*
X87543813Y-106367456D01*
X87580744Y-106426768D01*
X87579746Y-106496631D01*
X87541136Y-106554863D01*
X87480678Y-106582473D01*
X87320589Y-106607829D01*
X87148363Y-106663787D01*
X87148360Y-106663788D01*
X86987002Y-106746006D01*
X86840505Y-106852441D01*
X86840500Y-106852445D01*
X86712445Y-106980500D01*
X86712441Y-106980505D01*
X86606006Y-107127002D01*
X86537325Y-107261795D01*
X86489350Y-107312591D01*
X86426840Y-107329500D01*
X86047255Y-107329500D01*
X85980216Y-107309815D01*
X85959574Y-107293181D01*
X81636819Y-102970426D01*
X81603334Y-102909103D01*
X81600500Y-102882745D01*
X81600500Y-90598627D01*
X81620185Y-90531588D01*
X81636819Y-90510946D01*
X81682921Y-90464844D01*
X81761978Y-90327912D01*
X81802901Y-90175185D01*
X81802901Y-90017071D01*
X81761978Y-89864344D01*
X81682921Y-89727412D01*
X81681917Y-89726408D01*
X81676982Y-89716857D01*
X81670864Y-89685277D01*
X81663284Y-89654031D01*
X81664263Y-89651201D01*
X81663694Y-89648262D01*
X81675618Y-89618396D01*
X81686137Y-89588005D01*
X81688671Y-89585701D01*
X81689601Y-89583373D01*
X81697188Y-89577959D01*
X81725144Y-89552545D01*
X81737383Y-89545480D01*
X83295480Y-87987383D01*
X83348207Y-87896058D01*
X83375500Y-87794197D01*
X83375500Y-87688743D01*
X83375500Y-86324500D01*
X83395185Y-86257461D01*
X83447989Y-86211706D01*
X83499500Y-86200500D01*
X83654055Y-86200500D01*
X83654057Y-86200500D01*
X83806784Y-86159577D01*
X83923638Y-86092112D01*
X83985637Y-86075500D01*
X84052725Y-86075500D01*
X84052727Y-86075500D01*
X84154588Y-86048207D01*
X84245913Y-85995480D01*
X84870480Y-85370913D01*
X84887929Y-85340691D01*
X84923207Y-85279587D01*
X84950500Y-85177727D01*
X84950500Y-82297273D01*
X84923207Y-82195413D01*
X84923207Y-82195412D01*
X84870480Y-82104087D01*
X84011819Y-81245426D01*
X83978334Y-81184103D01*
X83975500Y-81157745D01*
X83975500Y-80111863D01*
X83995185Y-80044824D01*
X84011819Y-80024182D01*
X84026713Y-80009288D01*
X84055520Y-79980481D01*
X84134577Y-79843549D01*
X84175500Y-79690822D01*
X84175500Y-79532708D01*
X84134577Y-79379981D01*
X84116323Y-79348363D01*
X84055524Y-79243055D01*
X84055518Y-79243047D01*
X83943716Y-79131245D01*
X83937874Y-79126762D01*
X83896673Y-79070333D01*
X83892521Y-79000587D01*
X83925681Y-78940710D01*
X86429574Y-76436819D01*
X86456501Y-76422115D01*
X86482320Y-76405523D01*
X86488520Y-76404631D01*
X86490897Y-76403334D01*
X86517255Y-76400500D01*
X86542356Y-76400500D01*
X86609395Y-76420185D01*
G37*
%TD.AperFunction*%
%TA.AperFunction,Conductor*%
G36*
X88562084Y-103268532D02*
G01*
X88565772Y-103268242D01*
X88634149Y-103282606D01*
X88683905Y-103331658D01*
X88699500Y-103391860D01*
X88699500Y-104378113D01*
X88679815Y-104445152D01*
X88627011Y-104490907D01*
X88557853Y-104500851D01*
X88494297Y-104471826D01*
X88475182Y-104450998D01*
X88467558Y-104440505D01*
X88467554Y-104440500D01*
X88339499Y-104312445D01*
X88339494Y-104312441D01*
X88192997Y-104206006D01*
X88192996Y-104206005D01*
X88192994Y-104206004D01*
X88141300Y-104179664D01*
X88031639Y-104123788D01*
X88031636Y-104123787D01*
X87859410Y-104067828D01*
X87697720Y-104042219D01*
X87634585Y-104012289D01*
X87597654Y-103952978D01*
X87598652Y-103883115D01*
X87637262Y-103824883D01*
X87697721Y-103797273D01*
X87859292Y-103771683D01*
X88031444Y-103715748D01*
X88031452Y-103715745D01*
X88192730Y-103633568D01*
X88208532Y-103622085D01*
X88208533Y-103622085D01*
X87719410Y-103132962D01*
X87782993Y-103115925D01*
X87897007Y-103050099D01*
X87990099Y-102957007D01*
X88055925Y-102842993D01*
X88072962Y-102779409D01*
X88562084Y-103268532D01*
G37*
%TD.AperFunction*%
%TA.AperFunction,Conductor*%
G36*
X69344075Y-102842993D02*
G01*
X69409901Y-102957007D01*
X69502993Y-103050099D01*
X69617007Y-103115925D01*
X69680590Y-103132962D01*
X69191466Y-103622085D01*
X69191466Y-103622086D01*
X69207267Y-103633566D01*
X69207275Y-103633571D01*
X69368552Y-103715747D01*
X69368555Y-103715748D01*
X69540706Y-103771682D01*
X69702279Y-103797273D01*
X69765413Y-103827202D01*
X69802345Y-103886513D01*
X69801347Y-103956376D01*
X69762738Y-104014609D01*
X69702280Y-104042219D01*
X69540589Y-104067829D01*
X69368363Y-104123787D01*
X69368360Y-104123788D01*
X69207002Y-104206006D01*
X69060505Y-104312441D01*
X69060500Y-104312445D01*
X68932445Y-104440500D01*
X68932441Y-104440505D01*
X68924818Y-104450998D01*
X68869488Y-104493664D01*
X68799875Y-104499643D01*
X68738080Y-104467037D01*
X68703723Y-104406199D01*
X68700500Y-104378113D01*
X68700500Y-103391861D01*
X68720185Y-103324822D01*
X68772989Y-103279067D01*
X68834229Y-103268243D01*
X68837913Y-103268533D01*
X69327037Y-102779409D01*
X69344075Y-102842993D01*
G37*
%TD.AperFunction*%
%TA.AperFunction,Conductor*%
G36*
X68905703Y-100828173D02*
G01*
X68924821Y-100849004D01*
X68932446Y-100859500D01*
X69060500Y-100987554D01*
X69060505Y-100987558D01*
X69188287Y-101080396D01*
X69207006Y-101093996D01*
X69312484Y-101147740D01*
X69368360Y-101176211D01*
X69368363Y-101176212D01*
X69454476Y-101204191D01*
X69540591Y-101232171D01*
X69660038Y-101251089D01*
X69702279Y-101257780D01*
X69765414Y-101287709D01*
X69802345Y-101347021D01*
X69801347Y-101416883D01*
X69762737Y-101475116D01*
X69702279Y-101502726D01*
X69540706Y-101528317D01*
X69368555Y-101584251D01*
X69368547Y-101584254D01*
X69207269Y-101666432D01*
X69191466Y-101677912D01*
X69191466Y-101677913D01*
X69680591Y-102167037D01*
X69617007Y-102184075D01*
X69502993Y-102249901D01*
X69409901Y-102342993D01*
X69344075Y-102457007D01*
X69327037Y-102520590D01*
X68837913Y-102031466D01*
X68834229Y-102031756D01*
X68765852Y-102017392D01*
X68716095Y-101968340D01*
X68700500Y-101908138D01*
X68700500Y-100921886D01*
X68720185Y-100854847D01*
X68772989Y-100809092D01*
X68842147Y-100799148D01*
X68905703Y-100828173D01*
G37*
%TD.AperFunction*%
%TA.AperFunction,Conductor*%
G36*
X88661917Y-100832959D02*
G01*
X88696277Y-100893796D01*
X88699500Y-100921886D01*
X88699500Y-101908138D01*
X88679815Y-101975177D01*
X88627011Y-102020932D01*
X88565773Y-102031756D01*
X88562086Y-102031465D01*
X88072962Y-102520589D01*
X88055925Y-102457007D01*
X87990099Y-102342993D01*
X87897007Y-102249901D01*
X87782993Y-102184075D01*
X87719409Y-102167037D01*
X88208533Y-101677913D01*
X88192730Y-101666431D01*
X88031447Y-101584252D01*
X88031444Y-101584251D01*
X87859293Y-101528317D01*
X87697720Y-101502726D01*
X87634585Y-101472797D01*
X87597654Y-101413485D01*
X87598652Y-101343623D01*
X87637262Y-101285390D01*
X87697720Y-101257780D01*
X87712270Y-101255475D01*
X87859409Y-101232171D01*
X88031639Y-101176211D01*
X88192994Y-101093996D01*
X88339501Y-100987553D01*
X88467553Y-100859501D01*
X88475180Y-100849003D01*
X88530508Y-100806336D01*
X88600121Y-100800355D01*
X88661917Y-100832959D01*
G37*
%TD.AperFunction*%
%TA.AperFunction,Conductor*%
G36*
X88562084Y-90568532D02*
G01*
X88565772Y-90568242D01*
X88634149Y-90582606D01*
X88683905Y-90631658D01*
X88699500Y-90691860D01*
X88699500Y-91678113D01*
X88679815Y-91745152D01*
X88627011Y-91790907D01*
X88557853Y-91800851D01*
X88494297Y-91771826D01*
X88475182Y-91750998D01*
X88467558Y-91740505D01*
X88467554Y-91740500D01*
X88339499Y-91612445D01*
X88339494Y-91612441D01*
X88192997Y-91506006D01*
X88192996Y-91506005D01*
X88192994Y-91506004D01*
X88141300Y-91479664D01*
X88031639Y-91423788D01*
X88031636Y-91423787D01*
X87859410Y-91367828D01*
X87697720Y-91342219D01*
X87634585Y-91312289D01*
X87597654Y-91252978D01*
X87598652Y-91183115D01*
X87637262Y-91124883D01*
X87697721Y-91097273D01*
X87859292Y-91071683D01*
X88031444Y-91015748D01*
X88031452Y-91015745D01*
X88192730Y-90933568D01*
X88208532Y-90922085D01*
X88208533Y-90922085D01*
X87719410Y-90432962D01*
X87782993Y-90415925D01*
X87897007Y-90350099D01*
X87990099Y-90257007D01*
X88055925Y-90142993D01*
X88072962Y-90079409D01*
X88562084Y-90568532D01*
G37*
%TD.AperFunction*%
%TA.AperFunction,Conductor*%
G36*
X69344075Y-90142993D02*
G01*
X69409901Y-90257007D01*
X69502993Y-90350099D01*
X69617007Y-90415925D01*
X69680590Y-90432962D01*
X69191466Y-90922085D01*
X69191466Y-90922086D01*
X69207267Y-90933566D01*
X69207275Y-90933571D01*
X69368552Y-91015747D01*
X69368555Y-91015748D01*
X69540706Y-91071682D01*
X69702279Y-91097273D01*
X69765413Y-91127202D01*
X69802345Y-91186513D01*
X69801347Y-91256376D01*
X69762738Y-91314609D01*
X69702280Y-91342219D01*
X69540589Y-91367829D01*
X69368363Y-91423787D01*
X69368360Y-91423788D01*
X69207002Y-91506006D01*
X69060505Y-91612441D01*
X69060500Y-91612445D01*
X68932445Y-91740500D01*
X68932441Y-91740505D01*
X68924818Y-91750998D01*
X68869488Y-91793664D01*
X68799875Y-91799643D01*
X68738080Y-91767037D01*
X68703723Y-91706199D01*
X68700500Y-91678113D01*
X68700500Y-90691861D01*
X68720185Y-90624822D01*
X68772989Y-90579067D01*
X68834229Y-90568243D01*
X68837913Y-90568533D01*
X69327037Y-90079409D01*
X69344075Y-90142993D01*
G37*
%TD.AperFunction*%
%TA.AperFunction,Conductor*%
G36*
X68905703Y-88128173D02*
G01*
X68924821Y-88149004D01*
X68932446Y-88159500D01*
X69060500Y-88287554D01*
X69060505Y-88287558D01*
X69188287Y-88380396D01*
X69207006Y-88393996D01*
X69312484Y-88447740D01*
X69368360Y-88476211D01*
X69368363Y-88476212D01*
X69454476Y-88504191D01*
X69540591Y-88532171D01*
X69660038Y-88551089D01*
X69702279Y-88557780D01*
X69765414Y-88587709D01*
X69802345Y-88647021D01*
X69801347Y-88716883D01*
X69762737Y-88775116D01*
X69702279Y-88802726D01*
X69540706Y-88828317D01*
X69368555Y-88884251D01*
X69368547Y-88884254D01*
X69207269Y-88966432D01*
X69191466Y-88977912D01*
X69191466Y-88977913D01*
X69680591Y-89467037D01*
X69617007Y-89484075D01*
X69502993Y-89549901D01*
X69409901Y-89642993D01*
X69344075Y-89757007D01*
X69327037Y-89820590D01*
X68837913Y-89331466D01*
X68834229Y-89331756D01*
X68765852Y-89317392D01*
X68716095Y-89268340D01*
X68700500Y-89208138D01*
X68700500Y-88221886D01*
X68720185Y-88154847D01*
X68772989Y-88109092D01*
X68842147Y-88099148D01*
X68905703Y-88128173D01*
G37*
%TD.AperFunction*%
%TA.AperFunction,Conductor*%
G36*
X88661917Y-88132959D02*
G01*
X88696277Y-88193796D01*
X88699500Y-88221886D01*
X88699500Y-89208138D01*
X88679815Y-89275177D01*
X88627011Y-89320932D01*
X88565773Y-89331756D01*
X88562086Y-89331465D01*
X88072962Y-89820589D01*
X88055925Y-89757007D01*
X87990099Y-89642993D01*
X87897007Y-89549901D01*
X87782993Y-89484075D01*
X87719409Y-89467037D01*
X88208533Y-88977913D01*
X88192730Y-88966431D01*
X88031447Y-88884252D01*
X88031444Y-88884251D01*
X87859293Y-88828317D01*
X87697720Y-88802726D01*
X87634585Y-88772797D01*
X87597654Y-88713485D01*
X87598652Y-88643623D01*
X87637262Y-88585390D01*
X87697720Y-88557780D01*
X87712270Y-88555475D01*
X87859409Y-88532171D01*
X88031639Y-88476211D01*
X88192994Y-88393996D01*
X88339501Y-88287553D01*
X88467553Y-88159501D01*
X88475180Y-88149003D01*
X88530508Y-88106336D01*
X88600121Y-88100355D01*
X88661917Y-88132959D01*
G37*
%TD.AperFunction*%
%TA.AperFunction,Conductor*%
G36*
X82493834Y-84575072D02*
G01*
X82549767Y-84616944D01*
X82574184Y-84682408D01*
X82574500Y-84691254D01*
X82574500Y-87524215D01*
X82554815Y-87591254D01*
X82538181Y-87611896D01*
X81361897Y-88788180D01*
X81300574Y-88821665D01*
X81274216Y-88824499D01*
X81267736Y-88824499D01*
X81162282Y-88824499D01*
X81094375Y-88842695D01*
X81060421Y-88851793D01*
X80969093Y-88904522D01*
X80409436Y-89464180D01*
X80348113Y-89497665D01*
X80321755Y-89500499D01*
X80259953Y-89500499D01*
X80107226Y-89541422D01*
X80107225Y-89541422D01*
X79981503Y-89614007D01*
X79969838Y-89616836D01*
X79960061Y-89623799D01*
X79936511Y-89624920D01*
X79913603Y-89630478D01*
X79900517Y-89626635D01*
X79890270Y-89627124D01*
X79857504Y-89614006D01*
X79762500Y-89559156D01*
X79714285Y-89508590D01*
X79700500Y-89451769D01*
X79700500Y-87042125D01*
X79720185Y-86975086D01*
X79736819Y-86954444D01*
X80169902Y-86521361D01*
X80655686Y-86035577D01*
X80678836Y-85995480D01*
X80698477Y-85961459D01*
X80749043Y-85913245D01*
X80817650Y-85900021D01*
X80867864Y-85916073D01*
X80943216Y-85959577D01*
X81095943Y-86000500D01*
X81095945Y-86000500D01*
X81254055Y-86000500D01*
X81254057Y-86000500D01*
X81406784Y-85959577D01*
X81543716Y-85880520D01*
X81655520Y-85768716D01*
X81734577Y-85631784D01*
X81775500Y-85479057D01*
X81775500Y-85320943D01*
X81766546Y-85287526D01*
X81768207Y-85217678D01*
X81798637Y-85167754D01*
X82362819Y-84603573D01*
X82424142Y-84570088D01*
X82493834Y-84575072D01*
G37*
%TD.AperFunction*%
%TA.AperFunction,Conductor*%
G36*
X87176716Y-63085424D02*
G01*
X87320591Y-63132171D01*
X87393639Y-63143740D01*
X87480678Y-63157527D01*
X87543813Y-63187456D01*
X87580744Y-63246768D01*
X87579746Y-63316631D01*
X87541136Y-63374863D01*
X87480678Y-63402473D01*
X87320589Y-63427829D01*
X87148363Y-63483787D01*
X87148360Y-63483788D01*
X86987006Y-63566003D01*
X86855747Y-63661367D01*
X86855740Y-63661373D01*
X86840499Y-63672447D01*
X86712447Y-63800499D01*
X86701373Y-63815740D01*
X86701367Y-63815747D01*
X86606003Y-63947006D01*
X86523788Y-64108360D01*
X86523787Y-64108363D01*
X86467829Y-64280589D01*
X86439500Y-64459448D01*
X86439500Y-64640551D01*
X86467829Y-64819410D01*
X86523787Y-64991636D01*
X86523788Y-64991639D01*
X86578268Y-65098560D01*
X86605869Y-65152730D01*
X86606006Y-65152997D01*
X86712441Y-65299494D01*
X86712445Y-65299499D01*
X86840500Y-65427554D01*
X86840505Y-65427558D01*
X86950639Y-65507574D01*
X86987006Y-65533996D01*
X87055503Y-65568897D01*
X87148360Y-65616211D01*
X87148363Y-65616212D01*
X87234476Y-65644191D01*
X87320591Y-65672171D01*
X87393639Y-65683740D01*
X87480678Y-65697527D01*
X87543813Y-65727456D01*
X87580744Y-65786768D01*
X87579746Y-65856631D01*
X87541136Y-65914863D01*
X87480678Y-65942473D01*
X87320589Y-65967829D01*
X87148363Y-66023787D01*
X87148360Y-66023788D01*
X86987002Y-66106006D01*
X86840505Y-66212441D01*
X86840500Y-66212445D01*
X86712445Y-66340500D01*
X86712441Y-66340505D01*
X86606006Y-66487002D01*
X86523788Y-66648360D01*
X86523787Y-66648363D01*
X86467829Y-66820589D01*
X86439500Y-66999448D01*
X86439500Y-67180551D01*
X86467829Y-67359410D01*
X86514575Y-67503281D01*
X86516570Y-67573122D01*
X86484325Y-67629280D01*
X82253522Y-71860084D01*
X82253518Y-71860090D01*
X82200792Y-71951412D01*
X82200793Y-71951413D01*
X82173500Y-72053273D01*
X82173500Y-82513000D01*
X82170949Y-82521685D01*
X82172238Y-82530647D01*
X82161259Y-82554687D01*
X82153815Y-82580039D01*
X82146974Y-82585966D01*
X82143213Y-82594203D01*
X82120978Y-82608492D01*
X82101011Y-82625794D01*
X82090496Y-82628081D01*
X82084435Y-82631977D01*
X82049500Y-82637000D01*
X81979755Y-82637000D01*
X81912716Y-82617315D01*
X81892074Y-82600681D01*
X80695915Y-81404522D01*
X80695913Y-81404520D01*
X80650250Y-81378156D01*
X80604589Y-81351793D01*
X80553657Y-81338146D01*
X80502727Y-81324500D01*
X80502726Y-81324500D01*
X79785541Y-81324500D01*
X79718502Y-81304815D01*
X79672747Y-81252011D01*
X79662803Y-81182853D01*
X79678153Y-81138501D01*
X79689689Y-81118518D01*
X79737800Y-81035188D01*
X79778723Y-80882461D01*
X79778723Y-80724347D01*
X79737800Y-80571620D01*
X79713196Y-80529004D01*
X79658747Y-80434694D01*
X79658741Y-80434686D01*
X79546940Y-80322885D01*
X79546932Y-80322879D01*
X79410013Y-80243830D01*
X79410009Y-80243828D01*
X79410007Y-80243827D01*
X79257280Y-80202904D01*
X79257279Y-80202904D01*
X79195478Y-80202904D01*
X79166037Y-80194259D01*
X79136051Y-80187736D01*
X79131035Y-80183981D01*
X79128439Y-80183219D01*
X79107797Y-80166585D01*
X78986819Y-80045607D01*
X78953334Y-79984284D01*
X78950500Y-79957926D01*
X78950500Y-78500098D01*
X78970185Y-78433059D01*
X78986819Y-78412417D01*
X79001963Y-78397273D01*
X79030520Y-78368716D01*
X79109577Y-78231784D01*
X79150500Y-78079057D01*
X79150500Y-77920943D01*
X79109577Y-77768216D01*
X79041383Y-77650099D01*
X79030524Y-77631290D01*
X79030518Y-77631282D01*
X78986819Y-77587583D01*
X78953334Y-77526260D01*
X78950500Y-77499902D01*
X78950500Y-71267253D01*
X78970185Y-71200214D01*
X78986815Y-71179576D01*
X79575703Y-70590687D01*
X79575708Y-70590684D01*
X79585911Y-70580480D01*
X79585913Y-70580480D01*
X87050719Y-63115672D01*
X87112040Y-63082189D01*
X87176716Y-63085424D01*
G37*
%TD.AperFunction*%
%TA.AperFunction,Conductor*%
G36*
X70349281Y-73275674D02*
G01*
X71538181Y-74464574D01*
X71571666Y-74525897D01*
X71574500Y-74552255D01*
X71574500Y-81924602D01*
X71554815Y-81991641D01*
X71538181Y-82012283D01*
X71172181Y-82378283D01*
X71110858Y-82411768D01*
X71041166Y-82406784D01*
X70985233Y-82364912D01*
X70960816Y-82299448D01*
X70960500Y-82290602D01*
X70960500Y-82239448D01*
X70944019Y-82135397D01*
X70932171Y-82060591D01*
X70876211Y-81888361D01*
X70876211Y-81888360D01*
X70801581Y-81741893D01*
X70793996Y-81727006D01*
X70765365Y-81687598D01*
X70687558Y-81580505D01*
X70687554Y-81580500D01*
X70559499Y-81452445D01*
X70559494Y-81452441D01*
X70412997Y-81346006D01*
X70412996Y-81346005D01*
X70412994Y-81346004D01*
X70332157Y-81304815D01*
X70251639Y-81263788D01*
X70251636Y-81263787D01*
X70079410Y-81207829D01*
X69919321Y-81182473D01*
X69856186Y-81152544D01*
X69819255Y-81093232D01*
X69820253Y-81023370D01*
X69858863Y-80965137D01*
X69919321Y-80937527D01*
X69989425Y-80926422D01*
X70079409Y-80912171D01*
X70251639Y-80856211D01*
X70412994Y-80773996D01*
X70559501Y-80667553D01*
X70687553Y-80539501D01*
X70793996Y-80392994D01*
X70876211Y-80231639D01*
X70932171Y-80059409D01*
X70948244Y-79957926D01*
X70960500Y-79880551D01*
X70960500Y-79699448D01*
X70934090Y-79532708D01*
X70932171Y-79520591D01*
X70876211Y-79348361D01*
X70876211Y-79348360D01*
X70847740Y-79292484D01*
X70793996Y-79187006D01*
X70780396Y-79168287D01*
X70687558Y-79040505D01*
X70687554Y-79040500D01*
X70559499Y-78912445D01*
X70559494Y-78912441D01*
X70412997Y-78806006D01*
X70412996Y-78806005D01*
X70412994Y-78806004D01*
X70361300Y-78779664D01*
X70251639Y-78723788D01*
X70251636Y-78723787D01*
X70079410Y-78667828D01*
X69917720Y-78642219D01*
X69854585Y-78612289D01*
X69817654Y-78552978D01*
X69818652Y-78483115D01*
X69857262Y-78424883D01*
X69917721Y-78397273D01*
X70079292Y-78371683D01*
X70251444Y-78315748D01*
X70251452Y-78315745D01*
X70412730Y-78233568D01*
X70428532Y-78222085D01*
X70428533Y-78222085D01*
X69939410Y-77732962D01*
X70002993Y-77715925D01*
X70117007Y-77650099D01*
X70210099Y-77557007D01*
X70275925Y-77442993D01*
X70292962Y-77379410D01*
X70782085Y-77868533D01*
X70782085Y-77868532D01*
X70793568Y-77852730D01*
X70875745Y-77691452D01*
X70875748Y-77691444D01*
X70931682Y-77519293D01*
X70960000Y-77340506D01*
X70960000Y-77159493D01*
X70931682Y-76980706D01*
X70875748Y-76808555D01*
X70875747Y-76808552D01*
X70793571Y-76647275D01*
X70793566Y-76647267D01*
X70782085Y-76631466D01*
X70292962Y-77120589D01*
X70275925Y-77057007D01*
X70210099Y-76942993D01*
X70117007Y-76849901D01*
X70002993Y-76784075D01*
X69939409Y-76767037D01*
X70428533Y-76277913D01*
X70412730Y-76266431D01*
X70251447Y-76184252D01*
X70251444Y-76184251D01*
X70079293Y-76128317D01*
X69917720Y-76102726D01*
X69854585Y-76072797D01*
X69817654Y-76013485D01*
X69818652Y-75943623D01*
X69857262Y-75885390D01*
X69917720Y-75857780D01*
X69932270Y-75855475D01*
X70079409Y-75832171D01*
X70251639Y-75776211D01*
X70412994Y-75693996D01*
X70559501Y-75587553D01*
X70687553Y-75459501D01*
X70793996Y-75312994D01*
X70876211Y-75151639D01*
X70932171Y-74979409D01*
X70946765Y-74887259D01*
X70960500Y-74800551D01*
X70960500Y-74619448D01*
X70941722Y-74500893D01*
X70932171Y-74440591D01*
X70876211Y-74268361D01*
X70876211Y-74268360D01*
X70847740Y-74212484D01*
X70793996Y-74107006D01*
X70785219Y-74094926D01*
X70698638Y-73975755D01*
X70698634Y-73975751D01*
X70687553Y-73960499D01*
X70559501Y-73832447D01*
X70544248Y-73821365D01*
X70544244Y-73821361D01*
X70412997Y-73726006D01*
X70412996Y-73726005D01*
X70412994Y-73726004D01*
X70361300Y-73699664D01*
X70251639Y-73643788D01*
X70251636Y-73643787D01*
X70079410Y-73587829D01*
X69919321Y-73562473D01*
X69856186Y-73532544D01*
X69819255Y-73473232D01*
X69820253Y-73403370D01*
X69858863Y-73345137D01*
X69919321Y-73317527D01*
X70079409Y-73292171D01*
X70130182Y-73275674D01*
X70223284Y-73245423D01*
X70293123Y-73243429D01*
X70349281Y-73275674D01*
G37*
%TD.AperFunction*%
%TA.AperFunction,Conductor*%
G36*
X88562084Y-77868532D02*
G01*
X88565772Y-77868242D01*
X88634149Y-77882606D01*
X88683905Y-77931658D01*
X88699500Y-77991860D01*
X88699500Y-78978113D01*
X88679815Y-79045152D01*
X88627011Y-79090907D01*
X88557853Y-79100851D01*
X88494297Y-79071826D01*
X88475182Y-79050998D01*
X88467558Y-79040505D01*
X88467554Y-79040500D01*
X88339499Y-78912445D01*
X88339494Y-78912441D01*
X88192997Y-78806006D01*
X88192996Y-78806005D01*
X88192994Y-78806004D01*
X88141300Y-78779664D01*
X88031639Y-78723788D01*
X88031636Y-78723787D01*
X87859410Y-78667828D01*
X87697720Y-78642219D01*
X87634585Y-78612289D01*
X87597654Y-78552978D01*
X87598652Y-78483115D01*
X87637262Y-78424883D01*
X87697721Y-78397273D01*
X87859292Y-78371683D01*
X88031444Y-78315748D01*
X88031452Y-78315745D01*
X88192730Y-78233568D01*
X88208532Y-78222085D01*
X88208533Y-78222085D01*
X87719410Y-77732962D01*
X87782993Y-77715925D01*
X87897007Y-77650099D01*
X87990099Y-77557007D01*
X88055925Y-77442993D01*
X88072962Y-77379409D01*
X88562084Y-77868532D01*
G37*
%TD.AperFunction*%
%TA.AperFunction,Conductor*%
G36*
X69344075Y-77442993D02*
G01*
X69409901Y-77557007D01*
X69502993Y-77650099D01*
X69617007Y-77715925D01*
X69680590Y-77732962D01*
X69191466Y-78222085D01*
X69191466Y-78222086D01*
X69207267Y-78233566D01*
X69207275Y-78233571D01*
X69368552Y-78315747D01*
X69368555Y-78315748D01*
X69540706Y-78371682D01*
X69702279Y-78397273D01*
X69765413Y-78427202D01*
X69802345Y-78486513D01*
X69801347Y-78556376D01*
X69762738Y-78614609D01*
X69702280Y-78642219D01*
X69540589Y-78667829D01*
X69368363Y-78723787D01*
X69368360Y-78723788D01*
X69207002Y-78806006D01*
X69060505Y-78912441D01*
X69060500Y-78912445D01*
X68932445Y-79040500D01*
X68932441Y-79040505D01*
X68924818Y-79050998D01*
X68869488Y-79093664D01*
X68799875Y-79099643D01*
X68738080Y-79067037D01*
X68703723Y-79006199D01*
X68700500Y-78978113D01*
X68700500Y-77991861D01*
X68720185Y-77924822D01*
X68772989Y-77879067D01*
X68834229Y-77868243D01*
X68837913Y-77868533D01*
X69327037Y-77379409D01*
X69344075Y-77442993D01*
G37*
%TD.AperFunction*%
%TA.AperFunction,Conductor*%
G36*
X68905703Y-75428173D02*
G01*
X68924821Y-75449004D01*
X68932446Y-75459500D01*
X69060500Y-75587554D01*
X69060505Y-75587558D01*
X69188287Y-75680396D01*
X69207006Y-75693996D01*
X69312484Y-75747740D01*
X69368360Y-75776211D01*
X69368363Y-75776212D01*
X69454476Y-75804191D01*
X69540591Y-75832171D01*
X69651796Y-75849784D01*
X69702279Y-75857780D01*
X69765414Y-75887709D01*
X69802345Y-75947021D01*
X69801347Y-76016883D01*
X69762737Y-76075116D01*
X69702279Y-76102726D01*
X69540706Y-76128317D01*
X69368555Y-76184251D01*
X69368547Y-76184254D01*
X69207269Y-76266432D01*
X69191466Y-76277912D01*
X69191466Y-76277913D01*
X69680591Y-76767037D01*
X69617007Y-76784075D01*
X69502993Y-76849901D01*
X69409901Y-76942993D01*
X69344075Y-77057007D01*
X69327037Y-77120590D01*
X68837913Y-76631466D01*
X68834229Y-76631756D01*
X68765852Y-76617392D01*
X68716095Y-76568340D01*
X68700500Y-76508138D01*
X68700500Y-75521886D01*
X68720185Y-75454847D01*
X68772989Y-75409092D01*
X68842147Y-75399148D01*
X68905703Y-75428173D01*
G37*
%TD.AperFunction*%
%TA.AperFunction,Conductor*%
G36*
X88661917Y-75432959D02*
G01*
X88696277Y-75493796D01*
X88699500Y-75521886D01*
X88699500Y-76508138D01*
X88679815Y-76575177D01*
X88627011Y-76620932D01*
X88565773Y-76631756D01*
X88562086Y-76631465D01*
X88072962Y-77120589D01*
X88055925Y-77057007D01*
X87990099Y-76942993D01*
X87897007Y-76849901D01*
X87782993Y-76784075D01*
X87719408Y-76767037D01*
X88208533Y-76277913D01*
X88192730Y-76266431D01*
X88031447Y-76184252D01*
X88031444Y-76184251D01*
X87859293Y-76128317D01*
X87697720Y-76102726D01*
X87634585Y-76072797D01*
X87597654Y-76013485D01*
X87598652Y-75943623D01*
X87637262Y-75885390D01*
X87697720Y-75857780D01*
X87712270Y-75855475D01*
X87859409Y-75832171D01*
X88031639Y-75776211D01*
X88192994Y-75693996D01*
X88339501Y-75587553D01*
X88467553Y-75459501D01*
X88475180Y-75449003D01*
X88530508Y-75406336D01*
X88600121Y-75400355D01*
X88661917Y-75432959D01*
G37*
%TD.AperFunction*%
%TA.AperFunction,Conductor*%
G36*
X70349281Y-63115674D02*
G01*
X72741181Y-65507574D01*
X72774666Y-65568897D01*
X72777500Y-65595255D01*
X72777500Y-69191745D01*
X72757815Y-69258784D01*
X72705011Y-69304539D01*
X72635853Y-69314483D01*
X72572297Y-69285458D01*
X72565819Y-69279426D01*
X70915674Y-67629281D01*
X70882189Y-67567958D01*
X70885423Y-67503284D01*
X70932171Y-67359409D01*
X70960500Y-67180551D01*
X70960500Y-66999448D01*
X70944019Y-66895397D01*
X70932171Y-66820591D01*
X70876211Y-66648361D01*
X70876211Y-66648360D01*
X70847740Y-66592484D01*
X70793996Y-66487006D01*
X70731401Y-66400851D01*
X70687558Y-66340505D01*
X70687554Y-66340500D01*
X70559499Y-66212445D01*
X70559494Y-66212441D01*
X70412997Y-66106006D01*
X70412996Y-66106005D01*
X70412994Y-66106004D01*
X70361300Y-66079664D01*
X70251639Y-66023788D01*
X70251636Y-66023787D01*
X70079410Y-65967828D01*
X69917720Y-65942219D01*
X69854585Y-65912289D01*
X69817654Y-65852978D01*
X69818652Y-65783115D01*
X69857262Y-65724883D01*
X69917721Y-65697273D01*
X70079292Y-65671683D01*
X70251444Y-65615748D01*
X70251452Y-65615745D01*
X70412730Y-65533568D01*
X70428532Y-65522085D01*
X70428533Y-65522085D01*
X69939410Y-65032962D01*
X70002993Y-65015925D01*
X70117007Y-64950099D01*
X70210099Y-64857007D01*
X70275925Y-64742993D01*
X70292962Y-64679410D01*
X70782085Y-65168533D01*
X70782085Y-65168532D01*
X70793568Y-65152730D01*
X70875745Y-64991452D01*
X70875748Y-64991444D01*
X70931682Y-64819293D01*
X70960000Y-64640506D01*
X70960000Y-64459493D01*
X70931682Y-64280706D01*
X70875748Y-64108555D01*
X70875747Y-64108552D01*
X70793571Y-63947275D01*
X70793566Y-63947267D01*
X70782085Y-63931466D01*
X70292962Y-64420589D01*
X70275925Y-64357007D01*
X70210099Y-64242993D01*
X70117007Y-64149901D01*
X70002993Y-64084075D01*
X69939409Y-64067037D01*
X70428533Y-63577913D01*
X70412730Y-63566431D01*
X70251447Y-63484252D01*
X70251444Y-63484251D01*
X70079293Y-63428317D01*
X69917720Y-63402726D01*
X69854585Y-63372797D01*
X69817654Y-63313485D01*
X69818652Y-63243623D01*
X69857262Y-63185390D01*
X69917720Y-63157780D01*
X69932270Y-63155475D01*
X70079409Y-63132171D01*
X70223284Y-63085423D01*
X70293123Y-63083429D01*
X70349281Y-63115674D01*
G37*
%TD.AperFunction*%
%TA.AperFunction,Conductor*%
G36*
X69344075Y-64742993D02*
G01*
X69409901Y-64857007D01*
X69502993Y-64950099D01*
X69617007Y-65015925D01*
X69680590Y-65032962D01*
X69191466Y-65522085D01*
X69191466Y-65522086D01*
X69207267Y-65533566D01*
X69207275Y-65533571D01*
X69368552Y-65615747D01*
X69368555Y-65615748D01*
X69540706Y-65671682D01*
X69702279Y-65697273D01*
X69765413Y-65727202D01*
X69802345Y-65786513D01*
X69801347Y-65856376D01*
X69762738Y-65914609D01*
X69702280Y-65942219D01*
X69540589Y-65967829D01*
X69368363Y-66023787D01*
X69368360Y-66023788D01*
X69207002Y-66106006D01*
X69060505Y-66212441D01*
X69060500Y-66212445D01*
X68932445Y-66340500D01*
X68932441Y-66340505D01*
X68924818Y-66350998D01*
X68869488Y-66393664D01*
X68799875Y-66399643D01*
X68738080Y-66367037D01*
X68703723Y-66306199D01*
X68700500Y-66278113D01*
X68700500Y-65291861D01*
X68720185Y-65224822D01*
X68772989Y-65179067D01*
X68834229Y-65168243D01*
X68837913Y-65168533D01*
X69327037Y-64679409D01*
X69344075Y-64742993D01*
G37*
%TD.AperFunction*%
%TA.AperFunction,Conductor*%
G36*
X68838525Y-62699668D02*
G01*
X68842147Y-62699148D01*
X68870838Y-62712250D01*
X68900224Y-62723693D01*
X68903679Y-62727248D01*
X68905703Y-62728173D01*
X68924821Y-62749004D01*
X68932446Y-62759500D01*
X69060500Y-62887554D01*
X69060505Y-62887558D01*
X69184801Y-62977863D01*
X69207006Y-62993996D01*
X69312484Y-63047740D01*
X69368360Y-63076211D01*
X69368363Y-63076212D01*
X69445277Y-63101202D01*
X69540591Y-63132171D01*
X69660038Y-63151089D01*
X69702279Y-63157780D01*
X69765414Y-63187709D01*
X69802345Y-63247021D01*
X69801347Y-63316883D01*
X69762737Y-63375116D01*
X69702279Y-63402726D01*
X69540706Y-63428317D01*
X69368555Y-63484251D01*
X69368547Y-63484254D01*
X69207269Y-63566432D01*
X69191466Y-63577912D01*
X69191466Y-63577913D01*
X69680591Y-64067037D01*
X69617007Y-64084075D01*
X69502993Y-64149901D01*
X69409901Y-64242993D01*
X69344075Y-64357007D01*
X69327037Y-64420590D01*
X68837913Y-63931466D01*
X68834229Y-63931756D01*
X68765852Y-63917392D01*
X68716095Y-63868340D01*
X68700500Y-63808138D01*
X68700500Y-62821886D01*
X68709383Y-62791633D01*
X68716529Y-62760908D01*
X68719154Y-62758356D01*
X68720185Y-62754847D01*
X68744010Y-62734202D01*
X68766637Y-62712214D01*
X68770224Y-62711487D01*
X68772989Y-62709092D01*
X68804196Y-62704604D01*
X68835115Y-62698341D01*
X68838525Y-62699668D01*
G37*
%TD.AperFunction*%
%TD*%
M02*
