M48
; DRILL file {KiCad 9.0.6} date 2025-12-04T10:49:40-0500
; FORMAT={-:-/ absolute / metric / decimal}
; #@! TF.CreationDate,2025-12-04T10:49:40-05:00
; #@! TF.GenerationSoftware,Kicad,Pcbnew,9.0.6
; #@! TF.FileFunction,Plated,1,2,PTH
FMAT,2
METRIC
; #@! TA.AperFunction,Plated,PTH,ViaDrill
T1C0.300
; #@! TA.AperFunction,Plated,PTH,ComponentDrill
T2C0.600
; #@! TA.AperFunction,Plated,PTH,ComponentDrill
T3C1.000
%
G90
G05
T1
X69.1Y-76.05
X69.1Y-78.5
X70.625Y-78.475
X70.655Y-76.405
X71.375Y-74.925
X72.2Y-88.8
X72.673Y-85.077
X72.673Y-85.95
X72.673Y-86.8
X72.751Y-83.35
X74.225Y-83.15
X74.325Y-85.019
X74.375Y-71.0
X74.537Y-81.162
X75.2Y-95.42
X75.583Y-97.701
X75.795Y-78.55
X76.201Y-90.102
X76.8Y-86.65
X76.85Y-95.1
X77.025Y-77.225
X77.1Y-93.65
X77.65Y-79.275
X77.7Y-90.1
X77.85Y-85.625
X77.9Y-72.175
X78.0Y-70.26
X78.438Y-81.188
X78.55Y-78.0
X78.95Y-68.725
X79.1Y-83.807
X79.178Y-80.803
X79.3Y-85.6
X79.45Y-78.05
X79.5Y-90.101
X80.25Y-101.4
X80.3Y-99.85
X80.335Y-85.132
X80.339Y-90.101
X80.775Y-87.7
X81.175Y-85.4
X81.202Y-90.096
X81.7Y-71.075
X81.85Y-101.45
X81.875Y-99.825
X81.962Y-83.237
X83.575Y-79.612
X83.575Y-85.6
X84.35Y-79.95
X84.65Y-63.625
X84.925Y-59.675
X85.725Y-89.975
X86.35Y-78.425
X86.5Y-75.8
X88.325Y-78.475
T3
X69.81Y-59.47
X69.81Y-62.01
X69.81Y-64.55
X69.81Y-67.09
X69.81Y-69.63
X69.81Y-72.17
X69.81Y-74.71
X69.81Y-77.25
X69.81Y-79.79
X69.81Y-82.33
X69.81Y-84.87
X69.81Y-87.41
X69.81Y-89.95
X69.81Y-92.49
X69.81Y-95.03
X69.81Y-97.57
X69.81Y-100.11
X69.81Y-102.65
X69.81Y-105.19
X69.81Y-107.73
X76.16Y-107.69
X78.7Y-107.69
X81.24Y-107.69
X87.59Y-59.47
X87.59Y-62.01
X87.59Y-64.55
X87.59Y-67.09
X87.59Y-69.63
X87.59Y-72.17
X87.59Y-74.71
X87.59Y-77.25
X87.59Y-79.79
X87.59Y-82.33
X87.59Y-84.87
X87.59Y-87.41
X87.59Y-89.95
X87.59Y-92.49
X87.59Y-95.03
X87.59Y-97.57
X87.59Y-100.11
X87.59Y-102.65
X87.59Y-105.19
X87.59Y-107.73
T2
G00X74.38Y-59.85
M15
G01X74.38Y-59.25
M16
G05
G00X74.38Y-64.28
M15
G01X74.38Y-63.18
M16
G05
G00X83.02Y-59.85
M15
G01X83.02Y-59.25
M16
G05
G00X83.02Y-64.28
M15
G01X83.02Y-63.18
M16
G05
M30
