%TF.GenerationSoftware,KiCad,Pcbnew,9.0.6*%
%TF.CreationDate,2025-12-04T10:49:31-05:00*%
%TF.ProjectId,Devboard,44657662-6f61-4726-942e-6b696361645f,rev?*%
%TF.SameCoordinates,Original*%
%TF.FileFunction,Soldermask,Bot*%
%TF.FilePolarity,Negative*%
%FSLAX46Y46*%
G04 Gerber Fmt 4.6, Leading zero omitted, Abs format (unit mm)*
G04 Created by KiCad (PCBNEW 9.0.6) date 2025-12-04 10:49:31*
%MOMM*%
%LPD*%
G01*
G04 APERTURE LIST*
%ADD10R,1.700000X1.700000*%
%ADD11C,1.700000*%
%ADD12O,1.000000X1.600000*%
%ADD13O,1.000000X2.100000*%
%ADD14C,0.650000*%
G04 APERTURE END LIST*
D10*
%TO.C,J4*%
X76160000Y-107690000D03*
D11*
X78700000Y-107690000D03*
X81240000Y-107690000D03*
%TD*%
D10*
%TO.C,J3*%
X87590000Y-59470000D03*
D11*
X87590000Y-62010000D03*
X87590000Y-64550000D03*
X87590000Y-67090000D03*
X87590000Y-69630000D03*
X87590000Y-72170000D03*
X87590000Y-74710000D03*
X87590000Y-77250000D03*
X87590000Y-79790000D03*
X87590000Y-82330000D03*
X87590000Y-84870000D03*
X87590000Y-87410000D03*
X87590000Y-89950000D03*
X87590000Y-92490000D03*
X87590000Y-95030000D03*
X87590000Y-97570000D03*
X87590000Y-100110000D03*
X87590000Y-102650000D03*
X87590000Y-105190000D03*
X87590000Y-107730000D03*
%TD*%
D10*
%TO.C,J2*%
X69810000Y-59470000D03*
D11*
X69810000Y-62010000D03*
X69810000Y-64550000D03*
X69810000Y-67090000D03*
X69810000Y-69630000D03*
X69810000Y-72170000D03*
X69810000Y-74710000D03*
X69810000Y-77250000D03*
X69810000Y-79790000D03*
X69810000Y-82330000D03*
X69810000Y-84870000D03*
X69810000Y-87410000D03*
X69810000Y-89950000D03*
X69810000Y-92490000D03*
X69810000Y-95030000D03*
X69810000Y-97570000D03*
X69810000Y-100110000D03*
X69810000Y-102650000D03*
X69810000Y-105190000D03*
X69810000Y-107730000D03*
%TD*%
D12*
%TO.C,J1*%
X74380000Y-59550000D03*
D13*
X74380000Y-63730000D03*
D12*
X83020000Y-59550000D03*
D13*
X83020000Y-63730000D03*
D14*
X75810000Y-63200000D03*
X81590000Y-63200000D03*
%TD*%
M02*
